aileron_light-italic.sfdir

StartChar: exclam
Encoding: 33 33 250
Width: 221
Flags: MW
HStem: -14 21G<49 76> -14 95<63 76> 670 20G<156 228 228 228>
VStem: 21 97<27 40> 21 207
LayerCount: 2
Fore
SplineSet
118 154 m 1xa8
 62 154 l 1
 156 690 l 1
 228 690 l 1
 118 154 l 1xa8
78 81 m 0x70
 102 81 118 65 118 43 c 0
 118 11 91 -14 61 -14 c 0
 37 -14 21 2 21 24 c 0
 21 56 48 81 78 81 c 0x70
EndSplineSet
EndChar

StartChar: quotedbl
Encoding: 34 34 257
Width: 233
Flags: MW
HStem: 487 248<82 95 45 146 82 163 200 213>
VStem: 45 220
LayerCount: 2
Fore
SplineSet
95 487 m 1
 45 487 l 1
 82 735 l 1
 146 735 l 1
 95 487 l 1
213 487 m 1
 163 487 l 1
 200 735 l 1
 265 735 l 1
 213 487 l 1
EndSplineSet
EndChar

StartChar: numbersign
Encoding: 35 35 252
Width: 561
Flags: MW
HStem: 0 21G<68 112 68 68 211 255 211 211> 229 43<67 157 59 174 218 300 67 201 361 462> 418 43<130 231 122 248 130 275 292 374 435 525> 670 20G<337 381 381 381 480 524 524 524>
VStem: 59 474<229 461>
LayerCount: 2
Fore
SplineSet
418 418 m 1
 361 272 l 1
 469 272 l 1
 462 229 l 1
 344 229 l 1
 255 0 l 1
 211 0 l 1
 300 229 l 1
 201 229 l 1
 112 0 l 1
 68 0 l 1
 157 229 l 1
 59 229 l 1
 67 272 l 1
 174 272 l 1
 231 418 l 1
 122 418 l 1
 130 461 l 1
 248 461 l 1
 337 690 l 1
 381 690 l 1
 292 461 l 1
 391 461 l 1
 480 690 l 1
 524 690 l 1
 435 461 l 1
 533 461 l 1
 525 418 l 1
 418 418 l 1
374 418 m 1
 275 418 l 1
 218 272 l 1
 317 272 l 1
 374 418 l 1
EndSplineSet
EndChar

StartChar: dollar
Encoding: 36 36 285
Width: 561
Flags: MW
HStem: -90 126<186 253 186 253> -12 21G<200 200> 654 126<318 385>
VStem: 22 65<184 184> 99 67<476 542 476 547.5> 418 67<140 216> 465 66<511 511>
LayerCount: 2
Fore
SplineSet
362 651 m 1x6c
 314 377 l 1
 427 340 485 281 485 184 c 0
 485 75 399 -10 244 -14 c 1
 231 -90 l 1
 186 -90 l 1xac
 200 -12 l 1
 71 0 25 89 22 184 c 1
 87 184 l 1x7c
 93 98 133 48 209 38 c 1
 259 321 l 1
 169 350 99 398 99 500 c 0
 99 595 166 699 327 704 c 1
 340 780 l 1
 385 780 l 1
 371 702 l 1
 480 689 529 608 531 511 c 1
 465 511 l 1x6a
 463 591 426 640 362 651 c 1x6c
166 507 m 0
 166 445 208 408 271 387 c 1
 318 654 l 1
 213 648 166 577 166 507 c 0
302 312 m 1
 253 36 l 1
 363 41 418 99 418 181 c 0
 418 251 378 286 302 312 c 1
EndSplineSet
EndChar

StartChar: percent
Encoding: 37 37 305
Width: 725
Flags: MW
HStem: -14 45<474 528 474 547> 0 21G<58 126 58 58> 259 45<497.5 551> 386 45<202 255.5 202 274.5> 659 45<224.5 278.5> 670 20G<625 693 693 693>
VStem: 96 62<488.5 551 488.5 560> 322 62<539.5 602> 369 61<88.5 151 88.5 160> 595 62<139.5 202>
LayerCount: 2
Fore
SplineSet
218 386 m 0xbb40
 143 386 96 439 96 516 c 0
 96 604 150 704 262 704 c 0
 337 704 384 651 384 574 c 0
 384 486 331 386 218 386 c 0xbb40
693 690 m 1x7740
 126 0 l 1
 58 0 l 1
 625 690 l 1
 693 690 l 1x7740
256 659 m 0xbb40
 193 659 158 589 158 513 c 0
 158 464 180 431 224 431 c 0
 287 431 322 501 322 578 c 0
 322 626 301 659 256 659 c 0xbb40
535 304 m 0
 610 304 657 251 657 174 c 0
 657 86 603 -14 491 -14 c 0
 415 -14 369 39 369 116 c 0xbac0
 369 204 422 304 535 304 c 0
496 31 m 0xbac0
 560 31 595 101 595 178 c 0
 595 226 573 259 529 259 c 0
 466 259 430 189 430 113 c 0
 430 64 452 31 496 31 c 0xbac0
EndSplineSet
EndChar

StartChar: ampersand
Encoding: 38 38 313
Width: 651
Flags: MW
HStem: -14 50<232.5 309> 322 52<371 471 392 461 533 624> 654 50<339 418.5> 674 20G<524 524>
VStem: 39 71<106.5 196> 132 70<449 539.5 443 552.5>
LayerCount: 2
Fore
SplineSet
634 374 m 1xe8
 624 322 l 1
 523 322 l 1
 467 5 l 1
 408 -7 338 -14 280 -14 c 0
 142 -14 39 20 39 140 c 0xe8
 39 252 125 331 245 350 c 1
 178 365 132 409 132 489 c 0
 132 616 252 704 406 704 c 0xec
 455 704 487 701 524 694 c 1xd8
 515 643 l 1
 475 651 443 654 394 654 c 0
 284 654 202 594 202 485 c 0xec
 202 401 264 379 330 375 c 0
 349 374 370 374 392 374 c 2
 471 374 l 1
 493 501 l 1
 555 501 l 1
 533 374 l 1
 634 374 l 1xe8
461 322 m 1
 382 322 l 2
 360 322 341 322 321 320 c 0
 189 309 110 252 110 148 c 0
 110 65 174 36 291 36 c 0
 332 36 373 39 413 46 c 1
 461 322 l 1
EndSplineSet
EndChar

StartChar: quotesingle
Encoding: 39 39 258
Width: 115
Flags: MW
HStem: 715 20G<82 146 146 146>
VStem: 45 101
LayerCount: 2
Fore
SplineSet
95 487 m 1
 45 487 l 1
 82 735 l 1
 146 735 l 1
 95 487 l 1
EndSplineSet
EndChar

StartChar: parenleft
Encoding: 40 40 266
Width: 288
Flags: MW
HStem: -80 860<153 349 153 349>
VStem: 96 49<150 288.5>
LayerCount: 2
Fore
SplineSet
197 -80 m 1
 153 -80 l 1
 116 -4 96 95 96 200 c 0
 96 377 163 611 305 780 c 1
 349 780 l 1
 205 595 145 380 145 201 c 0
 145 99 163 3 197 -80 c 1
EndSplineSet
EndChar

StartChar: parenright
Encoding: 41 41 267
Width: 288
Flags: MW
HStem: -80 860<-31 165 -31 165>
VStem: 173 49<411.5 550>
LayerCount: 2
Fore
SplineSet
121 780 m 1
 165 780 l 1
 202 704 222 605 222 500 c 0
 222 323 155 89 13 -80 c 1
 -31 -80 l 1
 113 106 173 321 173 499 c 0
 173 601 155 697 121 780 c 1
EndSplineSet
EndChar

StartChar: asterisk
Encoding: 42 42 244
Width: 530
Flags: MW
HStem: 89 386<128 323 275 333>
VStem: 81 375<304 304>
LayerCount: 2
Fore
SplineSet
284 291 m 1
 450 350 l 1
 456 304 l 1
 290 259 l 1
 377 117 l 1
 333 89 l 1
 258 240 l 1
 128 89 l 1
 95 117 l 1
 231 259 l 1
 81 304 l 1
 104 350 l 1
 249 291 l 1
 275 475 l 1
 323 475 l 1
 284 291 l 1
EndSplineSet
EndChar

StartChar: plus
Encoding: 43 43 307
Width: 561
Flags: MW
HStem: 295 42<75 252 68 259 303 480 75 296>
VStem: 68 420<295 337>
LayerCount: 2
Fore
SplineSet
480 295 m 1
 296 295 l 1
 259 86 l 1
 215 86 l 1
 252 295 l 1
 68 295 l 1
 75 337 l 1
 259 337 l 1
 297 549 l 1
 341 549 l 1
 303 337 l 1
 488 337 l 1
 480 295 l 1
EndSplineSet
EndChar

StartChar: hyphen
Encoding: 45 45 271
Width: 274
Flags: MW
HStem: 261 43<36 238 28 246>
VStem: 28 218<261 304>
LayerCount: 2
Fore
SplineSet
238 261 m 1
 28 261 l 1
 36 304 l 1
 246 304 l 1
 238 261 l 1
EndSplineSet
EndChar

StartChar: period
Encoding: 46 46 253
Width: 193
Flags: MW
HStem: -14 95<32 46>
VStem: -9 95<25.5 42>
LayerCount: 2
Fore
SplineSet
47 81 m 0
 71 81 86 64 86 42 c 0
 86 9 61 -14 31 -14 c 0
 7 -14 -9 3 -9 26 c 0
 -9 58 17 81 47 81 c 0
EndSplineSet
EndChar

StartChar: slash
Encoding: 47 47 260
Width: 288
Flags: MW
HStem: -30 750<-57 373 -57 373>
VStem: -57 430
LayerCount: 2
Fore
SplineSet
-10 -30 m 1
 -57 -30 l 1
 326 720 l 1
 373 720 l 1
 -10 -30 l 1
EndSplineSet
EndChar

StartChar: zero
Encoding: 48 48 233
Width: 561
Flags: MW
HStem: -14 50<191.5 330 191.5 352.5> 654 50<240 379>
VStem: 31 68<178 302 178 326.5> 471 69<389 513>
LayerCount: 2
Fore
SplineSet
333 704 m 0
 476 704 540 599 540 454 c 0
 540 274 467 -14 238 -14 c 0
 95 -14 31 91 31 237 c 0
 31 416 103 704 333 704 c 0
240 36 m 0
 420 36 471 325 471 453 c 0
 471 573 428 654 330 654 c 0
 150 654 99 366 99 238 c 0
 99 118 143 36 240 36 c 0
EndSplineSet
EndChar

StartChar: one
Encoding: 49 49 234
Width: 561
Flags: MW
HStem: 0 21G<261 323 261 261> 670 20G
VStem: 160 285<510 690>
LayerCount: 2
Fore
SplineSet
445 690 m 1
 323 0 l 1
 261 0 l 1
 371 625 l 1
 160 510 l 1
 172 576 l 1
 340 670 l 2
 368 686 387 690 406 690 c 2
 445 690 l 1
EndSplineSet
EndChar

StartChar: two
Encoding: 50 50 235
Width: 561
Flags: MW
HStem: 0 52<106 460> 654 50<318 404>
VStem: 482 70<500.5 575.5>
LayerCount: 2
Fore
SplineSet
106 52 m 1
 469 52 l 1
 460 0 l 1
 5 0 l 1
 12 37 l 1
 300 283 l 2
 436 399 482 456 482 542 c 0
 482 609 443 654 365 654 c 0
 271 654 200 598 176 489 c 1
 174 479 l 1
 112 479 l 1
 114 489 l 1
 147 634 250 704 380 704 c 0
 498 704 552 632 552 549 c 0
 552 452 491 375 329 240 c 1
 106 52 l 1
EndSplineSet
EndChar

StartChar: three
Encoding: 51 51 236
Width: 561
Flags: MW
HStem: -14 50<194.5 297 194.5 304.5> 325 52<272 279 262 289> 654 50<320 401.5>
VStem: 35 62<194 194> 438 70<155.5 246.5> 483 71<507.5 576>
LayerCount: 2
Fore
SplineSet
391 363 m 1xf8
 465 344 508 295 508 219 c 0
 508 75 380 -14 229 -14 c 0
 104 -14 24 50 35 194 c 1
 36 204 l 1
 98 204 l 1
 97 194 l 1
 90 93 146 36 243 36 c 0
 351 36 438 102 438 209 c 0xf8
 438 284 389 325 279 325 c 2
 262 325 l 1
 272 377 l 1
 289 377 l 2
 384 377 483 439 483 541 c 0
 483 611 438 654 365 654 c 0
 275 654 199 604 179 504 c 2
 177 494 l 1
 115 494 l 1
 117 504 l 2
 142 631 244 704 381 704 c 0
 492 704 554 641 554 554 c 0xf4
 554 461 482 385 391 363 c 1xf8
EndSplineSet
EndChar

StartChar: four
Encoding: 52 52 237
Width: 561
Flags: MW
HStem: 0 21G<333 395 333 333> 184 51<107 366 437 519> 670 20G<463 523 523 523>
VStem: 16 512<184 235>
LayerCount: 2
Fore
SplineSet
519 184 m 1
 428 184 l 1
 395 0 l 1
 333 0 l 1
 366 184 l 1
 16 184 l 1
 22 217 l 1
 463 690 l 1
 523 690 l 1
 437 235 l 1
 528 235 l 1
 519 184 l 1
375 235 m 1
 445 605 l 1
 422 575 394 543 359 504 c 1
 107 235 l 1
 375 235 l 1
EndSplineSet
EndChar

StartChar: five
Encoding: 53 53 238
Width: 561
Flags: MW
HStem: -14 50<184.5 286.5 184.5 297.5> 396 50<297.5 345.5> 637 52<232 232 232 557>
VStem: 35 63<181 191> 437 70<182.5 297.5>
LayerCount: 2
Fore
SplineSet
232 637 m 1
 145 366 l 1
 192 411 l 1
 232 436 273 446 322 446 c 0
 446 446 507 367 507 261 c 0
 507 87 371 -14 224 -14 c 0
 112 -14 25 49 35 181 c 1
 36 191 l 1
 98 191 l 1
 98 181 l 1
 96 90 136 36 233 36 c 0
 340 36 437 113 437 252 c 0
 437 343 387 396 304 396 c 0
 233 396 174 366 125 291 c 1
 66 291 l 1
 190 689 l 1
 567 689 l 1
 557 637 l 1
 232 637 l 1
EndSplineSet
EndChar

StartChar: six
Encoding: 54 54 239
Width: 561
Flags: MW
HStem: -14 50<199 299.5 199 314.5> 413 50<296.5 354.5> 654 50<311.5 405>
VStem: 39 66<147.5 260 147.5 364> 446 70<196.5 303.5> 486 67<512 522 522 522>
LayerCount: 2
Fore
SplineSet
378 704 m 0xf4
 498 704 558 630 553 522 c 1
 552 512 l 1
 486 512 l 1
 486 522 l 1xf4
 485 610 445 654 365 654 c 0
 258 654 144 562 113 334 c 1
 164 399 l 1
 212 442 266 463 327 463 c 0
 451 463 516 377 516 270 c 0xf8
 516 108 391 -14 238 -14 c 0
 119 -14 39 61 39 216 c 0
 39 512 191 704 378 704 c 0xf4
308 413 m 0xf8
 204 413 105 328 105 192 c 0
 105 103 155 36 243 36 c 0
 356 36 446 132 446 261 c 0
 446 346 401 413 308 413 c 0xf8
EndSplineSet
EndChar

StartChar: seven
Encoding: 55 55 240
Width: 561
Flags: MW
HStem: 0 21G<51 123 51 51> 638 52<122 505 113 597>
VStem: 51 546
LayerCount: 2
Fore
SplineSet
597 690 m 1
 592 661 l 1
 123 0 l 1
 51 0 l 1
 505 638 l 1
 113 638 l 1
 122 690 l 1
 597 690 l 1
EndSplineSet
EndChar

StartChar: eight
Encoding: 56 56 241
Width: 561
Flags: MW
HStem: -15 50<197 296.5 197 298> 333 50<265.5 344.5> 654 50<302.5 397>
VStem: 24 69<120 205 120 206> 115 67<461.5 539.5 461.5 553.5> 439 69<156 244> 481 68<504.5 574>
LayerCount: 2
Fore
SplineSet
398 362 m 1xf4
 466 342 508 285 508 215 c 0
 508 57 365 -15 231 -15 c 0
 117 -15 24 36 24 152 c 0xf4
 24 260 106 338 203 363 c 1
 151 383 115 430 115 493 c 0
 115 614 217 704 364 704 c 0
 479 704 549 641 549 550 c 0xfa
 549 459 482 387 398 362 c 1xf4
355 654 m 0xfa
 250 654 182 583 182 496 c 0
 182 427 224 383 307 383 c 0
 405 383 481 446 481 542 c 0
 481 606 439 654 355 654 c 0xfa
241 35 m 0xf4
 352 35 439 102 439 210 c 0
 439 278 395 333 294 333 c 0
 162 333 93 251 93 159 c 0
 93 81 153 35 241 35 c 0xf4
EndSplineSet
EndChar

StartChar: nine
Encoding: 57 57 242
Width: 561
Flags: MW
HStem: -14 50<179 272 179 299> 227 50<229 287> 654 50<283.5 384.5>
VStem: 31 66<168 178 168 178> 68 70<387 494 387 501> 478 67<430 542.5>
LayerCount: 2
Fore
SplineSet
346 704 m 0xec
 464 704 545 629 545 475 c 0
 545 178 393 -14 205 -14 c 0
 86 -14 26 61 31 168 c 1
 31 178 l 1
 97 178 l 1
 97 168 l 1xf4
 98 81 139 36 219 36 c 0
 325 36 440 128 471 357 c 1
 419 291 l 1
 372 248 317 227 257 227 c 0
 132 227 68 314 68 420 c 0
 68 582 193 704 346 704 c 0xec
276 277 m 0
 379 277 478 362 478 498 c 0
 478 587 429 654 340 654 c 0
 227 654 138 558 138 430 c 0
 138 344 182 277 276 277 c 0
EndSplineSet
EndChar

StartChar: colon
Encoding: 58 58 247
Width: 193
Flags: MW
HStem: -14 21G<19 46> -14 95<32 46> 448 95<113 127.5> 523 20G<113 140.5>
VStem: -9 95<25.5 42> 73 95<486.5 503.5>
LayerCount: 2
Fore
SplineSet
128 543 m 0x94
 153 543 168 525 168 503 c 0
 168 470 142 448 113 448 c 0xa4
 88 448 73 465 73 487 c 0
 73 520 98 543 128 543 c 0x94
47 81 m 0x58
 71 81 86 64 86 42 c 0
 86 9 61 -14 31 -14 c 0
 7 -14 -9 3 -9 26 c 0
 -9 58 17 81 47 81 c 0x58
EndSplineSet
EndChar

StartChar: semicolon
Encoding: 59 59 259
Width: 193
Flags: MW
HStem: -119 191<-90 77 -90 77> 448 95<113 127.5> 523 20G<113 140.5>
VStem: 73 95<486.5 503.5>
LayerCount: 2
Fore
SplineSet
128 543 m 0xb0
 153 543 168 525 168 503 c 0
 168 470 142 448 113 448 c 0xd0
 88 448 73 465 73 487 c 0
 73 520 98 543 128 543 c 0xb0
76 62 m 1
 -32 -119 l 1
 -90 -119 l 1
 10 72 l 1
 77 72 l 1
 76 62 l 1
EndSplineSet
EndChar

StartChar: less
Encoding: 60 60 298
Width: 561
Flags: MW
HStem: 41 448<452 530>
VStem: 86 444<240 489>
LayerCount: 2
Fore
SplineSet
521 434 m 1
 138 262 l 1
 461 91 l 1
 452 41 l 1
 86 240 l 1
 95 290 l 1
 530 489 l 1
 521 434 l 1
EndSplineSet
EndChar

StartChar: equal
Encoding: 61 61 293
Width: 561
Flags: MW
HStem: 198 43<54 467 47 474> 391 43<89 501 81 509>
VStem: 47 462<198 434>
LayerCount: 2
Fore
SplineSet
501 391 m 1
 81 391 l 1
 89 434 l 1
 509 434 l 1
 501 391 l 1
467 198 m 1
 47 198 l 1
 54 241 l 1
 474 241 l 1
 467 198 l 1
EndSplineSet
EndChar

StartChar: greater
Encoding: 62 62 294
Width: 561
Flags: MW
HStem: 41 448<34 113>
VStem: 34 445<41 290>
LayerCount: 2
Fore
SplineSet
479 290 m 1
 470 240 l 1
 34 41 l 1
 43 96 l 1
 427 267 l 1
 104 439 l 1
 113 489 l 1
 479 290 l 1
EndSplineSet
EndChar

StartChar: question
Encoding: 63 63 255
Width: 559
Flags: MW
HStem: -14 21G<217 244> -14 95<231 244> 654 50<309.5 391>
VStem: 189 97<27 40> 473 67<523.5 583>
LayerCount: 2
Fore
SplineSet
363 704 m 0xa8
 478 704 540 637 540 558 c 0
 540 480 505 422 401 327 c 1
 326 257 301 225 286 154 c 1
 225 154 l 1
 236 228 262 264 347 348 c 0
 449 448 473 494 473 553 c 0
 473 613 427 654 355 654 c 0
 264 654 199 598 178 494 c 1
 114 494 l 1
 136 623 234 704 363 704 c 0xa8
246 81 m 0x78
 270 81 286 65 286 43 c 0
 286 11 259 -14 229 -14 c 0
 205 -14 189 2 189 24 c 0
 189 56 216 81 246 81 c 0x78
EndSplineSet
EndChar

StartChar: at
Encoding: 64 64 315
Width: 849
Flags: MW
HStem: -104 44<316.5 437> -15 21G<674 674> 67 49<355.5 385> 75 44<587 641 587 641> 434 49<404 463.5 382.5 474.5> 620 44<378 541.5>
VStem: 54 48<144 364 144 375> 231 67<189.5 283.5 189.5 291.5> 492 61<156 156> 522.65 18.35 742 48<262 424.5>
LayerCount: 2
Fore
SplineSet
618 465 m 1xef60
 560 222 l 2
 554 195 553 181 553 169 c 0
 553 140 568 119 606 119 c 0
 676 119 742 193 742 331 c 0
 742 518 620 620 463 620 c 0
 293 620 102 483 102 245 c 0
 102 43 238 -60 395 -60 c 0
 485 -60 573 -36 655 23 c 1
 674 -15 l 1
 571 -84 481 -104 393 -104 c 0
 221 -104 54 9 54 243 c 0
 54 507 266 664 467 664 c 0
 658 664 790 530 790 334 c 0
 790 156 689 75 593 75 c 0
 542 75 498 97 492 156 c 1xdfa0
 473 117 l 1xefa0
 440 82 405 67 365 67 c 0
 305 67 231 103 231 224 c 0
 231 359 320 483 445 483 c 0
 482 483 511 471 528 451 c 1
 541 399 l 1
 558 465 l 1
 618 465 l 1xef60
508 262 m 2
 517 301 l 2xef60
 538 390 502 434 447 434 c 0
 361 434 298 337 298 230 c 0
 298 149 332 116 379 116 c 0xefa0
 437 116 487 172 508 262 c 2
EndSplineSet
EndChar

StartChar: A
Encoding: 65 65 1
Width: 636
GlyphClass: 2
Flags: MW
HStem: 0 21G<-15 57 -15 -15 511 511 511 578> 253 52<220 458 220 467 192 458> 640 50<399 399>
VStem: -15 593<0 0>
LayerCount: 2
Fore
SplineSet
467 253 m 1
 192 253 l 1
 57 0 l 1
 -15 0 l 1
 362 690 l 1
 451 690 l 1
 578 0 l 1
 511 0 l 1
 467 253 l 1
458 305 m 1
 399 640 l 1
 220 305 l 1
 458 305 l 1
EndSplineSet
Position2: "'cpsp' Capital Spacing in Latin lookup 0 subtable" dx=5 dy=0 dh=10 dv=0
EndChar

StartChar: B
Encoding: 66 66 12
Width: 622
GlyphClass: 2
Flags: MW
HStem: 0 52<114 254> 334 51<173 317 317 321 164 317> 638 52<218 218 218 353>
VStem: 488 68<164.5 250.5> 519 69<498.5 570>
LayerCount: 2
Fore
SplineSet
434 365 m 1xf0
 514 345 556 294 556 214 c 0xf0
 556 82 445 17 335 4 c 0
 304 0 283 0 254 0 c 2
 43 0 l 1
 165 690 l 1
 357 690 l 2
 388 690 409 690 442 687 c 0
 534 676 588 628 588 549 c 0xe8
 588 448 527 389 434 365 c 1xf0
218 638 m 1
 173 385 l 1
 317 385 l 2
 334 385 351 386 373 388 c 0
 461 398 519 449 519 536 c 0xe8
 519 604 473 632 411 637 c 0
 391 638 372 638 353 638 c 2
 218 638 l 1
320 53 m 0xf0
 404 60 488 111 488 218 c 0
 488 283 450 324 374 331 c 0
 352 333 337 334 321 334 c 2
 164 334 l 1
 114 52 l 1
 273 52 l 2
 289 52 307 52 320 53 c 0xf0
EndSplineSet
Position2: "'cpsp' Capital Spacing in Latin lookup 0 subtable" dx=5 dy=0 dh=10 dv=0
EndChar

StartChar: C
Encoding: 67 67 13
Width: 709
GlyphClass: 2
Flags: MW
HStem: -14 50<270.5 394 270.5 405.5> 654 50<350.5 495>
VStem: 61 69 625 63<465 475 475 536>
AnchorPoint: "Anchor-0" 264 0 basechar 0
LayerCount: 2
Fore
SplineSet
445 704 m 0
 611 704 694 606 688 475 c 1
 687 465 l 1
 625 465 l 1
 625 475 l 2
 625 597 557 654 433 654 c 0
 268 654 130 500 130 278 c 0
 130 115 211 36 330 36 c 0
 458 36 534 114 575 219 c 2
 579 229 l 1
 641 229 l 1
 638 219 l 1
 595 87 493 -14 318 -14 c 0
 155 -14 60 95 61 270 c 1
 60 524 229 704 445 704 c 0
EndSplineSet
Position2: "'cpsp' Capital Spacing in Latin lookup 0 subtable" dx=5 dy=0 dh=10 dv=0
EndChar

StartChar: E
Encoding: 69 69 22
Width: 572
GlyphClass: 2
Flags: MW
HStem: 0 51<114 491> 319 52<171 511 161 520> 639 51<218 218 218 593>
VStem: 43 560
AnchorPoint: "Anchor-0" 244 0 basechar 0
LayerCount: 2
Fore
SplineSet
218 639 m 1
 171 371 l 1
 520 371 l 1
 511 319 l 1
 161 319 l 1
 114 51 l 1
 500 51 l 1
 491 0 l 1
 43 0 l 1
 165 690 l 1
 603 690 l 1
 593 639 l 1
 218 639 l 1
EndSplineSet
Position2: "'cpsp' Capital Spacing in Latin lookup 0 subtable" dx=5 dy=0 dh=10 dv=0
EndChar

StartChar: F
Encoding: 70 70 31
Width: 552
GlyphClass: 2
Flags: MW
HStem: 0 21G<43 105 43 43> 319 52<171 501 161 510> 639 51<218 218 218 593>
VStem: 43 560
LayerCount: 2
Fore
SplineSet
218 639 m 1
 171 371 l 1
 510 371 l 1
 501 319 l 1
 161 319 l 1
 105 0 l 1
 43 0 l 1
 165 690 l 1
 603 690 l 1
 593 639 l 1
 218 639 l 1
EndSplineSet
Position2: "'cpsp' Capital Spacing in Latin lookup 0 subtable" dx=5 dy=0 dh=10 dv=0
EndChar

StartChar: H
Encoding: 72 72 36
Width: 687
GlyphClass: 2
Flags: MW
HStem: 0 21G<43 105 43 43 509 571 509 509> 312 53<170 564 160 574> 670 20G<165 227 227 227 631 693 693 693>
VStem: 43 650
LayerCount: 2
Fore
SplineSet
693 690 m 1
 571 0 l 1
 509 0 l 1
 564 312 l 1
 160 312 l 1
 105 0 l 1
 43 0 l 1
 165 690 l 1
 227 690 l 1
 170 365 l 1
 574 365 l 1
 631 690 l 1
 693 690 l 1
EndSplineSet
Position2: "'cpsp' Capital Spacing in Latin lookup 0 subtable" dx=5 dy=0 dh=10 dv=0
EndChar

StartChar: I
Encoding: 73 73 38
Width: 221
GlyphClass: 2
Flags: MW
HStem: 0 21G<43 105 43 43> 670 20G<165 227 227 227>
VStem: 43 184
LayerCount: 2
Fore
SplineSet
105 0 m 1
 43 0 l 1
 165 690 l 1
 227 690 l 1
 105 0 l 1
EndSplineSet
Position2: "'cpsp' Capital Spacing in Latin lookup 0 subtable" dx=5 dy=0 dh=10 dv=0
EndChar

StartChar: J
Encoding: 74 74 47
Width: 502
GlyphClass: 2
Flags: MW
HStem: -14 50<161 246.5 161 262.5> 670 20G<457 519 519 519>
VStem: 15.8 63.59
LayerCount: 2
Fore
SplineSet
519 690 m 1
 444 263 l 2
 439 235 434 210 426 177 c 0
 401 70 332 -14 193 -14 c 0
 73 -14 -1 61 19 194 c 1
 24 231 l 1
 86 231 l 1
 82 194 l 1
 67 83 118 36 204 36 c 0
 289 36 342 86 366 181 c 0
 371 202 375 227 382 261 c 1
 457 690 l 1
 519 690 l 1
EndSplineSet
Position2: "'cpsp' Capital Spacing in Latin lookup 0 subtable" dx=5 dy=0 dh=10 dv=0
EndChar

StartChar: K
Encoding: 75 75 48
Width: 593
GlyphClass: 2
Flags: MW
HStem: 0 21G<43 105 43 43 452 529 452 452> 670 20G<165 227 227 227 584 662 662 662>
VStem: 43 619
AnchorPoint: "Anchor-0" 265 0 basechar 0
LayerCount: 2
Fore
SplineSet
251 345 m 1
 529 0 l 1
 452 0 l 1
 204 311 l 1
 152 267 l 1
 105 0 l 1
 43 0 l 1
 165 690 l 1
 227 690 l 1
 165 338 l 1
 584 690 l 1
 662 690 l 1
 251 345 l 1
EndSplineSet
Position2: "'cpsp' Capital Spacing in Latin lookup 0 subtable" dx=5 dy=0 dh=10 dv=0
EndChar

StartChar: M
Encoding: 77 77 56
Width: 825
GlyphClass: 2
Flags: MW
HStem: 0 62<388 388 388 415 337 388> 629 61<760 760> 636 54<216 216>
VStem: 43 788<0 690>
LayerCount: 2
Fore
SplineSet
831 690 m 1xb0
 709 0 l 1
 647 0 l 1
 760 629 l 1xd0
 415 0 l 1
 337 0 l 1
 216 636 l 1
 105 0 l 1
 43 0 l 1
 165 690 l 1
 267 690 l 1
 388 62 l 1
 729 690 l 1
 831 690 l 1xb0
EndSplineSet
Position2: "'cpsp' Capital Spacing in Latin lookup 0 subtable" dx=5 dy=0 dh=10 dv=0
EndChar

StartChar: O
Encoding: 79 79 63
Width: 746
GlyphClass: 2
Flags: MW
HStem: -14 50<284.5 450.5 284.5 466.5> 654 50<333 499>
VStem: 62 68<210 371 210 387> 654 67<319 480.5>
LayerCount: 2
Fore
SplineSet
446 704 m 0
 619 704 721 576 721 404 c 0
 721 202 596 -14 337 -14 c 0
 165 -14 62 114 62 286 c 0
 62 488 187 704 446 704 c 0
350 36 m 0
 551 36 654 234 654 404 c 0
 654 557 564 654 434 654 c 0
 232 654 130 456 130 286 c 0
 130 134 219 36 350 36 c 0
EndSplineSet
Position2: "'cpsp' Capital Spacing in Latin lookup 0 subtable" dx=5 dy=0 dh=10 dv=0
EndChar

StartChar: P
Encoding: 80 80 73
Width: 558
GlyphClass: 2
Flags: MW
HStem: 0 21G<43 105 43 43> 292 53<166 286 157 300> 637 53<218 352 218 218>
VStem: 526 67<467.5 555.5>
LayerCount: 2
Fore
SplineSet
449 686 m 0
 536 674 593 622 593 529 c 0
 593 390 494 311 380 296 c 0
 347 292 321 292 286 292 c 2
 157 292 l 1
 105 0 l 1
 43 0 l 1
 165 690 l 1
 356 690 l 2
 391 690 418 690 449 686 c 0
385 350 m 0
 460 362 526 414 526 521 c 0
 526 590 487 623 435 632 c 0
 412 636 385 637 352 637 c 2
 218 637 l 1
 166 345 l 1
 300 345 l 2
 333 345 360 346 385 350 c 0
EndSplineSet
Position2: "'cpsp' Capital Spacing in Latin lookup 0 subtable" dx=5 dy=0 dh=10 dv=0
EndChar

StartChar: Q
Encoding: 81 81 75
Width: 744
GlyphClass: 2
Flags: MW
HStem: -14 50<281.5 352> -9 21G<655 655> 4 32<281.5 503.5> 654 50<330 496>
VStem: 61 68<208 367 208 380> 649 67<341 482.5>
LayerCount: 2
Fore
SplineSet
543 53 m 1x9c
 587 47 621 26 655 -9 c 1x5c
 613 -52 l 1
 553 -7 525 4 482 4 c 0x3c
 460 4 437 0 408 -6 c 1
 385 -12 363 -14 341 -14 c 0
 155 -14 61 114 61 282 c 0
 61 478 184 704 437 704 c 0
 622 704 716 576 716 408 c 0
 716 274 659 132 543 53 c 1x9c
129 282 m 0
 129 134 216 36 347 36 c 0
 548 36 649 238 649 408 c 0
 649 557 561 654 431 654 c 0
 229 654 129 452 129 282 c 0
EndSplineSet
Position2: "'cpsp' Capital Spacing in Latin lookup 0 subtable" dx=5 dy=0 dh=10 dv=0
EndChar

StartChar: S
Encoding: 83 83 80
Width: 557
GlyphClass: 2
Flags: MW
HStem: -14 50<199.5 303.5 199.5 317.5> 654 50<296.5 386.5>
VStem: 17 66<140.5 190> 104 69<474 555 474 555> 438 69<140 224.5> 487 65<505 505>
AnchorPoint: "Anchor-0" 252 0 basechar 0
LayerCount: 2
Fore
SplineSet
355 704 m 0xd4
 493 704 559 617 552 505 c 1
 487 505 l 1
 491 599 432 654 341 654 c 0
 252 654 173 603 173 507 c 0xd4
 173 441 219 411 318 385 c 0
 443 352 507 299 507 198 c 0
 507 70 395 -14 240 -14 c 0
 106 -14 9 57 17 190 c 1
 83 190 l 1
 83 91 148 36 251 36 c 0
 356 36 438 93 438 187 c 0xf8
 438 262 390 299 283 327 c 0
 172 357 104 400 104 489 c 0
 104 621 214 704 355 704 c 0xd4
EndSplineSet
Position2: "'cpsp' Capital Spacing in Latin lookup 0 subtable" dx=5 dy=0 dh=10 dv=0
EndChar

StartChar: T
Encoding: 84 84 85
Width: 601
GlyphClass: 2
Flags: MW
HStem: 0 21G<240 302 240 240> 639 51<109 353 99 676 415 667 415 415>
VStem: 99 577<639 690>
AnchorPoint: "Anchor-0" 269 0 basechar 0
LayerCount: 2
Fore
SplineSet
667 639 m 1
 415 639 l 1
 302 0 l 1
 240 0 l 1
 353 639 l 1
 99 639 l 1
 109 690 l 1
 676 690 l 1
 667 639 l 1
EndSplineSet
Position2: "'cpsp' Capital Spacing in Latin lookup 0 subtable" dx=5 dy=0 dh=10 dv=0
EndChar

StartChar: V
Encoding: 86 86 99
Width: 627
GlyphClass: 2
Flags: MW
HStem: 0 48<283 283 283 320> 670 20G<105 172 172 172 626 697 697 697>
VStem: 105 592<690 690>
LayerCount: 2
Fore
SplineSet
320 0 m 1
 232 0 l 1
 105 690 l 1
 172 690 l 1
 283 48 l 1
 626 690 l 1
 697 690 l 1
 320 0 l 1
EndSplineSet
Position2: "'cpsp' Capital Spacing in Latin lookup 0 subtable" dx=5 dy=0 dh=10 dv=0
EndChar

StartChar: X
Encoding: 88 88 105
Width: 603
GlyphClass: 2
Flags: MW
HStem: 0 21G<-21 52 -21 -21 476 551 476 476> 670 20G<118 188 188 188 591 664 664 664>
VStem: -21 685
LayerCount: 2
Fore
SplineSet
361 350 m 1
 551 0 l 1
 476 0 l 1
 317 307 l 1
 52 0 l 1
 -21 0 l 1
 288 352 l 1
 118 690 l 1
 188 690 l 1
 334 396 l 1
 591 690 l 1
 664 690 l 1
 361 350 l 1
EndSplineSet
Position2: "'cpsp' Capital Spacing in Latin lookup 0 subtable" dx=5 dy=0 dh=10 dv=0
EndChar

StartChar: Y
Encoding: 89 89 106
Width: 568
GlyphClass: 2
Flags: MW
HStem: 0 21G<218 280 218 218> 670 20G<96 161 161 161 573 647 647 647>
VStem: 96 551<690 690>
LayerCount: 2
Fore
SplineSet
327 269 m 1
 280 0 l 1
 218 0 l 1
 266 273 l 1
 96 690 l 1
 161 690 l 1
 306 329 l 1
 573 690 l 1
 647 690 l 1
 327 269 l 1
EndSplineSet
Position2: "'cpsp' Capital Spacing in Latin lookup 0 subtable" dx=5 dy=0 dh=10 dv=0
EndChar

StartChar: Z
Encoding: 90 90 111
Width: 571
GlyphClass: 2
Flags: MW
HStem: 0 52<85 501> 638 52<145 529 136 617>
VStem: -5 622
LayerCount: 2
Fore
SplineSet
608 639 m 1
 85 52 l 1
 510 52 l 1
 501 0 l 1
 -5 0 l 1
 4 48 l 1
 529 638 l 1
 136 638 l 1
 145 690 l 1
 617 690 l 1
 608 639 l 1
EndSplineSet
Position2: "'cpsp' Capital Spacing in Latin lookup 0 subtable" dx=5 dy=0 dh=10 dv=0
EndChar

StartChar: bracketleft
Encoding: 91 91 264
Width: 283
Flags: MW
HStem: -80 43<68 175> 737 43<204 319 204 204>
VStem: 15 312
LayerCount: 2
Fore
SplineSet
167 780 m 1
 327 780 l 1
 319 737 l 1
 204 737 l 1
 68 -37 l 1
 182 -37 l 1
 175 -80 l 1
 15 -80 l 1
 167 780 l 1
EndSplineSet
EndChar

StartChar: backslash
Encoding: 92 92 245
Width: 288
Flags: MW
HStem: -30 750<75 241 75 194>
VStem: 75 166
LayerCount: 2
Fore
SplineSet
241 -30 m 1
 194 -30 l 1
 75 720 l 1
 122 720 l 1
 241 -30 l 1
EndSplineSet
EndChar

StartChar: bracketright
Encoding: 93 93 265
Width: 283
Flags: MW
HStem: -80 43<-18 97 -18 134 -26 97> 737 43<127 234 119 286>
VStem: -26 312
LayerCount: 2
Fore
SplineSet
134 -80 m 1
 -26 -80 l 1
 -18 -37 l 1
 97 -37 l 1
 234 737 l 1
 119 737 l 1
 127 780 l 1
 286 780 l 1
 134 -80 l 1
EndSplineSet
EndChar

StartChar: asciicircum
Encoding: 94 94 314
Width: 561
Flags: MW
HStem: 573 43<321 321>
VStem: 55 402<215 215>
LayerCount: 2
Fore
SplineSet
405 215 m 1
 321 573 l 1
 109 215 l 1
 55 215 l 1
 299 616 l 1
 353 616 l 1
 457 215 l 1
 405 215 l 1
EndSplineSet
EndChar

StartChar: underscore
Encoding: 95 95 261
Width: 500
Flags: MW
HStem: -84 43<54 446 46 454>
VStem: 46 408<-84 -41>
LayerCount: 2
Fore
SplineSet
446 -84 m 1
 46 -84 l 1
 54 -41 l 1
 454 -41 l 1
 446 -84 l 1
EndSplineSet
EndChar

StartChar: grave
Encoding: 96 96 333
Width: 300
Flags: MW
HStem: 580 110<63 165 63 123>
VStem: 63 102
LayerCount: 2
Fore
SplineSet
165 580 m 1
 123 580 l 1
 63 690 l 1
 123 690 l 1
 165 580 l 1
EndSplineSet
EndChar

StartChar: b
Encoding: 98 98 126
Width: 589
GlyphClass: 2
Flags: MW
HStem: -14 49<232.5 341.5 210 361.5> 0 21G<27 89 27 27> 493 50<338.5 400.5> 715 20G<157 219 219 219>
VStem: 106 20.62 496 67<253 374>
LayerCount: 2
Fore
SplineSet
370 543 m 0xbc
 496 543 563 450 563 328 c 0
 563 162 462 -14 261 -14 c 0
 204 -14 155 6 128 42 c 1xbc
 106 98 l 1
 89 0 l 1
 27 0 l 1x7c
 157 735 l 1
 219 735 l 1
 165 432 l 1
 211 489 l 1
 253 525 307 543 370 543 c 0xbc
269 35 m 0
 414 35 496 181 496 325 c 0
 496 423 448 493 353 493 c 0
 259 493 167 436 138 277 c 1
 131 237 l 2
 112 128 151 35 269 35 c 0
EndSplineSet
EndChar

StartChar: c
Encoding: 99 99 127
Width: 526
GlyphClass: 2
Flags: MW
HStem: -14 49<191 269.5 191 280> 494 49<247.5 355>
VStem: 25 67<144.5 284.5 144.5 286.5> 443 65<356 412>
AnchorPoint: "Anchor-0" 217 0 basechar 0
LayerCount: 2
Fore
SplineSet
324 543 m 0
 446 543 508 468 508 356 c 1
 443 356 l 1
 441 445 398 494 312 494 c 0
 183 494 92 366 92 203 c 0
 92 86 153 35 229 35 c 0
 310 35 376 80 412 165 c 1
 476 165 l 1
 427 46 341 -14 219 -14 c 0
 106 -14 25 61 25 201 c 0
 25 372 130 543 324 543 c 0
EndSplineSet
EndChar

StartChar: d
Encoding: 100 100 132
Width: 587
GlyphClass: 2
Flags: MW
HStem: -14 49<188.5 250.5> 0 21G<406 468 406 406> 493 50<247.5 356.5 227.5 379> 715 20G<536 598 598 598>
VStem: 26 67<155 276 155 283.5> 462.36 19.64
LayerCount: 2
Fore
SplineSet
598 735 m 1xbc
 468 0 l 1
 406 0 l 1
 423 97 l 1x7c
 378 40 l 1
 336 3 282 -14 219 -14 c 0
 93 -14 26 79 26 201 c 0
 26 366 127 543 328 543 c 0
 385 543 434 523 461 486 c 1
 482 431 l 1
 536 735 l 1
 598 735 l 1xbc
451 252 m 2
 458 292 l 2
 477 400 438 493 320 493 c 0
 175 493 93 348 93 204 c 0
 93 106 141 35 236 35 c 0xbc
 330 35 422 92 451 252 c 2
EndSplineSet
EndChar

StartChar: f
Encoding: 102 102 145
Width: 254
GlyphClass: 2
Flags: MW
HStem: 0 21G<33 95 33 33> 477 49<78 117 69 125 187 286> 701 48<274 345>
VStem: 33 312
LayerCount: 2
Fore
SplineSet
283 754 m 0
 310 754 327 752 345 749 c 1
 335 697 l 1
 321 700 308 701 296 701 c 0
 252 701 224 680 212 644 c 0
 205 621 201 605 198 590 c 2
 187 526 l 1
 295 526 l 1
 286 477 l 1
 178 477 l 1
 95 0 l 1
 33 0 l 1
 117 477 l 1
 69 477 l 1
 78 526 l 1
 125 526 l 1
 135 582 l 2
 139 603 143 624 149 645 c 0
 171 718 222 754 283 754 c 0
EndSplineSet
EndChar

StartChar: h
Encoding: 104 104 150
Width: 571
GlyphClass: 2
Flags: MW
HStem: 0 21G<27 89 27 27 392 454 392 392> 492 51 720 20G<157 219 219 219>
VStem: 456 64<388.5 418>
LayerCount: 2
Fore
SplineSet
361 543 m 0
 466 543 520 489 520 404 c 0
 520 373 518 353 508 296 c 2
 454 0 l 1
 392 0 l 1
 444 289 l 2
 452 333 456 362 456 387 c 0
 456 449 423 493 341 492 c 0
 251 491 164 428 135 263 c 2
 89 0 l 1
 27 0 l 1
 157 740 l 1
 219 740 l 1
 164 428 l 1
 203 486 l 1
 253 528 303 543 361 543 c 0
EndSplineSet
EndChar

StartChar: i
Encoding: 105 105 152
Width: 208
GlyphClass: 2
Flags: MW
HStem: 0 21G<27 89 27 27> 509 20G<120 182 182 182> 601 84<165.5 178.5>
VStem: 129 85<636 650>
LayerCount: 2
Fore
SplineSet
179 685 m 0
 200 685 214 669 214 650 c 0
 214 622 192 601 165 601 c 0
 144 601 129 617 129 636 c 0
 129 664 152 685 179 685 c 0
89 0 m 1
 27 0 l 1
 120 529 l 1
 182 529 l 1
 89 0 l 1
EndSplineSet
EndChar

StartChar: j
Encoding: 106 106 161
Width: 184
GlyphClass: 2
Flags: MW
HStem: -210 54<-93 -30.5> 509 20G<114 176 176 176> 601 84<155.5 169.5>
VStem: 120 85<636 650>
LayerCount: 2
Fore
SplineSet
169 685 m 0
 191 685 205 669 205 650 c 0
 205 622 183 601 156 601 c 0
 135 601 120 617 120 636 c 0
 120 664 142 685 169 685 c 0
176 529 m 1
 74 -56 l 2
 70 -76 65 -98 60 -116 c 0
 43 -179 3 -210 -64 -210 c 0
 -78 -210 -90 -210 -103 -207 c 1
 -93 -156 l 1
 -43 -164 -13 -148 0 -106 c 0
 5 -92 7 -79 12 -57 c 1
 114 529 l 1
 176 529 l 1
EndSplineSet
EndChar

StartChar: l
Encoding: 108 108 164
Width: 221
GlyphClass: 2
Flags: MW
HStem: -4 49 715 20G<152 214 214 214>
VStem: 34 67<29 83>
AnchorPoint: "Anchor-0" 73 0 basechar 0
LayerCount: 2
Fore
SplineSet
214 735 m 1
 109 140 l 2
 102 101 101 88 101 78 c 0
 101 47 117 41 156 45 c 1
 148 -1 l 1
 131 -4 114 -4 98 -4 c 0
 61 -4 34 7 34 51 c 0
 34 64 37 81 47 138 c 2
 152 735 l 1
 214 735 l 1
EndSplineSet
EndChar

StartChar: m
Encoding: 109 109 170
Width: 838
GlyphClass: 2
Flags: MW
HStem: 0 21G<27 89 27 27 344 406 344 344 661 723 661 661> 493 50<312 342 629 658.5> 509 20G<120 182 182 182>
VStem: 407 64<378 431> 724 65<394 426>
LayerCount: 2
Fore
SplineSet
654 543 m 0xd8
 745 543 789 488 789 411 c 0
 789 377 786 360 777 312 c 2
 723 0 l 1
 661 0 l 1
 711 284 l 2
 719 333 724 361 724 393 c 0
 724 459 691 493 626 493 c 0
 551 493 479 415 454 277 c 1
 406 0 l 1
 344 0 l 1
 394 284 l 2
 403 335 407 363 407 393 c 0
 407 460 375 493 309 493 c 0xd8
 234 493 162 415 138 277 c 2
 89 0 l 1
 27 0 l 1
 120 529 l 1
 182 529 l 1
 166 437 l 1xb8
 207 497 l 1
 242 529 287 543 337 543 c 0
 420 543 464 498 471 431 c 1
 523 497 l 1
 559 529 604 543 654 543 c 0xd8
EndSplineSet
EndChar

StartChar: n
Encoding: 110 110 171
Width: 571
GlyphClass: 2
Flags: MW
HStem: 0 21G<27 89 27 27 392 454 392 392> 492 51 509 20G<120 182 182 182>
VStem: 456 64<388.5 418>
AnchorPoint: "Anchor-0" 237 0 basechar 0
LayerCount: 2
Fore
SplineSet
361 543 m 0xd0
 466 543 520 489 520 404 c 0
 520 373 518 353 508 296 c 2
 454 0 l 1
 392 0 l 1
 444 289 l 2
 452 333 456 362 456 387 c 0
 456 449 423 493 341 492 c 0xd0
 251 491 164 428 135 264 c 1
 135 263 l 1
 89 0 l 1
 27 0 l 1
 120 529 l 1
 182 529 l 1xb0
 164 428 l 1
 203 486 l 1
 253 528 303 543 361 543 c 0xd0
EndSplineSet
EndChar

StartChar: p
Encoding: 112 112 187
Width: 589
GlyphClass: 2
Flags: MW
HStem: -14 49<232.5 341.5 210 361.5> 493 50<338.5 400.5> 509 20G<121 183 183 183>
VStem: 106 20.62 496 67<253 374>
LayerCount: 2
Fore
SplineSet
370 543 m 0xd8
 496 543 563 450 563 328 c 0
 563 162 462 -14 261 -14 c 0
 204 -14 155 6 128 42 c 1
 106 99 l 1
 54 -196 l 1
 -8 -196 l 1
 121 529 l 1
 183 529 l 1
 166 432 l 1xb8
 211 489 l 1
 253 525 307 543 370 543 c 0xd8
269 35 m 0
 414 35 496 181 496 325 c 0
 496 423 448 493 353 493 c 0
 259 493 167 436 138 277 c 1
 131 237 l 2
 112 128 151 35 269 35 c 0
EndSplineSet
EndChar

StartChar: q
Encoding: 113 113 189
Width: 587
GlyphClass: 2
Flags: MW
HStem: -14 49<188.5 250.5> 493 50<247.5 356.5 227.5 379> 509 20G<500 562 562 562>
VStem: 26 67<155 276 155 283.5> 462.36 20.64
LayerCount: 2
Fore
SplineSet
562 529 m 1xb8
 433 -196 l 1
 371 -196 l 1
 423 97 l 1
 378 40 l 1
 336 3 282 -14 219 -14 c 0
 93 -14 26 79 26 201 c 0
 26 366 127 543 328 543 c 0
 385 543 434 523 461 486 c 1xd8
 483 430 l 1
 500 529 l 1
 562 529 l 1xb8
451 252 m 2
 458 292 l 2
 477 400 438 493 320 493 c 0
 175 493 93 348 93 204 c 0
 93 106 141 35 236 35 c 0
 330 35 422 92 451 252 c 2
EndSplineSet
EndChar

StartChar: r
Encoding: 114 114 190
Width: 302
GlyphClass: 2
Flags: MW
HStem: 0 21G<27 89 27 27> 510 20G<121 183 183 183> 517 20G<343 343> 521 20G<296 319>
VStem: 27 316
AnchorPoint: "Anchor-0" 58 0 basechar 0
LayerCount: 2
Fore
SplineSet
313 541 m 0x98
 325 541 335 540 343 537 c 1
 334 488 l 1xa8
 254 494 170 452 142 301 c 1
 141 297 l 1
 89 0 l 1
 27 0 l 1
 121 530 l 1
 183 530 l 1
 166 434 l 1xc8
 215 501 l 1
 244 526 279 541 313 541 c 0x98
EndSplineSet
EndChar

StartChar: s
Encoding: 115 115 194
Width: 453
GlyphClass: 2
Flags: MW
HStem: -18 49<162.5 238.5 162.5 255> 493 50<210 285>
VStem: 63 68<365.5 418.5 365.5 429> 327 67<103 161.5>
AnchorPoint: "Anchor-0" 178 0 basechar 0
LayerCount: 2
Fore
SplineSet
256 543 m 0
 369 543 425 479 428 381 c 1
 364 381 l 1
 358 457 319 493 251 493 c 0
 169 493 131 444 131 393 c 0
 131 338 173 311 236 293 c 0
 339 263 394 223 394 139 c 0
 394 45 315 -18 195 -18 c 0
 64 -18 3 54 0 150 c 1
 64 150 l 1
 70 63 123 31 202 31 c 0
 275 31 327 72 327 134 c 0
 327 189 291 217 205 242 c 0
 129 264 63 298 63 387 c 0
 63 471 132 543 256 543 c 0
EndSplineSet
EndChar

StartChar: t
Encoding: 116 116 200
Width: 281
GlyphClass: 2
Flags: MW
HStem: -8 49.26 477 48<61 120 52 128 190 277>
VStem: 51 64<64 71.5>
AnchorPoint: "Anchor-0" 112 0 basechar 0
LayerCount: 2
Fore
SplineSet
182 477 m 1
 123 145 l 2
 116 110 115 96 115 84 c 0
 115 44 143 35 203 45 c 1
 195 -2 l 1
 178 -5 159 -8 138 -8 c 0
 81 -8 51 13 51 63 c 0
 51 80 53 103 61 144 c 2
 120 477 l 1
 52 477 l 1
 61 525 l 1
 128 525 l 1
 149 642 l 1
 211 642 l 1
 190 525 l 1
 285 525 l 1
 277 477 l 1
 182 477 l 1
EndSplineSet
EndChar

StartChar: v
Encoding: 118 118 214
Width: 486
GlyphClass: 2
Flags: MW
HStem: 0 50<201 201 201 233 153 201> 509 20G<43 113 113 113 459 530 530 530>
VStem: 43 487<529 529>
LayerCount: 2
Fore
SplineSet
530 529 m 1
 233 0 l 1
 153 0 l 1
 43 529 l 1
 113 529 l 1
 201 50 l 1
 459 529 l 1
 530 529 l 1
EndSplineSet
EndChar

StartChar: w
Encoding: 119 119 215
Width: 744
GlyphClass: 2
Flags: MW
HStem: 0 21G<116 192 116 116 452 526 452 452> 0 62<165 165 165 192 116 165> 468 60<404 404> 508 20G<374 454 454 454> 509 20G<43 113 113 113 720 788 788 788>
VStem: 43 745<529 529>
LayerCount: 2
Fore
SplineSet
788 529 m 1x8c
 526 0 l 1
 452 0 l 1
 404 468 l 1xa4
 192 0 l 1
 116 0 l 1
 43 529 l 1
 113 529 l 1x8c
 165 62 l 1
 374 528 l 1
 454 528 l 1
 502 63 l 1x54
 720 529 l 1
 788 529 l 1x8c
EndSplineSet
EndChar

StartChar: x
Encoding: 120 120 220
Width: 461
GlyphClass: 2
Flags: MW
HStem: 0 21G<-48 26 -48 -48 329 403 329 329> 509 20G<58 130 130 130 424 499 499 499>
VStem: -48 547<0 529>
LayerCount: 2
Fore
SplineSet
262 264 m 1
 403 0 l 1
 329 0 l 1
 217 220 l 1
 26 0 l 1
 -48 0 l 1
 189 266 l 1
 58 529 l 1
 130 529 l 1
 234 309 l 1
 424 529 l 1
 499 529 l 1
 262 264 l 1
EndSplineSet
EndChar

StartChar: y
Encoding: 121 121 221
Width: 486
GlyphClass: 2
Flags: MW
HStem: -210 52<-1 30 -1 45> 509 20G<43 113 113 113 459 530 530 530>
VStem: -35 565
LayerCount: 2
Fore
SplineSet
530 529 m 1
 233 0 l 2
 137 -171 87 -210 3 -210 c 0
 -11 -210 -23 -209 -35 -207 c 1
 -27 -155 l 1
 -15 -158 -6 -158 4 -158 c 0
 56 -158 94 -132 145 -40 c 1
 157 -19 l 1
 43 529 l 1
 113 529 l 1
 201 47 l 1
 459 529 l 1
 530 529 l 1
EndSplineSet
EndChar

StartChar: z
Encoding: 122 122 226
Width: 470
GlyphClass: 2
Flags: MW
HStem: 0 50<64 391> 474 51<94 393 86 478 469 469>
VStem: -21 499
LayerCount: 2
Fore
SplineSet
469 474 m 1
 64 50 l 1
 400 50 l 1
 391 0 l 1
 -21 0 l 1
 -13 48 l 1
 393 474 l 1
 86 474 l 1
 94 525 l 1
 478 525 l 1
 469 474 l 1
EndSplineSet
EndChar

StartChar: braceleft
Encoding: 123 123 262
Width: 297
Flags: MW
HStem: -80 43<159.5 216 202 209> 328 21<75 75> 737 43<295 361 347 353>
VStem: 77 46<-5.5 22> 143 46<255.5 282.5> 188 45<518 565>
LayerCount: 2
Fore
SplineSet
361 780 m 1xf4
 353 737 l 1
 339 737 l 2
 251 737 233 698 233 575 c 0xf4
 233 461 217 365 120 349 c 1
 166 343 189 313 189 271 c 0xf8
 189 240 183 207 154 127 c 0
 128 56 123 35 123 11 c 0
 123 -22 150 -37 202 -37 c 2
 216 -37 l 1
 209 -80 l 1
 195 -80 l 2
 124 -80 77 -59 77 8 c 0xf4
 77 36 84 59 112 137 c 1
 138 205 143 239 143 266 c 0
 143 299 124 323 75 328 c 1xf8
 83 372 l 1
 167 380 188 431 188 565 c 0
 187 721 217 780 347 780 c 2
 361 780 l 1xf4
EndSplineSet
EndChar

StartChar: bar
Encoding: 124 124 316
Width: 250
Flags: MW
HStem: -200 1000<17 238 17 238>
VStem: 17 221
LayerCount: 2
Fore
SplineSet
62 -200 m 1
 17 -200 l 1
 193 800 l 1
 238 800 l 1
 62 -200 l 1
EndSplineSet
EndChar

StartChar: braceright
Encoding: 125 125 263
Width: 297
Flags: MW
HStem: -80 43<-26 -20 -34 -12> 351 21 737 43<118 125 111 132>
VStem: 94 45<135 182> 138 46<418 444.5> 204 46<678 705.5>
LayerCount: 2
Fore
SplineSet
184 435 m 0xec
 184 401 203 377 252 372 c 1xec
 245 328 l 1
 160 320 139 269 139 135 c 0
 140 -21 110 -80 -20 -80 c 2
 -34 -80 l 1
 -26 -37 l 1
 -12 -37 l 2
 76 -37 94 3 94 125 c 0xf4
 94 239 111 335 207 351 c 1
 161 357 138 387 138 429 c 0xec
 138 460 144 493 173 574 c 0
 199 645 204 665 204 689 c 0
 204 722 177 737 125 737 c 2
 111 737 l 1
 118 780 l 1
 132 780 l 2
 203 780 250 759 250 692 c 0xb4
 250 664 243 641 215 564 c 0
 189 495 184 461 184 435 c 0xec
EndSplineSet
EndChar

StartChar: asciitilde
Encoding: 126 126 290
Width: 588
Flags: MW
HStem: 227 43<385.5 420.5 385.5 421.5> 309 43<159 193.5>
VStem: 67 446<225 354>
LayerCount: 2
Fore
SplineSet
470 354 m 1
 513 354 l 1
 498 269 455 227 388 227 c 0
 350 227 329 238 275 270 c 0
 233 296 208 309 179 309 c 0
 139 309 119 278 109 225 c 1
 67 225 l 1
 82 310 124 352 190 352 c 0
 229 352 250 341 304 309 c 0
 347 283 371 270 400 270 c 0
 441 270 460 301 470 354 c 1
EndSplineSet
EndChar

StartChar: exclamdown
Encoding: 161 161 251
Width: 221
Flags: MW
HStem: 448 95<144.5 158>
VStem: 103 96<488.5 501.5>
LayerCount: 2
Fore
SplineSet
143 448 m 0
 118 448 103 463 103 485 c 0
 103 518 129 543 160 543 c 0
 184 543 199 527 199 505 c 0
 199 472 173 448 143 448 c 0
103 375 m 1
 158 375 l 1
 65 -162 l 1
 -7 -162 l 1
 103 375 l 1
EndSplineSet
EndChar

StartChar: cent
Encoding: 162 162 283
Width: 561
Flags: MW
HStem: -13 21G<204 204 249 249> 493 50<339 347>
VStem: 32 67<150.5 276.5 150.5 279.5> 451 65<356 409.5>
LayerCount: 2
Fore
SplineSet
339 493 m 1
 257 36 l 1
 329 43 386 88 419 165 c 1
 483 165 l 1
 437 53 359 -6 249 -13 c 1
 235 -90 l 1
 190 -90 l 1
 204 -13 l 1
 102 -4 32 70 32 201 c 0
 32 358 126 525 302 542 c 1
 316 620 l 1
 361 620 l 1
 347 543 l 1
 460 537 516 463 516 356 c 1
 451 356 l 1
 449 439 412 487 339 493 c 1
99 203 m 0
 99 98 148 47 212 37 c 1
 293 492 l 1
 178 475 99 350 99 203 c 0
EndSplineSet
EndChar

StartChar: sterling
Encoding: 163 163 287
Width: 562
Flags: MW
HStem: 0 52<100 454> 330 43<69 129 69 144 61 129 214 214 214 418> 654 50<280.5 370.5>
VStem: 112 67<468.5 535.5 468.5 542.5> 161 66<210 257> 455 66<508 508>
LayerCount: 2
Fore
SplineSet
227 251 m 0xec
 227 169 195 108 100 52 c 1
 463 52 l 1
 454 0 l 1
 -6 0 l 1
 2 46 l 1
 118 81 161 166 161 243 c 0
 161 271 155 297 144 330 c 1
 61 330 l 1
 69 373 l 1xec
 129 373 l 1
 119 406 112 442 112 492 c 0
 112 593 186 704 336 704 c 0
 473 704 514 615 521 508 c 1
 455 508 l 1
 450 601 416 654 325 654 c 0
 236 654 179 578 179 493 c 0
 179 444 188 413 201 373 c 1xf4
 426 373 l 1
 418 330 l 1
 214 330 l 1
 222 301 227 274 227 251 c 0xec
EndSplineSet
EndChar

StartChar: currency
Encoding: 164 164 284
Width: 561
Flags: MW
HStem: 121 44<229 272> 437 44<280.5 323 280.5 327>
VStem: 100 47<267.5 306.5> 406 47<295 334.5 295 352>
LayerCount: 2
Fore
SplineSet
501 469 m 1
 430 408 l 1
 445 382 453 351 453 318 c 0
 453 272 435 222 400 184 c 1
 443 131 l 1
 407 100 l 1
 363 153 l 1
 333 133 295 121 249 121 c 0
 209 121 175 136 149 162 c 1
 80 104 l 1
 54 136 l 1
 123 195 l 1
 108 221 100 251 100 284 c 0
 100 329 118 380 154 419 c 1
 110 473 l 1
 146 503 l 1
 191 450 l 1
 221 469 258 481 303 481 c 0
 343 481 378 466 404 441 c 1
 475 501 l 1
 501 469 l 1
258 165 m 0
 353 165 406 246 406 314 c 0
 406 390 359 437 295 437 c 0
 199 437 147 356 147 288 c 0
 147 214 193 165 258 165 c 0
EndSplineSet
EndChar

StartChar: yen
Encoding: 165 165 288
Width: 561
Flags: MW
HStem: 0 21G<188 250 188 188> 196 43<60 223 52 230 292 455> 309 42<79 221 79 238 72 221 343 474> 670 20G<85 158 158 158 528 601 601 601>
VStem: 52 549<196 690>
LayerCount: 2
Fore
SplineSet
343 351 m 1
 482 351 l 1
 474 309 l 1
 311 309 l 1
 303 298 l 1
 292 239 l 1
 462 239 l 1
 455 196 l 1
 285 196 l 1
 250 0 l 1
 188 0 l 1
 223 196 l 1
 52 196 l 1
 60 239 l 1
 230 239 l 1
 241 302 l 1
 238 309 l 1
 72 309 l 1
 79 351 l 1
 221 351 l 1
 85 690 l 1
 158 690 l 1
 283 353 l 1
 528 690 l 1
 601 690 l 1
 343 351 l 1
EndSplineSet
EndChar

StartChar: brokenbar
Encoding: 166 166 317
Width: 250
Flags: MW
HStem: 670 20G<174 219 219 219>
VStem: 24 195
LayerCount: 2
Fore
SplineSet
159 350 m 1
 114 350 l 1
 174 690 l 1
 219 690 l 1
 159 350 l 1
69 -160 m 1
 24 -160 l 1
 84 180 l 1
 129 180 l 1
 69 -160 l 1
EndSplineSet
EndChar

StartChar: section
Encoding: 167 167 324
Width: 549
Flags: MW
HStem: -174 49<185 258 185 269> 655 49<291 360>
VStem: 41 67<252.5 316.5> 146 67<520.5 576 514 582.5> 351 67<-52.5 10.5 -61 13> 452 67<217.5 281>
LayerCount: 2
Fore
SplineSet
519 254 m 0
 519 181 466 118 372 96 c 1
 402 68 418 33 418 -12 c 0
 418 -110 328 -174 210 -174 c 0
 114 -174 32 -122 21 -3 c 1
 86 -3 l 1
 96 -89 151 -125 219 -125 c 0
 297 -125 351 -87 351 -18 c 0
 351 44 313 78 204 111 c 1
 116 140 41 185 41 281 c 0
 41 352 91 415 187 440 c 1
 162 465 146 498 146 543 c 0
 146 622 210 704 334 704 c 0
 440 704 499 639 510 542 c 1
 445 542 l 1
 435 616 394 655 326 655 c 0
 256 655 213 608 213 544 c 0
 213 484 264 451 341 429 c 0
 457 397 519 343 519 254 c 0
312 136 m 1
 396 141 452 185 452 249 c 0
 452 313 405 347 307 377 c 0
 284 384 262 392 243 402 c 1
 161 394 108 352 108 287 c 0
 108 218 164 186 237 164 c 0
 265 156 290 146 312 136 c 1
EndSplineSet
EndChar

StartChar: dieresis
Encoding: 168 168 331
Width: 300
Flags: MW
HStem: 594 73<85.5 93.5 206.5 215>
VStem: 53 73<625 636> 174 74<625 636>
LayerCount: 2
Fore
SplineSet
96 667 m 0
 114 667 126 654 126 636 c 0
 126 614 104 594 83 594 c 0
 65 594 53 608 53 625 c 0
 53 647 75 667 96 667 c 0
217 667 m 0
 235 667 248 654 248 636 c 0
 248 614 226 594 204 594 c 0
 186 594 174 608 174 625 c 0
 174 647 196 667 217 667 c 0
EndSplineSet
EndChar

StartChar: guillemotleft
Encoding: 171 171 272
Width: 507
Flags: MW
HStem: 82 332<216 338 216 338 274 361 274 416>
VStem: 108 375<248 414>
LayerCount: 2
Fore
SplineSet
166 243 m 1
 271 82 l 1
 216 82 l 1
 108 248 l 1
 274 414 l 1
 338 414 l 1
 166 243 l 1
311 243 m 1
 416 82 l 1
 361 82 l 1
 253 248 l 1
 419 414 l 1
 483 414 l 1
 311 243 l 1
EndSplineSet
EndChar

StartChar: logicalnot
Encoding: 172 172 300
Width: 561
Flags: MW
HStem: 334 43<91 401 84 454>
VStem: 84 370<334 377>
LayerCount: 2
Fore
SplineSet
424 210 m 1
 380 210 l 1
 401 334 l 1
 84 334 l 1
 91 377 l 1
 454 377 l 1
 424 210 l 1
EndSplineSet
EndChar

StartChar: registered
Encoding: 174 174 323
Width: 513
Flags: MW
HStem: 344 37<189 302 189 310.5> 528 34<228 251 251 252 222 251> 627 32<239 262 239 239> 727 37<212 325.5>
VStem: 41 38<487.5 579 487.5 587> 305 42<590.5 605.5> 435 39<529.5 621>
LayerCount: 2
Fore
SplineSet
282 764 m 0
 402 764 474 683 474 579 c 0
 474 464 388 344 233 344 c 0
 112 344 41 425 41 530 c 0
 41 644 127 764 282 764 c 0
239 381 m 0
 365 381 435 480 435 579 c 0
 435 663 376 727 275 727 c 0
 149 727 79 628 79 530 c 0
 79 445 139 381 239 381 c 0
293 658 m 0
 327 654 347 634 347 604 c 0
 347 577 330 556 297 548 c 1
 313 542 321 529 320 511 c 0
 319 491 321 472 327 455 c 1
 284 455 l 1
 280 470 279 483 279 502 c 0
 279 522 270 528 252 528 c 2
 222 528 l 1
 210 455 l 1
 171 455 l 1
 207 659 l 1
 268 659 l 2
 277 659 285 659 293 658 c 0
270 563 m 0
 292 565 305 577 305 597 c 0
 305 614 296 623 280 626 c 0
 274 627 269 627 262 627 c 2
 239 627 l 1
 228 562 l 1
 251 562 l 2
 258 562 263 562 270 563 c 0
EndSplineSet
EndChar

StartChar: macron
Encoding: 175 175 335
Width: 300
Flags: MW
HStem: 610 40<53 247 45 255>
VStem: 45 210<610 650>
LayerCount: 2
Fore
SplineSet
247 610 m 1
 45 610 l 1
 53 650 l 1
 255 650 l 1
 247 610 l 1
EndSplineSet
EndChar

StartChar: degree
Encoding: 176 176 321
Width: 292
Flags: MW
HStem: 525 42<184 223 184 236> 706 43<200.5 239>
VStem: 96 48<605 649.5 605 656> 279 49<624.5 668.5>
LayerCount: 2
Fore
SplineSet
227 749 m 0
 288 749 328 707 328 654 c 0
 328 581 276 525 196 525 c 0
 135 525 96 566 96 620 c 0
 96 692 147 749 227 749 c 0
222 706 m 0
 179 706 144 676 144 623 c 0
 144 587 167 567 201 567 c 0
 245 567 279 598 279 651 c 0
 279 686 256 706 222 706 c 0
EndSplineSet
EndChar

StartChar: plusminus
Encoding: 177 177 308
Width: 561
Flags: MW
HStem: 0 43<30 435 22 442> 297 43<82 258 74 265 310 487 82 302> 509 20G<299 343 343 343>
VStem: 22 472<0 340>
LayerCount: 2
Fore
SplineSet
494 340 m 1
 487 297 l 1
 302 297 l 1
 269 106 l 1
 224 106 l 1
 258 297 l 1
 74 297 l 1
 82 340 l 1
 265 340 l 1
 299 529 l 1
 343 529 l 1
 310 340 l 1
 494 340 l 1
30 43 m 1
 442 43 l 1
 435 0 l 1
 22 0 l 1
 30 43 l 1
EndSplineSet
EndChar

StartChar: acute
Encoding: 180 180 326
Width: 300
Flags: MW
HStem: 580 110<114 255 114 255>
VStem: 114 141<580 690>
LayerCount: 2
Fore
SplineSet
156 580 m 1
 114 580 l 1
 195 690 l 1
 255 690 l 1
 156 580 l 1
EndSplineSet
EndChar

StartChar: paragraph
Encoding: 182 182 322
Width: 542
Flags: MW
HStem: 647 43<388 493 388 388>
VStem: 78 468<440.5 690>
LayerCount: 2
Fore
SplineSet
546 690 m 1
 404 -110 l 1
 359 -110 l 1
 493 647 l 1
 388 647 l 1
 254 -110 l 1
 209 -110 l 1
 285 320 l 1
 262 320 l 2
 244 320 223 320 206 321 c 0
 121 326 78 402 78 479 c 0
 78 564 135 681 271 689 c 0
 289 690 310 690 328 690 c 2
 546 690 l 1
EndSplineSet
EndChar

StartChar: periodcentered
Encoding: 183 183 254
Width: 177
Flags: MW
HStem: 254 102<88 102>
VStem: 43 104<298 312>
LayerCount: 2
Fore
SplineSet
104 356 m 0
 130 356 147 339 147 315 c 0
 147 281 118 254 86 254 c 0
 60 254 43 271 43 295 c 0
 43 329 72 356 104 356 c 0
EndSplineSet
EndChar

StartChar: cedilla
Encoding: 184 184 329
Width: 300
Flags: MW
HStem: -210 34<85 120.5 85 125.5>
VStem: 173 44<-137 -104.5>
LayerCount: 2
Fore
SplineSet
183 6 m 1
 147 -44 l 1
 192 -51 217 -79 217 -117 c 0
 217 -182 161 -210 90 -210 c 0
 68 -210 51 -207 37 -202 c 1
 44 -169 l 1
 59 -174 75 -176 95 -176 c 0
 146 -176 173 -153 173 -121 c 0
 173 -88 143 -69 84 -75 c 1
 143 8 l 1
 183 6 l 1
EndSplineSet
EndChar

StartChar: guillemotright
Encoding: 187 187 273
Width: 507
Flags: MW
HStem: 82 332<19 140 19 140 86 164 86 227>
VStem: 19 374<82 248>
LayerCount: 2
Fore
SplineSet
248 248 m 1
 82 82 l 1
 19 82 l 1
 190 254 l 1
 86 414 l 1
 140 414 l 1
 248 248 l 1
393 248 m 1
 227 82 l 1
 164 82 l 1
 335 254 l 1
 231 414 l 1
 285 414 l 1
 393 248 l 1
EndSplineSet
EndChar

StartChar: questiondown
Encoding: 191 191 256
Width: 522
Flags: MW
HStem: -176 50<177 258.5 177 269.5> 447 95<324 337>
VStem: 28 67<-55 4.5 -55 9.5> 282 97<488 501>
LayerCount: 2
Fore
SplineSet
322 447 m 0
 298 447 282 463 282 485 c 0
 282 517 309 542 339 542 c 0
 363 542 379 526 379 504 c 0
 379 472 352 447 322 447 c 0
205 -176 m 0
 90 -176 28 -108 28 -30 c 0
 28 49 63 107 167 201 c 1
 242 271 267 304 282 374 c 1
 343 374 l 1
 332 301 306 264 221 180 c 0
 119 80 95 34 95 -25 c 0
 95 -85 141 -126 213 -126 c 0
 304 -126 369 -70 390 34 c 1
 454 34 l 1
 432 -94 334 -176 205 -176 c 0
EndSplineSet
EndChar

StartChar: Acircumflex
Encoding: 194 194 4
Width: 636
GlyphClass: 2
Flags: MW
HStem: 0 21G<-15 57 -15 -15 511 511 511 578> 253 52<220 458 220 467 192 458> 640 50<399 399> 736 94<330 458 330 458 412 458 412 509>
VStem: -15 593<0 0>
LayerCount: 2
Fore
SplineSet
381 736 m 1
 330 736 l 1
 412 830 l 1
 458 830 l 1
 509 736 l 1
 458 736 l 1
 430 801 l 1
 381 736 l 1
467 253 m 1
 192 253 l 1
 57 0 l 1
 -15 0 l 1
 362 690 l 1
 451 690 l 1
 578 0 l 1
 511 0 l 1
 467 253 l 1
458 305 m 1
 399 640 l 1
 220 305 l 1
 458 305 l 1
EndSplineSet
Position2: "'cpsp' Capital Spacing in Latin lookup 0 subtable" dx=5 dy=0 dh=10 dv=0
EndChar

StartChar: Atilde
Encoding: 195 195 10
Width: 636
GlyphClass: 2
Flags: MW
HStem: 0 21G<-15 57 -15 -15 511 511 511 578> 253 52<220 458 220 467 192 458> 640 50<399 399> 752 39<474.5 484 474.5 489.5> 776 39<368 377.5>
VStem: 322 31<756 756> 499 31<811 811>
LayerCount: 2
Fore
SplineSet
373 776 m 0xee
 363 776 356 771 353 756 c 1
 322 756 l 1
 329 800 348 815 377 815 c 0xee
 395 815 411 811 436 802 c 0
 459 794 470 791 479 791 c 0
 489 791 496 796 499 811 c 1
 530 811 l 1
 524 767 504 752 475 752 c 0xf6
 457 752 441 756 416 765 c 0
 393 773 382 776 373 776 c 0xee
467 253 m 1
 192 253 l 1
 57 0 l 1
 -15 0 l 1
 362 690 l 1
 451 690 l 1
 578 0 l 1
 511 0 l 1
 467 253 l 1
458 305 m 1
 399 640 l 1
 220 305 l 1
 458 305 l 1
EndSplineSet
Position2: "'cpsp' Capital Spacing in Latin lookup 0 subtable" dx=5 dy=0 dh=10 dv=0
EndChar

StartChar: Adieresis
Encoding: 196 196 5
Width: 636
GlyphClass: 2
Flags: MW
HStem: 0 21G<-15 57 -15 -15 511 511 511 578> 253 52<220 458 220 467 192 458> 640 50<399 399> 747 72<365 373.5 478.5 487>
VStem: 332 74<778 788.5> 446 74<778 788.5>
LayerCount: 2
Fore
SplineSet
363 747 m 0
 345 747 332 760 332 777 c 0
 332 800 354 819 376 819 c 0
 394 819 406 806 406 789 c 0
 406 767 384 747 363 747 c 0
476 747 m 0
 458 747 446 760 446 777 c 0
 446 800 468 819 489 819 c 0
 508 819 520 806 520 789 c 0
 520 767 498 747 476 747 c 0
467 253 m 1
 192 253 l 1
 57 0 l 1
 -15 0 l 1
 362 690 l 1
 451 690 l 1
 578 0 l 1
 511 0 l 1
 467 253 l 1
458 305 m 1
 399 640 l 1
 220 305 l 1
 458 305 l 1
EndSplineSet
Position2: "'cpsp' Capital Spacing in Latin lookup 0 subtable" dx=5 dy=0 dh=10 dv=0
EndChar

StartChar: Aring
Encoding: 197 197 9
Width: 636
GlyphClass: 2
Flags: MW
HStem: 0 21G<-15 57 -15 -15 511 511 511 578> 253 52<220 458 220 467 192 458> 640 50<399 399> 718 31<409.5 434 409.5 441.5> 832 31<422 446.5>
VStem: 347 40<772.5 797.5 772.5 805.5> 469 41<784 808.5>
LayerCount: 2
Fore
SplineSet
418 718 m 0
 374 718 347 743 347 779 c 0
 347 832 391 863 438 863 c 0
 482 863 510 838 510 803 c 0
 510 749 465 718 418 718 c 0
436 832 m 0
 408 832 387 813 387 782 c 0
 387 763 399 749 420 749 c 0
 448 749 469 769 469 799 c 0
 469 818 457 832 436 832 c 0
467 253 m 1
 192 253 l 1
 57 0 l 1
 -15 0 l 1
 362 690 l 1
 451 690 l 1xfe
 578 0 l 1
 511 0 l 1
 467 253 l 1
458 305 m 1
 399 640 l 1
 220 305 l 1
 458 305 l 1
EndSplineSet
Position2: "'cpsp' Capital Spacing in Latin lookup 0 subtable" dx=5 dy=0 dh=10 dv=0
EndChar

StartChar: AE
Encoding: 198 198 11
Width: 932
GlyphClass: 2
Flags: MW
HStem: 0 51<496 851> 253 52<255 460 215 467> 319 52<535 871 529 880> 639 51<568 568 568 953>
VStem: -61 1024<0 690>
LayerCount: 2
Fore
SplineSet
568 639 m 1
 535 371 l 1
 880 371 l 1
 871 319 l 1
 529 319 l 1xb8
 496 51 l 1
 860 51 l 1
 851 0 l 1
 429 0 l 1
 460 253 l 1
 215 253 l 1xf8
 17 0 l 1
 -61 0 l 1
 483 690 l 1
 963 690 l 1
 953 639 l 1
 568 639 l 1
507 627 m 1
 255 305 l 1
 467 305 l 1xf8
 507 627 l 1
EndSplineSet
Position2: "'cpsp' Capital Spacing in Latin lookup 0 subtable" dx=5 dy=0 dh=10 dv=0
EndChar

StartChar: Ccedilla
Encoding: 199 199 16
Width: 709
GlyphClass: 2
Flags: MW
HStem: -210 34<192 228 192 233.5> -14 50<311 394 270.5 405.5> -5 21G<242 242> 654 50<350.5 495>
VStem: 61 69 280 45<-137 -104.5> 625 63<465 475 475 536>
AnchorPoint: "Anchor-0" 264 0 basechar 0
LayerCount: 2
Fore
SplineSet
445 704 m 0xde
 611 704 694 606 688 475 c 1
 687 465 l 1
 625 465 l 1
 625 475 l 2
 625 597 557 654 433 654 c 0
 268 654 130 500 130 278 c 0
 130 115 211 36 330 36 c 0
 458 36 534 114 575 219 c 2
 579 229 l 1
 641 229 l 1
 638 219 l 1
 595 87 493 -14 318 -14 c 0
 304 -14 291 -13 278 -12 c 1
 255 -44 l 1xde
 300 -51 325 -79 325 -117 c 0
 325 -182 269 -210 198 -210 c 0
 176 -210 159 -207 145 -202 c 1
 151 -169 l 1
 166 -174 182 -176 202 -176 c 0
 254 -176 280 -153 280 -121 c 0
 280 -88 251 -69 191 -75 c 1
 242 -5 l 1xbe
 126 25 60 124 61 270 c 1
 60 524 229 704 445 704 c 0xde
EndSplineSet
Position2: "'cpsp' Capital Spacing in Latin lookup 0 subtable" dx=5 dy=0 dh=10 dv=0
EndChar

StartChar: Egrave
Encoding: 200 200 28
Width: 572
GlyphClass: 2
Flags: MW
HStem: 0 51<114 491> 319 52<171 511 161 520> 639 51<218 218 218 593> 639 191<218 378 318 378 318 593>
VStem: 43 560
AnchorPoint: "Anchor-0" 244 0 basechar 0
LayerCount: 2
Fore
SplineSet
375 736 m 1xd8
 318 830 l 1
 378 830 l 1
 416 736 l 1
 375 736 l 1xd8
218 639 m 1xe8
 171 371 l 1
 520 371 l 1
 511 319 l 1
 161 319 l 1
 114 51 l 1
 500 51 l 1
 491 0 l 1
 43 0 l 1
 165 690 l 1
 603 690 l 1
 593 639 l 1
 218 639 l 1xe8
EndSplineSet
Position2: "'cpsp' Capital Spacing in Latin lookup 0 subtable" dx=5 dy=0 dh=10 dv=0
EndChar

StartChar: Eacute
Encoding: 201 201 23
Width: 572
GlyphClass: 2
Flags: MW
HStem: 0 51<114 491> 319 52<171 511 161 520> 639 51<218 218 218 593> 639 191<438 498 438 593>
VStem: 43 560
AnchorPoint: "Anchor-0" 244 0 basechar 0
LayerCount: 2
Fore
SplineSet
410 736 m 1xd8
 368 736 l 1
 438 830 l 1
 498 830 l 1
 410 736 l 1xd8
218 639 m 1xe8
 171 371 l 1
 520 371 l 1
 511 319 l 1
 161 319 l 1
 114 51 l 1
 500 51 l 1
 491 0 l 1
 43 0 l 1
 165 690 l 1
 603 690 l 1
 593 639 l 1
 218 639 l 1xe8
EndSplineSet
Position2: "'cpsp' Capital Spacing in Latin lookup 0 subtable" dx=5 dy=0 dh=10 dv=0
EndChar

StartChar: Edieresis
Encoding: 203 203 26
Width: 572
GlyphClass: 2
Flags: MW
HStem: 0 51<114 491> 319 52<171 511 161 520> 639 51<218 218 218 593> 747 72<340 348.5 453.5 462>
VStem: 307 74<778 788.5> 421 74<778 788.5>
AnchorPoint: "Anchor-0" 244 0 basechar 0
LayerCount: 2
Fore
SplineSet
338 747 m 0
 320 747 307 760 307 777 c 0
 307 800 329 819 351 819 c 0
 369 819 381 806 381 789 c 0
 381 767 359 747 338 747 c 0
451 747 m 0
 433 747 421 760 421 777 c 0
 421 800 443 819 464 819 c 0
 483 819 495 806 495 789 c 0
 495 767 473 747 451 747 c 0
218 639 m 1
 171 371 l 1
 520 371 l 1
 511 319 l 1
 161 319 l 1
 114 51 l 1
 500 51 l 1
 491 0 l 1
 43 0 l 1
 165 690 l 1
 603 690 l 1
 593 639 l 1
 218 639 l 1
EndSplineSet
Position2: "'cpsp' Capital Spacing in Latin lookup 0 subtable" dx=5 dy=0 dh=10 dv=0
EndChar

StartChar: Igrave
Encoding: 204 204 44
Width: 221
GlyphClass: 2
Flags: MW
HStem: 0 21G<43 105 43 43> 670 20G<165 227 227 227> 736 94<186 189 129 227 186 186>
VStem: 43 184
LayerCount: 2
Fore
SplineSet
227 736 m 1
 186 736 l 1
 129 830 l 1
 189 830 l 1
 227 736 l 1
105 0 m 1
 43 0 l 1
 165 690 l 1
 227 690 l 1
 105 0 l 1
EndSplineSet
Position2: "'cpsp' Capital Spacing in Latin lookup 0 subtable" dx=5 dy=0 dh=10 dv=0
EndChar

StartChar: Iacute
Encoding: 205 205 40
Width: 221
GlyphClass: 2
Flags: MW
HStem: 0 21G<43 105 43 43> 670 20G<165 227 227 227> 736 94<179 309 179 309>
VStem: 43 266
LayerCount: 2
Fore
SplineSet
221 736 m 1
 179 736 l 1
 249 830 l 1
 309 830 l 1
 221 736 l 1
105 0 m 1
 43 0 l 1
 165 690 l 1
 227 690 l 1
 105 0 l 1
EndSplineSet
Position2: "'cpsp' Capital Spacing in Latin lookup 0 subtable" dx=5 dy=0 dh=10 dv=0
EndChar

StartChar: Icircumflex
Encoding: 206 206 41
Width: 221
GlyphClass: 2
Flags: MW
HStem: 0 21G<43 105 43 43> 670 20G<165 227 227 227> 736 94<116 244 116 244 198 295 198 244>
VStem: 43 252
LayerCount: 2
Fore
SplineSet
295 736 m 1
 244 736 l 1
 216 801 l 1
 167 736 l 1
 116 736 l 1
 198 830 l 1
 244 830 l 1
 295 736 l 1
165 690 m 1
 227 690 l 1
 105 0 l 1
 43 0 l 1
 165 690 l 1
EndSplineSet
Position2: "'cpsp' Capital Spacing in Latin lookup 0 subtable" dx=5 dy=0 dh=10 dv=0
EndChar

StartChar: Idieresis
Encoding: 207 207 42
Width: 221
GlyphClass: 2
Flags: MW
HStem: 0 21G<43 105 43 43> 670 20G<165 227 227 227> 747 72<151 159.5 264.5 273>
VStem: 118 74<778 788.5> 232 74<778 788.5>
LayerCount: 2
Fore
SplineSet
162 819 m 0
 180 819 192 806 192 789 c 0
 192 767 170 747 149 747 c 0
 131 747 118 760 118 777 c 0
 118 800 140 819 162 819 c 0
275 819 m 0
 294 819 306 806 306 789 c 0
 306 767 284 747 262 747 c 0
 244 747 232 760 232 777 c 0
 232 800 254 819 275 819 c 0
105 0 m 1
 43 0 l 1
 165 690 l 1
 227 690 l 1
 105 0 l 1
EndSplineSet
Position2: "'cpsp' Capital Spacing in Latin lookup 0 subtable" dx=5 dy=0 dh=10 dv=0
EndChar

StartChar: Ntilde
Encoding: 209 209 62
Width: 673
GlyphClass: 2
Flags: MW
HStem: 0 59<505 505 505 557 462 505> 633 57<215 215> 752 39<486.5 496 486.5 501.5> 776 39<380 389.5>
VStem: 334 31<756 756> 511 31<811 811>
AnchorPoint: "Anchor-0" 300 0 basechar 0
LayerCount: 2
Fore
SplineSet
385 776 m 0xdc
 375 776 368 771 365 756 c 1
 334 756 l 1
 341 800 360 815 389 815 c 0xdc
 407 815 423 811 448 802 c 0
 471 794 482 791 491 791 c 0
 501 791 508 796 511 811 c 1
 542 811 l 1
 536 767 516 752 487 752 c 0xec
 469 752 453 756 428 765 c 0
 405 773 394 776 385 776 c 0xdc
679 690 m 1
 557 0 l 1
 462 0 l 1
 215 633 l 1
 105 0 l 1
 43 0 l 1
 165 690 l 1
 260 690 l 1
 505 59 l 1
 617 690 l 1
 679 690 l 1
EndSplineSet
Position2: "'cpsp' Capital Spacing in Latin lookup 0 subtable" dx=5 dy=0 dh=10 dv=0
EndChar

StartChar: Ocircumflex
Encoding: 212 212 65
Width: 746
GlyphClass: 2
Flags: MW
HStem: -14 50<284.5 450.5 284.5 466.5> 654 50<333 499> 736 94<367 495 367 495 449 495 449 546>
VStem: 62 68<210 371 210 387> 654 67<319 480.5>
LayerCount: 2
Fore
SplineSet
418 736 m 1
 367 736 l 1
 449 830 l 1
 495 830 l 1
 546 736 l 1
 495 736 l 1
 467 801 l 1
 418 736 l 1
446 704 m 0
 619 704 721 576 721 404 c 0
 721 202 596 -14 337 -14 c 0
 165 -14 62 114 62 286 c 0
 62 488 187 704 446 704 c 0
350 36 m 0
 551 36 654 234 654 404 c 0
 654 557 564 654 434 654 c 0
 232 654 130 456 130 286 c 0
 130 134 219 36 350 36 c 0
EndSplineSet
Position2: "'cpsp' Capital Spacing in Latin lookup 0 subtable" dx=5 dy=0 dh=10 dv=0
EndChar

StartChar: Otilde
Encoding: 213 213 71
Width: 746
GlyphClass: 2
Flags: MW
HStem: -14 50<284.5 450.5 284.5 466.5> 654 50<333 499> 752 39<511.5 521 511.5 526.5> 776 39<405 414.5>
VStem: 62 68<210 371 210 387> 359 31<756 756> 536 31<811 811> 654 67<319 480.5>
LayerCount: 2
Fore
SplineSet
410 776 m 0xdd
 400 776 393 771 390 756 c 1
 359 756 l 1
 366 800 385 815 414 815 c 0xdd
 432 815 448 811 473 802 c 0
 496 794 507 791 516 791 c 0
 526 791 533 796 536 811 c 1
 567 811 l 1
 561 767 541 752 512 752 c 0xef
 494 752 478 756 453 765 c 0
 430 773 419 776 410 776 c 0xdd
446 704 m 0
 619 704 721 576 721 404 c 0
 721 202 596 -14 337 -14 c 0
 165 -14 62 114 62 286 c 0
 62 488 187 704 446 704 c 0
350 36 m 0
 551 36 654 234 654 404 c 0
 654 557 564 654 434 654 c 0
 232 654 130 456 130 286 c 0
 130 134 219 36 350 36 c 0
EndSplineSet
Position2: "'cpsp' Capital Spacing in Latin lookup 0 subtable" dx=5 dy=0 dh=10 dv=0
EndChar

StartChar: Odieresis
Encoding: 214 214 66
Width: 746
GlyphClass: 2
Flags: MW
HStem: -14 50<284.5 450.5 284.5 466.5> 654 50<333 499> 747 72<402 410.5 515.5 524>
VStem: 62 68<210 371 210 387> 369 74<778 788.5> 483 74<778 788.5> 654 67<319 480.5>
LayerCount: 2
Fore
SplineSet
400 747 m 0
 382 747 369 760 369 777 c 0
 369 800 391 819 413 819 c 0
 431 819 443 806 443 789 c 0
 443 767 421 747 400 747 c 0
513 747 m 0
 495 747 483 760 483 777 c 0
 483 800 505 819 526 819 c 0
 545 819 557 806 557 789 c 0
 557 767 535 747 513 747 c 0
446 704 m 0
 619 704 721 576 721 404 c 0
 721 202 596 -14 337 -14 c 0
 165 -14 62 114 62 286 c 0
 62 488 187 704 446 704 c 0
350 36 m 0
 551 36 654 234 654 404 c 0
 654 557 564 654 434 654 c 0
 232 654 130 456 130 286 c 0
 130 134 219 36 350 36 c 0
EndSplineSet
Position2: "'cpsp' Capital Spacing in Latin lookup 0 subtable" dx=5 dy=0 dh=10 dv=0
EndChar

StartChar: multiply
Encoding: 215 215 302
Width: 561
Flags: MW
HStem: 137 354<107 449>
VStem: 76 404<174 454>
LayerCount: 2
Fore
SplineSet
312 311 m 1
 427 171 l 1
 390 140 l 1
 275 280 l 1
 107 137 l 1
 76 174 l 1
 244 317 l 1
 129 457 l 1
 166 488 l 1
 281 348 l 1
 449 491 l 1
 480 454 l 1
 312 311 l 1
EndSplineSet
EndChar

StartChar: Oslash
Encoding: 216 216 70
Width: 743
GlyphClass: 2
Flags: MW
HStem: -14 50<311.5 452 311.5 468.5> 654 50<334.5 473.5>
VStem: 64 67<264 371 264 387> 655 68<319 426.5>
LayerCount: 2
Fore
SplineSet
770 641 m 1
 685 568 l 1
 710 522 723 466 723 404 c 0
 723 202 598 -14 339 -14 c 0
 243 -14 169 25 122 90 c 1
 37 17 l 1
 10 49 l 1
 100 126 l 1
 76 171 64 226 64 286 c 0
 64 488 189 704 448 704 c 0
 542 704 615 666 662 604 c 1
 744 673 l 1
 770 641 l 1
131 286 m 0
 131 242 138 203 152 170 c 1
 613 562 l 1
 575 620 512 654 435 654 c 0
 234 654 131 456 131 286 c 0
655 404 m 0
 655 449 647 490 632 524 c 1
 171 131 l 1
 209 71 272 36 351 36 c 0
 553 36 655 234 655 404 c 0
EndSplineSet
Position2: "'cpsp' Capital Spacing in Latin lookup 0 subtable" dx=5 dy=0 dh=10 dv=0
EndChar

StartChar: Ugrave
Encoding: 217 217 94
Width: 652
GlyphClass: 2
Flags: MW
HStem: -14 50<246 358 246 371.5> 670 20G<168 230 230 230 596 658 658 658> 736 94<403 406 346 444 403 403>
VStem: 82 62<130.5 182>
LayerCount: 2
Fore
SplineSet
444 736 m 1
 403 736 l 1
 346 830 l 1
 406 830 l 1
 444 736 l 1
658 690 m 1
 580 249 l 2
 576 227 572 206 567 185 c 0
 537 63 452 -14 291 -14 c 0
 153 -14 82 55 82 167 c 0
 82 197 85 223 91 253 c 2
 168 690 l 1
 230 690 l 1
 154 257 l 2
 147 217 144 196 144 169 c 0
 144 92 192 36 300 36 c 0
 416 36 480 91 507 193 c 0
 512 212 516 231 520 254 c 2
 596 690 l 1
 658 690 l 1
EndSplineSet
Position2: "'cpsp' Capital Spacing in Latin lookup 0 subtable" dx=5 dy=0 dh=10 dv=0
EndChar

StartChar: Udieresis
Encoding: 220 220 93
Width: 652
GlyphClass: 2
Flags: MW
HStem: -14 50<246 358 246 371.5> 670 20G<168 230 230 230 596 658 658 658> 747 72<368 376.5 481.5 490>
VStem: 82 62<130.5 182> 335 74<778 788.5> 449 74<778 788.5>
LayerCount: 2
Fore
SplineSet
379 819 m 0
 397 819 409 806 409 789 c 0
 409 767 387 747 366 747 c 0
 348 747 335 760 335 777 c 0
 335 800 357 819 379 819 c 0
492 819 m 0
 511 819 523 806 523 789 c 0
 523 767 501 747 479 747 c 0
 461 747 449 760 449 777 c 0
 449 800 471 819 492 819 c 0
658 690 m 1
 580 249 l 2
 576 227 572 206 567 185 c 0
 537 63 452 -14 291 -14 c 0
 153 -14 82 55 82 167 c 0
 82 197 85 223 91 253 c 2
 168 690 l 1
 230 690 l 1
 154 257 l 2
 147 217 144 196 144 169 c 0
 144 92 192 36 300 36 c 0
 416 36 480 91 507 193 c 0
 512 212 516 231 520 254 c 2
 596 690 l 1
 658 690 l 1
EndSplineSet
Position2: "'cpsp' Capital Spacing in Latin lookup 0 subtable" dx=5 dy=0 dh=10 dv=0
EndChar

StartChar: Yacute
Encoding: 221 221 107
Width: 568
GlyphClass: 2
Flags: MW
HStem: 0 21G<218 280 218 218> 670 20G<96 161 161 161 573 647 647 647> 736 94<354 484 354 484>
VStem: 96 551<690 690>
LayerCount: 2
Fore
SplineSet
396 736 m 1
 354 736 l 1
 424 830 l 1
 484 830 l 1
 396 736 l 1
327 269 m 1
 280 0 l 1
 218 0 l 1
 266 273 l 1
 96 690 l 1
 161 690 l 1
 306 329 l 1
 573 690 l 1
 647 690 l 1
 327 269 l 1
EndSplineSet
Position2: "'cpsp' Capital Spacing in Latin lookup 0 subtable" dx=5 dy=0 dh=10 dv=0
EndChar

StartChar: Thorn
Encoding: 222 222 74
Width: 582
GlyphClass: 2
Flags: MW
HStem: 0 21G<43 105 43 43> 211 53<152 274 142 284> 538 53<209 332 200 341> 538 152<200 227 165 332 200 200>
VStem: 509 68<437 463.5>
LayerCount: 2
Fore
SplineSet
434 586 m 0xe8
 518 575 577 530 577 443 c 0
 577 431 576 418 573 404 c 0
 553 290 468 228 369 215 c 0
 336 211 309 211 274 211 c 2
 142 211 l 1
 105 0 l 1
 43 0 l 1
 165 690 l 1
 227 690 l 1xd8
 209 591 l 1
 341 591 l 2
 376 591 403 590 434 586 c 0xe8
507 402 m 0
 509 413 509 423 509 432 c 0
 509 495 468 523 415 533 c 0
 392 537 365 538 332 538 c 2
 200 538 l 1
 152 264 l 1
 284 264 l 2
 317 264 344 265 369 269 c 0
 433 279 491 316 507 402 c 0
EndSplineSet
Position2: "'cpsp' Capital Spacing in Latin lookup 0 subtable" dx=5 dy=0 dh=10 dv=0
EndChar

StartChar: germandbls
Encoding: 223 223 199
Width: 556
GlyphClass: 2
Flags: MW
HStem: -4 49<301 364.5 301 380.5> 0 21G<27 89 27 27> 704 50<302.5 405.5>
VStem: 341 66<364.5 399 364.5 403.5> 452 68<131.5 172> 485 67<590.5 635.5>
LayerCount: 2
Fore
SplineSet
374 754 m 0xb4
 488 754 552 694 552 607 c 0xb4
 552 568 540 524 505 480 c 1
 431 446 407 419 407 379 c 0
 407 350 418 330 450 296 c 1
 493 253 520 212 520 158 c 0
 520 80 453 -4 308 -4 c 0
 275 -4 246 -2 208 7 c 1
 217 58 l 1
 257 48 288 45 314 45 c 0
 415 45 452 107 452 156 c 0xb8
 452 188 439 221 398 264 c 0
 357 308 341 334 341 377 c 0
 341 430 372 471 454 511 c 1
 478 545 485 575 485 606 c 0
 485 665 444 704 367 704 c 0
 238 704 193 592 175 490 c 2
 89 0 l 1
 27 0 l 1x74
 112 484 l 2
 137 623 195 754 374 754 c 0xb4
EndSplineSet
EndChar

StartChar: agrave
Encoding: 224 224 120
Width: 502
GlyphClass: 2
Flags: MW
HStem: -14 49<158.5 194> 0 21G<345 408 345 345> 269.26 46.08 493 50<262.5 341> 580 110<245 305 245 347>
VStem: 19 67<96 179 96 196.5> 349.5 58.5 404 63<403 431>
LayerCount: 2
Fore
SplineSet
305 580 m 1xbd
 245 690 l 1
 305 690 l 1
 347 580 l 1
 305 580 l 1xbd
307 543 m 0
 417 543 467 490 467 413 c 0
 467 393 463 367 458 335 c 2xbd
 424 148 l 2
 416 101 412 63 408 0 c 1
 345 0 l 1
 354 95 l 1x7e
 319 46 l 1xbe
 280 5 226 -14 162 -14 c 0
 87 -14 19 28 19 119 c 0
 19 274 190 328 392 313 c 1
 395 333 l 1
 402 370 404 389 404 405 c 0
 404 457 377 493 305 493 c 0
 220 493 165 454 144 372 c 1
 80 372 l 1
 102 476 188 543 307 543 c 0
189 35 m 0
 273 35 356 111 373 204 c 2
 384 266 l 1
 214 283 86 233 86 125 c 0
 86 67 128 35 189 35 c 0
EndSplineSet
EndChar

StartChar: atilde
Encoding: 227 227 124
Width: 502
GlyphClass: 2
Flags: MW
HStem: -14 49<158.5 194> 0 21G<345 408 345 345> 269.26 46.08 493 50<262.5 341> 607 40<380.5 390 380.5 395.5> 631 40<274 283.5>
VStem: 19 67<96 179 96 196.5> 228 31<611 611> 349.5 58.5 404 63<403 431> 405 31<667 667>
LayerCount: 2
Fore
SplineSet
279 631 m 0xb740
 269 631 262 626 259 611 c 1
 228 611 l 1
 235 656 254 671 283 671 c 0xb740
 301 671 317 667 342 658 c 0
 365 650 376 647 385 647 c 0
 395 647 402 652 405 667 c 1
 436 667 l 1
 430 622 410 607 381 607 c 0xbb20
 363 607 347 611 322 620 c 0
 299 628 288 631 279 631 c 0xb740
307 543 m 0
 417 543 467 490 467 413 c 0
 467 393 463 367 458 335 c 2xb740
 424 148 l 2
 416 101 412 63 408 0 c 1
 345 0 l 1
 354 95 l 1x7780
 319 46 l 1xb780
 280 5 226 -14 162 -14 c 0
 87 -14 19 28 19 119 c 0
 19 274 190 328 392 313 c 1
 395 333 l 1
 402 370 404 389 404 405 c 0
 404 457 377 493 305 493 c 0
 220 493 165 454 144 372 c 1
 80 372 l 1
 102 476 188 543 307 543 c 0
189 35 m 0
 273 35 356 111 373 204 c 2
 384 266 l 1
 214 283 86 233 86 125 c 0
 86 67 128 35 189 35 c 0
EndSplineSet
EndChar

StartChar: adieresis
Encoding: 228 228 119
Width: 502
GlyphClass: 2
Flags: MW
HStem: -14 49<158.5 194> 0 21G<345 408 345 345> 269.26 46.08 493 50<262.5 341> 594 73<265.5 273.5 386.5 395>
VStem: 19 67<96 179 96 196.5> 233 73<625 636> 349.5 58.5 354 74<625 636> 404 63<403 431>
LayerCount: 2
Fore
SplineSet
263 594 m 0xbe40
 245 594 233 608 233 625 c 0
 233 647 255 667 276 667 c 0
 294 667 306 654 306 636 c 0
 306 614 284 594 263 594 c 0xbe40
384 594 m 0xbe80
 366 594 354 608 354 625 c 0
 354 647 376 667 397 667 c 0
 415 667 428 654 428 636 c 0
 428 614 406 594 384 594 c 0xbe80
307 543 m 0xbe40
 417 543 467 490 467 413 c 0
 467 393 463 367 458 335 c 2xbe40
 424 148 l 2
 416 101 412 63 408 0 c 1
 345 0 l 1
 354 95 l 1x7f
 319 46 l 1xbf
 280 5 226 -14 162 -14 c 0
 87 -14 19 28 19 119 c 0
 19 274 190 328 392 313 c 1
 395 333 l 1
 402 370 404 389 404 405 c 0
 404 457 377 493 305 493 c 0
 220 493 165 454 144 372 c 1
 80 372 l 1
 102 476 188 543 307 543 c 0xbe40
189 35 m 0
 273 35 356 111 373 204 c 2
 384 266 l 1
 214 283 86 233 86 125 c 0
 86 67 128 35 189 35 c 0
EndSplineSet
EndChar

StartChar: aring
Encoding: 229 229 123
Width: 502
GlyphClass: 2
Flags: MW
HStem: -14 49<158.5 194> 0 21G<345 408 345 345> 269.26 46.08 493 50<262.5 341> 568 30<314.5 339 314.5 345.5> 689 30<327 351.5>
VStem: 19 67<96 179 96 196.5> 251 41<622 649 622 655> 349.5 58.5 374 41<637.5 664.5> 404 63<403 431>
LayerCount: 2
Fore
SplineSet
320 568 m 0xbf40
 279 568 251 592 251 629 c 0
 251 681 295 719 347 719 c 0
 387 719 415 695 415 658 c 0
 415 605 371 568 320 568 c 0xbf40
341 689 m 0
 313 689 292 665 292 633 c 0
 292 611 304 598 325 598 c 0
 353 598 374 621 374 654 c 0
 374 675 362 689 341 689 c 0
307 543 m 0xb720
 417 543 467 490 467 413 c 0
 467 393 463 367 458 335 c 2xb720
 424 148 l 2
 416 101 412 63 408 0 c 1
 345 0 l 1
 354 95 l 1x7780
 319 46 l 1xb780
 280 5 226 -14 162 -14 c 0
 87 -14 19 28 19 119 c 0
 19 274 190 328 392 313 c 1
 395 333 l 1
 402 370 404 389 404 405 c 0
 404 457 377 493 305 493 c 0
 220 493 165 454 144 372 c 1
 80 372 l 1
 102 476 188 543 307 543 c 0xb720
189 35 m 0
 273 35 356 111 373 204 c 2
 384 266 l 1
 214 283 86 233 86 125 c 0
 86 67 128 35 189 35 c 0
EndSplineSet
EndChar

StartChar: ae
Encoding: 230 230 125
Width: 899
GlyphClass: 2
Flags: MW
HStem: -14 49<159.5 211.5 554 630> 246 49<468 807 468 860 459 807> 495 49<267.5 344 646.5 739>
VStem: 17 69<93 164.5 93 167.5> 394.5 60.5 809.9 64.1
LayerCount: 2
Fore
SplineSet
860 246 m 1
 459 246 l 1
 457 228 455 210 455 195 c 0
 455 82 515 35 593 35 c 0
 667 35 741 80 776 167 c 1
 840 167 l 1
 793 44 687 -14 581 -14 c 0
 481 -14 420 36 401 121 c 1
 366 65 l 1
 308 8 253 -14 170 -14 c 0
 85 -14 17 30 17 110 c 0
 17 225 124 296 372 296 c 2
 406 296 l 1
 414 343 416 363 416 381 c 0
 416 452 383 495 305 495 c 0
 230 495 168 456 147 374 c 1
 83 374 l 1
 105 477 196 544 313 544 c 0
 428 544 465 492 475 436 c 1
 528 505 605 544 688 544 c 0
 815 544 874 460 874 345 c 0
 874 312 868 273 860 246 c 1
678 495 m 0
 584 495 500 428 468 295 c 1
 807 295 l 1
 819 388 800 495 678 495 c 0
193 35 m 0
 288 35 372 107 392 217 c 1
 397 246 l 1
 379 247 361 247 344 247 c 0
 184 247 86 210 86 119 c 0
 86 67 126 35 193 35 c 0
EndSplineSet
EndChar

StartChar: ccedilla
Encoding: 231 231 130
Width: 526
GlyphClass: 2
Flags: MW
HStem: -210 34<148 183.5 148 188.5> -12 47<191 269.5> 494 49<247.5 355>
VStem: 25 67<144.5 284.5 144.5 286.5> 236 44<-137 -104.5> 443 65<356 412>
AnchorPoint: "Anchor-0" 217 0 basechar 0
LayerCount: 2
Fore
SplineSet
229 35 m 0
 310 35 376 80 412 165 c 1
 476 165 l 1
 429 50 347 -10 232 -14 c 1
 210 -44 l 1
 255 -51 280 -79 280 -117 c 0
 280 -182 224 -210 153 -210 c 0
 131 -210 114 -207 100 -202 c 1
 107 -169 l 1
 122 -174 138 -176 158 -176 c 0
 209 -176 236 -153 236 -121 c 0
 236 -88 206 -69 147 -75 c 1
 191 -12 l 1
 93 -1 25 73 25 201 c 0
 25 372 130 543 324 543 c 0
 446 543 508 468 508 356 c 1
 443 356 l 1
 441 445 398 494 312 494 c 0
 183 494 92 366 92 203 c 0
 92 86 153 35 229 35 c 0
EndSplineSet
EndChar

StartChar: edieresis
Encoding: 235 235 140
Width: 533
GlyphClass: 2
Flags: MW
HStem: -14 49<192.5 267 192.5 271> 246 49<104 442 104 495 95 442> 493 50<248 347.5> 594 73<270.5 278.5 391.5 400>
VStem: 25 67<141.5 207 141.5 272.5> 238 73<625 636> 359 74<625 636> 445 63<334 393.5>
AnchorPoint: "Anchor-0" 218 0 basechar 0
LayerCount: 2
Fore
SplineSet
268 594 m 0
 250 594 238 608 238 625 c 0
 238 647 260 667 281 667 c 0
 299 667 311 654 311 636 c 0
 311 614 289 594 268 594 c 0
389 594 m 0xff
 371 594 359 608 359 625 c 0
 359 647 381 667 402 667 c 0
 420 667 433 654 433 636 c 0
 433 614 411 594 389 594 c 0xff
495 246 m 1xfd
 95 246 l 1
 93 230 92 214 92 200 c 0
 92 83 155 35 230 35 c 0
 304 35 376 80 411 167 c 1
 475 167 l 1
 427 41 324 -14 218 -14 c 0
 104 -14 25 59 25 198 c 0
 25 347 114 543 317 543 c 0
 443 543 508 459 508 344 c 0
 508 312 503 273 495 246 c 1xfd
307 493 m 0
 189 493 128 393 104 295 c 1
 442 295 l 1
 444 312 445 327 445 341 c 0
 445 446 388 493 307 493 c 0
EndSplineSet
EndChar

StartChar: igrave
Encoding: 236 236 157
Width: 208
GlyphClass: 2
Flags: MW
HStem: 0 21G<27 89 27 27> 509 20G<120 182 182 182> 580 110<84 186 84 144>
VStem: 27 159
LayerCount: 2
Fore
SplineSet
186 580 m 1
 144 580 l 1
 84 690 l 1
 144 690 l 1
 186 580 l 1
89 0 m 1
 27 0 l 1
 120 529 l 1
 182 529 l 1
 89 0 l 1
EndSplineSet
EndChar

StartChar: iacute
Encoding: 237 237 154
Width: 208
GlyphClass: 2
Flags: MW
HStem: 0 21G<27 89 27 27> 509 20G<120 182 182 182> 580 110<135 276 135 276>
VStem: 27 249
LayerCount: 2
Fore
SplineSet
177 580 m 1
 135 580 l 1
 216 690 l 1
 276 690 l 1
 177 580 l 1
89 0 m 1
 27 0 l 1
 120 529 l 1
 182 529 l 1
 89 0 l 1
EndSplineSet
EndChar

StartChar: icircumflex
Encoding: 238 238 155
Width: 208
GlyphClass: 2
Flags: MW
HStem: 0 21G<27 89 27 27> 509 20G<120 182 182 182> 580 110<73 205 73 205 202 205 159 251 202 202> 655 35<176 176>
VStem: 27 224
LayerCount: 2
Fore
SplineSet
251 580 m 1xe8
 202 580 l 1xe8
 176 655 l 1xd8
 121 580 l 1
 73 580 l 1
 159 690 l 1
 205 690 l 1
 251 580 l 1xe8
120 529 m 1
 182 529 l 1
 89 0 l 1
 27 0 l 1
 120 529 l 1
EndSplineSet
EndChar

StartChar: idieresis
Encoding: 239 239 156
Width: 208
GlyphClass: 2
Flags: MW
HStem: 0 21G<27 89 27 27> 509 20G<120 182 182 182> 594 73<104.5 112.5 225.5 234>
VStem: 72 73<625 636> 193 74<625 636>
LayerCount: 2
Fore
SplineSet
115 667 m 0
 133 667 145 654 145 636 c 0
 145 614 123 594 102 594 c 0
 84 594 72 608 72 625 c 0
 72 647 94 667 115 667 c 0
236 667 m 0
 254 667 267 654 267 636 c 0
 267 614 245 594 223 594 c 0
 205 594 193 608 193 625 c 0
 193 647 215 667 236 667 c 0
89 0 m 1
 27 0 l 1
 120 529 l 1
 182 529 l 1
 89 0 l 1
EndSplineSet
EndChar

StartChar: eth
Encoding: 240 240 133
Width: 575
GlyphClass: 2
Flags: MW
HStem: -14 49<188 310 188 328> 495 49<234.5 337.5 213.5 350> 725 20G<358 358>
VStem: 25 67<148 265 148 272.5> 454 68<281 395.5>
LayerCount: 2
Fore
SplineSet
543 676 m 1
 474 649 l 1
 508 591 522 507 522 381 c 0
 522 181 434 -14 222 -14 c 0
 92 -14 25 84 25 204 c 0
 25 341 114 544 313 544 c 0
 362 544 397 534 430 509 c 1
 461 454 l 1
 458 525 449 584 420 629 c 1
 270 571 l 1
 256 609 l 1
 393 662 l 1
 373 681 347 696 314 708 c 1
 358 745 l 1
 396 730 426 710 450 684 c 1
 529 714 l 1
 543 676 l 1
228 35 m 0
 392 35 454 211 454 345 c 0
 454 446 389 495 311 495 c 0
 158 495 92 325 92 205 c 0
 92 91 148 35 228 35 c 0
EndSplineSet
EndChar

StartChar: ntilde
Encoding: 241 241 176
Width: 571
GlyphClass: 2
Flags: MW
HStem: 0 21G<27 89 27 27 392 454 392 392> 492 51 509 20G<120 182 182 182> 607 40<403.5 413 403.5 418.5> 631 40<297 306.5>
VStem: 251 31<611 611> 428 31<667 667> 456 64<388.5 418>
AnchorPoint: "Anchor-0" 237 0 basechar 0
LayerCount: 2
Fore
SplineSet
302 631 m 0xcd
 292 631 285 626 282 611 c 1
 251 611 l 1
 258 656 277 671 306 671 c 0xcd
 324 671 340 667 365 658 c 0
 388 650 399 647 408 647 c 0
 418 647 425 652 428 667 c 1
 459 667 l 1
 453 622 433 607 404 607 c 0xd6
 386 607 370 611 345 620 c 0
 322 628 311 631 302 631 c 0xcd
361 543 m 0
 466 543 520 489 520 404 c 0
 520 373 518 353 508 296 c 2
 454 0 l 1
 392 0 l 1
 444 289 l 2
 452 333 456 362 456 387 c 0
 456 449 423 493 341 492 c 0xcd
 251 491 164 428 135 264 c 1
 135 263 l 1
 89 0 l 1
 27 0 l 1
 120 529 l 1
 182 529 l 1xad
 164 428 l 1
 203 486 l 1
 253 528 303 543 361 543 c 0
EndSplineSet
EndChar

StartChar: oacute
Encoding: 243 243 178
Width: 574
GlyphClass: 2
Flags: MW
HStem: -14 49<204.5 330 204.5 353> 493 50<243.5 369.5> 580 110<317 458 317 458>
VStem: 27 68<165 281 165 287.5> 479 68<247.5 364>
LayerCount: 2
Fore
SplineSet
359 580 m 1
 317 580 l 1
 398 690 l 1
 458 690 l 1
 359 580 l 1
326 543 m 0
 480 543 547 435 547 311 c 0
 547 171 458 -14 248 -14 c 0
 94 -14 27 93 27 218 c 0
 27 357 116 543 326 543 c 0
256 35 m 0
 404 35 479 185 479 310 c 0
 479 418 421 493 318 493 c 0
 169 493 95 343 95 219 c 0
 95 111 153 35 256 35 c 0
EndSplineSet
EndChar

StartChar: ocircumflex
Encoding: 244 244 179
Width: 574
GlyphClass: 2
Flags: MW
HStem: -14 49<204.5 330 204.5 353> 493 50<243.5 369.5> 580 110<255 387 255 387 384 384 384 387 341 433> 655 35<358 358>
VStem: 27 68<165 281 165 287.5> 479 68<247.5 364>
LayerCount: 2
Fore
SplineSet
303 580 m 1xec
 255 580 l 1
 341 690 l 1
 387 690 l 1
 433 580 l 1
 384 580 l 1xec
 358 655 l 1xdc
 303 580 l 1xec
326 543 m 0
 480 543 547 435 547 311 c 0
 547 171 458 -14 248 -14 c 0
 94 -14 27 93 27 218 c 0
 27 357 116 543 326 543 c 0
256 35 m 0
 404 35 479 185 479 310 c 0
 479 418 421 493 318 493 c 0
 169 493 95 343 95 219 c 0
 95 111 153 35 256 35 c 0
EndSplineSet
EndChar

StartChar: otilde
Encoding: 245 245 185
Width: 574
GlyphClass: 2
Flags: MW
HStem: -14 49<204.5 330 204.5 353> 493 50<243.5 369.5> 607 40<401.5 411 401.5 416.5> 631 40<295 304.5>
VStem: 27 68<165 281 165 287.5> 249 31<611 611> 426 31<667 667> 479 68<247.5 364>
LayerCount: 2
Fore
SplineSet
300 631 m 0xdd
 290 631 283 626 280 611 c 1
 249 611 l 1
 256 656 275 671 304 671 c 0xdd
 322 671 338 667 363 658 c 0
 386 650 397 647 406 647 c 0
 416 647 423 652 426 667 c 1
 457 667 l 1
 451 622 431 607 402 607 c 0xef
 384 607 368 611 343 620 c 0
 320 628 309 631 300 631 c 0xdd
326 543 m 0
 480 543 547 435 547 311 c 0
 547 171 458 -14 248 -14 c 0
 94 -14 27 93 27 218 c 0
 27 357 116 543 326 543 c 0
256 35 m 0
 404 35 479 185 479 310 c 0
 479 418 421 493 318 493 c 0
 169 493 95 343 95 219 c 0
 95 111 153 35 256 35 c 0
EndSplineSet
EndChar

StartChar: odieresis
Encoding: 246 246 180
Width: 574
GlyphClass: 2
Flags: MW
HStem: -14 49<204.5 330 204.5 353> 493 50<243.5 369.5> 594 73<286.5 294.5 407.5 416>
VStem: 27 68<165 281 165 287.5> 254 73<625 636> 375 74<625 636> 479 68<247.5 364>
LayerCount: 2
Fore
SplineSet
284 594 m 0
 266 594 254 608 254 625 c 0
 254 647 276 667 297 667 c 0
 315 667 327 654 327 636 c 0
 327 614 305 594 284 594 c 0
405 594 m 0xfe
 387 594 375 608 375 625 c 0
 375 647 397 667 418 667 c 0
 436 667 449 654 449 636 c 0
 449 614 427 594 405 594 c 0xfe
326 543 m 0xfa
 480 543 547 435 547 311 c 0
 547 171 458 -14 248 -14 c 0
 94 -14 27 93 27 218 c 0
 27 357 116 543 326 543 c 0xfa
256 35 m 0
 404 35 479 185 479 310 c 0
 479 418 421 493 318 493 c 0
 169 493 95 343 95 219 c 0
 95 111 153 35 256 35 c 0
EndSplineSet
EndChar

StartChar: divide
Encoding: 247 247 291
Width: 561
Flags: MW
HStem: 114 90<245.5 258> 297 43<76 481 68 488> 430 90<301 313.5>
VStem: 206 91<152 165> 262 91<469 482>
LayerCount: 2
Fore
SplineSet
315 520 m 0x68
 338 520 353 505 353 484 c 0
 353 454 328 430 299 430 c 0
 276 430 262 446 262 467 c 0
 262 497 287 520 315 520 c 0x68
481 297 m 1
 68 297 l 1
 76 340 l 1
 488 340 l 1
 481 297 l 1
260 204 m 0xd0
 283 204 297 188 297 167 c 0
 297 137 272 114 244 114 c 0
 221 114 206 129 206 150 c 0
 206 180 231 204 260 204 c 0xd0
EndSplineSet
EndChar

StartChar: oslash
Encoding: 248 248 184
Width: 622
GlyphClass: 2
Flags: MW
HStem: -14 49<240 343 240 365.5> 493 50<256 360>
VStem: 40 67<203.5 281 203.5 287.5> 491 68<247.5 324>
LayerCount: 2
Fore
SplineSet
629 513 m 1
 533 432 l 1
 551 396 559 355 559 311 c 0
 559 171 471 -14 260 -14 c 0
 182 -14 127 13 91 56 c 1
 9 -14 l 1
 -17 17 l 1
 69 90 l 1
 49 127 40 171 40 218 c 0
 40 357 128 543 338 543 c 0
 419 543 476 513 512 467 c 1
 603 544 l 1
 629 513 l 1
107 219 m 0
 107 188 112 159 121 134 c 1
 462 424 l 1
 435 467 390 493 330 493 c 0
 182 493 107 343 107 219 c 0
491 310 m 0
 491 338 487 363 479 386 c 1
 140 98 l 1
 167 58 211 35 269 35 c 0
 417 35 491 185 491 310 c 0
EndSplineSet
EndChar

StartChar: ugrave
Encoding: 249 249 209
Width: 566
GlyphClass: 2
Flags: MW
HStem: -14 50 0 21G<386 448 386 386> 509 20G<113 175 175 175 478 540 540 540> 580 110<256 316 256 358>
VStem: 47 65<110.5 140>
LayerCount: 2
Fore
SplineSet
316 580 m 1xb8
 256 690 l 1
 316 690 l 1
 358 580 l 1
 316 580 l 1xb8
540 529 m 1
 448 0 l 1
 386 0 l 1x78
 404 102 l 1
 364 43 l 1
 314 0 264 -14 206 -14 c 0
 101 -14 47 40 47 125 c 0
 47 155 49 175 60 233 c 2
 113 529 l 1
 175 529 l 1
 123 240 l 2
 115 195 112 166 112 141 c 0
 112 80 144 35 226 36 c 0
 317 38 403 101 432 266 c 2
 478 529 l 1
 540 529 l 1
EndSplineSet
EndChar

StartChar: uacute
Encoding: 250 250 206
Width: 566
GlyphClass: 2
Flags: MW
HStem: -14 50 0 21G<386 448 386 386> 509 20G<113 175 175 175 478 540 540 540> 580 110<307 448 307 448>
VStem: 47 65<110.5 140>
LayerCount: 2
Fore
SplineSet
349 580 m 1xb8
 307 580 l 1
 388 690 l 1
 448 690 l 1
 349 580 l 1xb8
540 529 m 1
 448 0 l 1
 386 0 l 1x78
 404 102 l 1
 364 43 l 1
 314 0 264 -14 206 -14 c 0
 101 -14 47 40 47 125 c 0
 47 155 49 175 60 233 c 2
 113 529 l 1
 175 529 l 1
 123 240 l 2
 115 195 112 166 112 141 c 0
 112 80 144 35 226 36 c 0
 317 38 403 101 432 266 c 2
 478 529 l 1
 540 529 l 1
EndSplineSet
EndChar

StartChar: ucircumflex
Encoding: 251 251 207
Width: 566
GlyphClass: 2
Flags: MW
HStem: -14 50 0 21G<386 448 386 386> 509 20G<113 175 175 175 478 540 540 540> 580 110<245 377 245 377 374 374 374 377 331 423> 655 35<348 348>
VStem: 47 65<110.5 140>
LayerCount: 2
Fore
SplineSet
293 580 m 1xb4
 245 580 l 1
 331 690 l 1
 377 690 l 1
 423 580 l 1
 374 580 l 1xb4
 348 655 l 1xac
 293 580 l 1xb4
540 529 m 1
 448 0 l 1
 386 0 l 1x74
 404 102 l 1
 364 43 l 1
 314 0 264 -14 206 -14 c 0
 101 -14 47 40 47 125 c 0
 47 155 49 175 60 233 c 2
 113 529 l 1
 175 529 l 1
 123 240 l 2
 115 195 112 166 112 141 c 0
 112 80 144 35 226 36 c 0
 317 38 403 101 432 266 c 2
 478 529 l 1
 540 529 l 1
EndSplineSet
EndChar

StartChar: udieresis
Encoding: 252 252 208
Width: 566
GlyphClass: 2
Flags: MW
HStem: -14 50 0 21G<386 448 386 386> 509 20G<113 175 175 175 478 540 540 540> 594 73<277.5 285.5 398.5 407>
VStem: 47 65<110.5 140> 245 73<625 636> 366 74<625 636>
LayerCount: 2
Fore
SplineSet
275 594 m 0xbe
 257 594 245 608 245 625 c 0
 245 647 267 667 288 667 c 0
 306 667 318 654 318 636 c 0
 318 614 296 594 275 594 c 0xbe
396 594 m 0
 378 594 366 608 366 625 c 0
 366 647 388 667 409 667 c 0
 427 667 440 654 440 636 c 0
 440 614 418 594 396 594 c 0
540 529 m 1
 448 0 l 1
 386 0 l 1x7e
 404 102 l 1
 364 43 l 1
 314 0 264 -14 206 -14 c 0
 101 -14 47 40 47 125 c 0
 47 155 49 175 60 233 c 2
 113 529 l 1
 175 529 l 1
 123 240 l 2
 115 195 112 166 112 141 c 0
 112 80 144 35 226 36 c 0
 317 38 403 101 432 266 c 2
 478 529 l 1
 540 529 l 1
EndSplineSet
EndChar

StartChar: thorn
Encoding: 254 254 188
Width: 589
GlyphClass: 2
Flags: MW
HStem: -14 49<230.5 341.5 208 362> 493 50<339.5 400.5> 715 20G<158 220 220 220>
VStem: 106 20.62 496 67<254 374>
LayerCount: 2
Fore
SplineSet
370 543 m 0
 496 543 563 450 563 328 c 0
 563 164 467 -14 257 -14 c 0
 204 -14 155 5 128 39 c 1
 106 98 l 1
 54 -196 l 1
 -8 -196 l 1
 158 735 l 1
 220 735 l 1
 166 432 l 1
 211 489 l 1
 253 525 309 543 370 543 c 0
265 35 m 0
 418 35 496 183 496 325 c 0
 496 423 448 493 353 493 c 0
 259 493 167 436 138 277 c 1
 131 237 l 2
 112 128 151 35 265 35 c 0
EndSplineSet
EndChar

StartChar: ydieresis
Encoding: 255 255 224
Width: 486
GlyphClass: 2
Flags: MW
HStem: -210 52<-1 30 -1 45> 509 20G<43 113 113 113 459 530 530 530> 594 73<236.5 244.5 357.5 366>
VStem: 204 73<625 636> 325 74<625 636>
LayerCount: 2
Fore
SplineSet
234 594 m 0
 216 594 204 608 204 625 c 0
 204 647 226 667 247 667 c 0
 265 667 277 654 277 636 c 0
 277 614 255 594 234 594 c 0
355 594 m 0
 337 594 325 608 325 625 c 0
 325 647 347 667 368 667 c 0
 386 667 399 654 399 636 c 0
 399 614 377 594 355 594 c 0
530 529 m 1
 233 0 l 2
 137 -171 87 -210 3 -210 c 0
 -11 -210 -23 -209 -35 -207 c 1
 -27 -155 l 1
 -15 -158 -6 -158 4 -158 c 0
 56 -158 94 -132 145 -40 c 1
 157 -19 l 1
 43 529 l 1
 113 529 l 1
 201 47 l 1
 459 529 l 1
 530 529 l 1
EndSplineSet
EndChar

StartChar: Abreve
Encoding: 258 258 3
Width: 636
GlyphClass: 2
Flags: MW
HStem: 0 21G<-15 57 -15 -15 511 511 511 578> 253 52<220 458 220 467 192 458> 640 50<399 399> 722 42<405.5 439 405.5 448>
VStem: 335.77 41.23
LayerCount: 2
Fore
SplineSet
415 722 m 0
 350 722 328 768 338 830 c 1
 377 830 l 1
 371 782 389 764 422 764 c 0
 456 764 482 784 493 830 c 1
 533 830 l 1
 519 760 481 722 415 722 c 0
467 253 m 1
 192 253 l 1
 57 0 l 1
 -15 0 l 1
 362 690 l 1
 451 690 l 1
 578 0 l 1
 511 0 l 1
 467 253 l 1
458 305 m 1
 399 640 l 1
 220 305 l 1
 458 305 l 1
EndSplineSet
Position2: "'cpsp' Capital Spacing in Latin lookup 0 subtable" dx=5 dy=0 dh=10 dv=0
EndChar

StartChar: Aogonek
Encoding: 260 260 8
Width: 636
GlyphClass: 2
Flags: MW
HStem: -223 41<418 476.5> 0 21G<-15 57 -15 -15 558 578 558 558> 253 52<220 458 220 467 192 458> 640 50<399 399>
VStem: 366 63<-155 -124.5>
LayerCount: 2
Fore
SplineSet
578 0 m 1
 558 0 l 1
 478 -25 429 -88 429 -140 c 0
 429 -170 443 -182 466 -182 c 0
 487 -182 507 -175 529 -158 c 1
 522 -195 l 1
 499 -213 470 -223 436 -223 c 0
 400 -223 366 -205 366 -156 c 0
 366 -93 414 -30 509 9 c 1
 467 253 l 1
 192 253 l 1
 57 0 l 1
 -15 0 l 1
 362 690 l 1
 451 690 l 1
 578 0 l 1
458 305 m 1
 399 640 l 1
 220 305 l 1
 458 305 l 1
EndSplineSet
Position2: "'cpsp' Capital Spacing in Latin lookup 0 subtable" dx=5 dy=0 dh=10 dv=0
EndChar

StartChar: aogonek
Encoding: 261 261 122
Width: 502
GlyphClass: 2
Flags: MW
HStem: -223 41<254 312.5> -14 49<158.5 194> 0 21G<394 408 394 394> 269.26 46.08 493 50<262.5 341>
VStem: 19 67<96 179 96 196.5> 202 63<-155 -124.5> 350 58 404 63<403 431>
LayerCount: 2
Fore
SplineSet
307 543 m 0x5e80
 417 543 467 490 467 413 c 0
 467 393 463 367 458 335 c 2x5e80
 424 148 l 2
 416 101 412 63 408 0 c 1
 394 0 l 1x3f
 314 -25 265 -88 265 -140 c 0
 265 -170 279 -182 302 -182 c 0
 323 -182 343 -175 365 -158 c 1
 358 -195 l 1
 335 -213 306 -223 272 -223 c 0
 236 -223 202 -205 202 -156 c 0
 202 -93 250 -30 346 10 c 1
 354 95 l 1
 319 46 l 1xdf
 280 5 226 -14 162 -14 c 0
 87 -14 19 28 19 119 c 0
 19 274 190 328 392 313 c 1
 395 333 l 1
 402 370 404 389 404 405 c 0
 404 457 377 493 305 493 c 0
 220 493 165 454 144 372 c 1
 80 372 l 1
 102 476 188 543 307 543 c 0x5e80
189 35 m 0
 273 35 356 111 373 204 c 2
 384 266 l 1
 214 283 86 233 86 125 c 0
 86 67 128 35 189 35 c 0
EndSplineSet
EndChar

StartChar: cdotaccent
Encoding: 267 267 131
Width: 526
GlyphClass: 2
Flags: MW
HStem: -14 49<191 269.5 191 280> 494 49<247.5 355> 601 84<329.5 342.5>
VStem: 25 67<144.5 284.5 144.5 286.5> 293 85<636 650> 443 65<356 412>
AnchorPoint: "Anchor-0" 217 0 basechar 0
LayerCount: 2
Fore
SplineSet
343 685 m 0
 364 685 378 669 378 650 c 0
 378 622 356 601 329 601 c 0
 308 601 293 617 293 636 c 0
 293 664 316 685 343 685 c 0
324 543 m 0
 446 543 508 468 508 356 c 1
 443 356 l 1
 441 445 398 494 312 494 c 0
 183 494 92 366 92 203 c 0
 92 86 153 35 229 35 c 0
 310 35 376 80 412 165 c 1
 476 165 l 1
 427 46 341 -14 219 -14 c 0
 106 -14 25 61 25 201 c 0
 25 372 130 543 324 543 c 0
EndSplineSet
EndChar

StartChar: Ccaron
Encoding: 268 268 15
Width: 709
GlyphClass: 2
Flags: MW
HStem: -14 50<270.5 394 270.5 405.5> 654 50<350.5 495> 736 94<377 427 377 474>
VStem: 61 69 625 63<465 475 475 536>
AnchorPoint: "Anchor-0" 264 0 basechar 0
LayerCount: 2
Fore
SplineSet
427 736 m 1
 377 830 l 1
 427 830 l 1
 455 766 l 1
 504 830 l 1
 557 830 l 1
 474 736 l 1
 427 736 l 1
445 704 m 0
 611 704 694 606 688 475 c 1
 687 465 l 1
 625 465 l 1
 625 475 l 2
 625 597 557 654 433 654 c 0
 268 654 130 500 130 278 c 0
 130 115 211 36 330 36 c 0
 458 36 534 114 575 219 c 2
 579 229 l 1
 641 229 l 1
 638 219 l 1
 595 87 493 -14 318 -14 c 0
 155 -14 60 95 61 270 c 1
 60 524 229 704 445 704 c 0
EndSplineSet
Position2: "'cpsp' Capital Spacing in Latin lookup 0 subtable" dx=5 dy=0 dh=10 dv=0
EndChar

StartChar: Dcaron
Encoding: 270 270 20
Width: 696
GlyphClass: 2
Flags: MW
HStem: 0 52<114 225> 638 52<218 343 218 218> 736 94<325 375 325 422>
VStem: 603 68<315 471.5>
LayerCount: 2
Fore
SplineSet
375 736 m 1
 325 830 l 1
 375 830 l 1
 403 766 l 1
 452 830 l 1
 505 830 l 1
 422 736 l 1
 375 736 l 1
428 687 m 0
 559 676 671 586 671 397 c 0
 671 210 544 23 314 3 c 0
 278 0 258 0 225 0 c 2
 43 0 l 1
 165 690 l 1
 347 690 l 2
 382 690 398 690 428 687 c 0
320 56 m 0
 511 79 603 235 603 395 c 0
 603 548 522 623 418 635 c 0
 396 638 377 638 343 638 c 2
 218 638 l 1
 114 52 l 1
 239 52 l 2
 270 52 294 53 320 56 c 0
EndSplineSet
Position2: "'cpsp' Capital Spacing in Latin lookup 0 subtable" dx=5 dy=0 dh=10 dv=0
EndChar

StartChar: Dcroat
Encoding: 272 272 21
Width: 696
GlyphClass: 2
Flags: MW
HStem: 0 52<114 225> 312 43<24 98 17 106 168 309> 638 52<218 343 218 218>
VStem: 603 68<315 471.5>
LayerCount: 2
Fore
SplineSet
428 687 m 0
 559 676 671 586 671 397 c 0
 671 210 544 23 314 3 c 0
 278 0 258 0 225 0 c 2
 43 0 l 1
 98 312 l 1
 17 312 l 1
 24 355 l 1
 106 355 l 1
 165 690 l 1
 347 690 l 2
 382 690 398 690 428 687 c 0
320 56 m 0
 511 79 603 235 603 395 c 0
 603 548 522 623 418 635 c 0
 396 638 377 638 343 638 c 2
 218 638 l 1
 168 355 l 1
 316 355 l 1
 309 312 l 1
 160 312 l 1
 114 52 l 1
 239 52 l 2
 270 52 294 53 320 56 c 0
EndSplineSet
Position2: "'cpsp' Capital Spacing in Latin lookup 0 subtable" dx=5 dy=0 dh=10 dv=0
EndChar

StartChar: dcroat
Encoding: 273 273 135
Width: 591
GlyphClass: 2
Flags: MW
HStem: -14 49<188.5 250.5> 0 21G<406 468 406 406> 493 50<247.5 356.5 227.5 379> 602 43<404 513 397 520 582 618> 602 133<397 598 574 598 536 618 574 574>
VStem: 26 67<155 276 155 283.5> 462.36 19.64
LayerCount: 2
Fore
SplineSet
618 602 m 1xae
 574 602 l 1
 468 0 l 1
 406 0 l 1
 423 97 l 1x6e
 378 40 l 1
 336 3 282 -14 219 -14 c 0
 93 -14 26 79 26 201 c 0
 26 366 127 543 328 543 c 0
 385 543 434 523 461 486 c 1
 482 431 l 1
 513 602 l 1
 397 602 l 1xae
 404 645 l 1
 520 645 l 1xb6
 536 735 l 1
 598 735 l 1xae
 582 645 l 1
 626 645 l 1xb6
 618 602 l 1xae
451 252 m 2
 458 292 l 2
 477 400 438 493 320 493 c 0
 175 493 93 348 93 204 c 0
 93 106 141 35 236 35 c 0xae
 330 35 422 92 451 252 c 2
EndSplineSet
EndChar

StartChar: emacron
Encoding: 275 275 143
Width: 533
GlyphClass: 2
Flags: MW
HStem: -14 49<192.5 267 192.5 271> 246 49<104 442 104 495 95 442> 493 50<248 347.5> 610 40<239 433 231 441>
VStem: 25 67<141.5 207 141.5 272.5> 445 63<334 393.5>
AnchorPoint: "Anchor-0" 218 0 basechar 0
LayerCount: 2
Fore
SplineSet
433 610 m 1
 231 610 l 1
 239 650 l 1
 441 650 l 1
 433 610 l 1
495 246 m 1
 95 246 l 1
 93 230 92 214 92 200 c 0
 92 83 155 35 230 35 c 0
 304 35 376 80 411 167 c 1
 475 167 l 1
 427 41 324 -14 218 -14 c 0
 104 -14 25 59 25 198 c 0
 25 347 114 543 317 543 c 0
 443 543 508 459 508 344 c 0
 508 312 503 273 495 246 c 1
307 493 m 0
 189 493 128 393 104 295 c 1
 442 295 l 1
 444 312 445 327 445 341 c 0
 445 446 388 493 307 493 c 0
EndSplineSet
EndChar

StartChar: Eogonek
Encoding: 280 280 30
Width: 572
GlyphClass: 2
Flags: MW
HStem: -223 41<352 410.5> 0 51<114 422 492 492> 319 52<171 511 161 520> 639 51<218 218 218 593>
VStem: 300 63<-155 -127>
AnchorPoint: "Anchor-0" 244 0 basechar 0
LayerCount: 2
Fore
SplineSet
218 639 m 1
 171 371 l 1
 520 371 l 1
 511 319 l 1
 161 319 l 1
 114 51 l 1
 500 51 l 1
 492 0 l 1
 412 -25 363 -88 363 -140 c 0
 363 -170 377 -182 400 -182 c 0
 421 -182 441 -175 463 -158 c 1
 456 -195 l 1
 433 -213 404 -223 370 -223 c 0
 334 -223 300 -205 300 -156 c 0
 300 -98 341 -40 422 0 c 1
 43 0 l 1
 165 690 l 1
 603 690 l 1
 593 639 l 1
 218 639 l 1
EndSplineSet
Position2: "'cpsp' Capital Spacing in Latin lookup 0 subtable" dx=5 dy=0 dh=10 dv=0
EndChar

StartChar: eogonek
Encoding: 281 281 144
Width: 533
GlyphClass: 2
Flags: MW
HStem: -223 41<155 213.5> -13 48 246 49<104 442 104 495 95 442> 493 50<248 347.5>
VStem: 25 67<141.5 207 141.5 272.5> 103 63<-155 -130> 445 63<334 393.5>
AnchorPoint: "Anchor-0" 218 0 basechar 0
LayerCount: 2
Fore
SplineSet
495 246 m 1
 95 246 l 1
 93 230 92 214 92 200 c 0xfa
 92 83 155 35 230 35 c 0
 304 35 376 80 411 167 c 1
 475 167 l 1
 435 62 357 6 270 -9 c 1
 205 -39 166 -94 166 -140 c 0
 166 -170 180 -182 203 -182 c 0
 224 -182 244 -175 266 -158 c 1
 259 -195 l 1
 236 -213 207 -223 173 -223 c 0
 137 -223 103 -205 103 -156 c 0xfe
 103 -104 135 -52 200 -13 c 1
 96 -6 25 66 25 198 c 0
 25 347 114 543 317 543 c 0
 443 543 508 459 508 344 c 0
 508 312 503 273 495 246 c 1
307 493 m 0
 189 493 128 393 104 295 c 1
 442 295 l 1
 444 312 445 327 445 341 c 0
 445 446 388 493 307 493 c 0
EndSplineSet
EndChar

StartChar: Ecaron
Encoding: 282 282 24
Width: 572
GlyphClass: 2
Flags: MW
HStem: 0 51<114 491> 319 52<171 511 161 520> 639 51<218 218 218 593> 639 191<218 371 321 371 448 501 321 593>
VStem: 43 560
AnchorPoint: "Anchor-0" 244 0 basechar 0
LayerCount: 2
Fore
SplineSet
371 736 m 1xd8
 321 830 l 1
 371 830 l 1
 399 766 l 1
 448 830 l 1
 501 830 l 1
 418 736 l 1
 371 736 l 1xd8
218 639 m 1xe8
 171 371 l 1
 520 371 l 1
 511 319 l 1
 161 319 l 1
 114 51 l 1
 500 51 l 1
 491 0 l 1
 43 0 l 1
 165 690 l 1
 603 690 l 1
 593 639 l 1
 218 639 l 1xe8
EndSplineSet
Position2: "'cpsp' Capital Spacing in Latin lookup 0 subtable" dx=5 dy=0 dh=10 dv=0
EndChar

StartChar: Gbreve
Encoding: 286 286 33
Width: 746
GlyphClass: 2
Flags: MW
HStem: -14 50<267 355.5> 0 21G<545 601 545 545> 272 51<408 587 399 658> 654 50<361 506.5> 722 42<499.5 533 499.5 542>
VStem: 60 70<202.5 389 202.5 394> 429.77 41.23 627 63<465 475 475 535.5>
AnchorPoint: "Anchor-0" 285 0 basechar 0
LayerCount: 2
Fore
SplineSet
509 722 m 0xbf
 444 722 422 768 432 830 c 1
 471 830 l 1
 465 782 483 764 516 764 c 0
 550 764 576 784 587 830 c 1
 627 830 l 1
 613 760 575 722 509 722 c 0xbf
457 704 m 0xb7
 623 704 696 606 690 475 c 1
 689 465 l 1
 627 465 l 1
 627 475 l 2
 627 596 568 654 445 654 c 0
 277 654 130 500 130 278 c 0
 130 127 207 36 327 36 c 0xb7
 436 36 559 116 587 272 c 1
 399 272 l 1
 408 323 l 1
 658 323 l 1
 601 0 l 1
 545 0 l 1x77
 570 143 l 1
 532 80 l 1
 475 16 397 -14 314 -14 c 0
 151 -14 60 102 60 270 c 0
 60 518 237 704 457 704 c 0xb7
EndSplineSet
Position2: "'cpsp' Capital Spacing in Latin lookup 0 subtable" dx=5 dy=0 dh=10 dv=0
EndChar

StartChar: gbreve
Encoding: 287 287 147
Width: 587
GlyphClass: 2
Flags: MW
HStem: -214 49<156 257 156 269> -14 49<188.5 250.5> 493 50<247.5 356.5 227.5 379> 510 20G<500 562 562 562> 568 42<335.5 374.5 335.5 382.5> 670 20G<273 313 313 313 429 469 469 469>
VStem: -3 63<-45 -45> 26 67<155 276 155 283.5> 269.68 43.32 451 7.5 462.36 20.64
LayerCount: 2
Fore
SplineSet
349 568 m 0xdda0
 274 568 262 625 273 690 c 1
 313 690 l 1
 307 640 314 610 357 610 c 0
 392 610 417 634 429 690 c 1
 469 690 l 1
 454 611 416 568 349 568 c 0xdda0
562 530 m 1
 492 134 l 2
 483 82 476 41 469 10 c 0
 440 -131 347 -214 191 -214 c 0
 73 -214 -8 -157 -3 -45 c 1
 -2 -33 l 1
 61 -33 l 1
 60 -45 l 1xe6a0
 58 -124 111 -165 201 -165 c 0
 313 -165 384 -102 407 7 c 1
 412 36 417 57 422 85 c 2
 424 98 l 1
 378 40 l 1
 336 3 282 -14 219 -14 c 0
 93 -14 26 79 26 201 c 0
 26 366 127 543 328 543 c 0
 385 543 434 523 461 486 c 1xe5a0
 483 430 l 1
 500 530 l 1
 562 530 l 1
236 35 m 0
 330 35 422 92 451 252 c 1
 451 249 l 1xe5c0
 459 295 l 1
 458 292 l 1
 477 400 438 493 320 493 c 0
 175 493 93 348 93 204 c 0xe5a0
 93 106 141 35 236 35 c 0
EndSplineSet
EndChar

StartChar: Gdotaccent
Encoding: 288 288 35
Width: 746
GlyphClass: 2
Flags: MW
HStem: -14 50<267 355.5> 0 21G<545 601 545 545> 272 51<408 587 399 658> 654 50<361 506.5> 747 72<516 524.5>
VStem: 60 70<202.5 389 202.5 394> 483 74<778 788.5> 627 63<465 475 475 535.5>
AnchorPoint: "Anchor-0" 285 0 basechar 0
LayerCount: 2
Fore
SplineSet
514 747 m 0xbf
 495 747 483 760 483 777 c 0
 483 800 505 819 527 819 c 0
 545 819 557 806 557 789 c 0
 557 767 535 747 514 747 c 0xbf
457 704 m 0
 623 704 696 606 690 475 c 1
 689 465 l 1
 627 465 l 1
 627 475 l 2
 627 596 568 654 445 654 c 0
 277 654 130 500 130 278 c 0
 130 127 207 36 327 36 c 0xbf
 436 36 559 116 587 272 c 1
 399 272 l 1
 408 323 l 1
 658 323 l 1
 601 0 l 1
 545 0 l 1x7f
 570 143 l 1
 532 80 l 1
 475 16 397 -14 314 -14 c 0
 151 -14 60 102 60 270 c 0
 60 518 237 704 457 704 c 0
EndSplineSet
Position2: "'cpsp' Capital Spacing in Latin lookup 0 subtable" dx=5 dy=0 dh=10 dv=0
EndChar

StartChar: gdotaccent
Encoding: 289 289 149
Width: 587
GlyphClass: 2
Flags: MW
HStem: -214 49<156 257 156 269> -14 49<188.5 250.5> 493 50<247.5 356.5 227.5 379> 510 20G<500 562 562 562> 601 84<356.5 369.5>
VStem: -3 63<-45 -45> 26 67<155 276 155 283.5> 320 85<636 650> 451 7.5 462.36 20.64
LayerCount: 2
Fore
SplineSet
356 601 m 0xeb40
 335 601 320 617 320 636 c 0
 320 664 343 685 370 685 c 0
 391 685 405 669 405 650 c 0
 405 622 383 601 356 601 c 0xeb40
562 530 m 1xdb40
 492 134 l 2
 483 82 476 41 469 10 c 0
 440 -131 347 -214 191 -214 c 0
 73 -214 -8 -157 -3 -45 c 1
 -2 -33 l 1
 61 -33 l 1
 60 -45 l 1xed40
 58 -124 111 -165 201 -165 c 0
 313 -165 384 -102 407 7 c 1
 412 36 417 57 422 85 c 2
 424 98 l 1
 378 40 l 1
 336 3 282 -14 219 -14 c 0
 93 -14 26 79 26 201 c 0
 26 366 127 543 328 543 c 0
 385 543 434 523 461 486 c 1xeb40
 483 430 l 1
 500 530 l 1
 562 530 l 1xdb40
236 35 m 0
 330 35 422 92 451 252 c 1
 451 249 l 1xeb80
 459 295 l 1
 458 292 l 1
 477 400 438 493 320 493 c 0
 175 493 93 348 93 204 c 0xeb40
 93 106 141 35 236 35 c 0
EndSplineSet
EndChar

StartChar: Gcommaaccent
Encoding: 290 290 34
Width: 746
GlyphClass: 2
Flags: MW
HStem: -182 131<200 309 200 309> -14 50<267 355.5> 0 21G<545 601 545 545> 272 51<408 587 399 658> 654 50<361 506.5>
VStem: 60 70<202.5 389 202.5 394> 627 63<465 475 475 535.5>
AnchorPoint: "Anchor-0" 285 0 basechar 0
LayerCount: 2
Fore
SplineSet
457 704 m 0x5e
 623 704 696 606 690 475 c 1
 689 465 l 1
 627 465 l 1
 627 475 l 2
 627 596 568 654 445 654 c 0
 277 654 130 500 130 278 c 0
 130 127 207 36 327 36 c 0x5e
 436 36 559 116 587 272 c 1
 399 272 l 1
 408 323 l 1
 658 323 l 1
 601 0 l 1
 545 0 l 1x3e
 570 143 l 1
 532 80 l 1
 475 16 397 -14 314 -14 c 0
 151 -14 60 102 60 270 c 0
 60 518 237 704 457 704 c 0x5e
255 -51 m 1xde
 309 -51 l 1
 309 -57 l 1
 236 -182 l 1
 200 -182 l 1
 255 -51 l 1xde
EndSplineSet
Position2: "'cpsp' Capital Spacing in Latin lookup 0 subtable" dx=5 dy=0 dh=10 dv=0
EndChar

StartChar: Hbar
Encoding: 294 294 37
Width: 687
GlyphClass: 2
Flags: MW
HStem: 0 21G<43 105 43 43 509 571 509 509> 312 53<170 564 160 574> 509 43<101 133 93 141 203 599 669 701> 509 181<93 227 93 227 195 195 195 227 165 599 661 693 661 661>
VStem: 43 666<0 552>
LayerCount: 2
Fore
SplineSet
701 509 m 1xe8
 661 509 l 1
 571 0 l 1
 509 0 l 1
 564 312 l 1
 160 312 l 1
 105 0 l 1
 43 0 l 1
 133 509 l 1
 93 509 l 1
 101 552 l 1
 141 552 l 1xe8
 165 690 l 1
 227 690 l 1xd8
 203 552 l 1
 607 552 l 1xe8
 631 690 l 1
 693 690 l 1xd8
 669 552 l 1
 709 552 l 1
 701 509 l 1xe8
599 509 m 1
 195 509 l 1
 170 365 l 1
 574 365 l 1
 599 509 l 1
EndSplineSet
Position2: "'cpsp' Capital Spacing in Latin lookup 0 subtable" dx=5 dy=0 dh=10 dv=0
EndChar

StartChar: hbar
Encoding: 295 295 151
Width: 588
GlyphClass: 2
Flags: MW
HStem: 0 21G<44 106 44 44 409 471 409 409> 492 51 602 43<100 150 92 157 219 314> 602 138<92 236 92 236 212 212 212 236 174 314>
VStem: 472 65<388.5 418>
LayerCount: 2
Fore
SplineSet
378 543 m 0xd8
 483 543 537 489 537 404 c 0
 537 373 535 353 524 296 c 2
 471 0 l 1
 409 0 l 1
 461 289 l 2
 469 333 472 362 472 387 c 0
 472 449 440 493 358 492 c 0
 267 491 181 428 152 263 c 2
 106 0 l 1
 44 0 l 1
 150 602 l 1
 92 602 l 1xd8
 100 645 l 1
 157 645 l 1xe8
 174 740 l 1
 236 740 l 1xd8
 219 645 l 1
 322 645 l 1xe8
 314 602 l 1
 212 602 l 1
 181 428 l 1
 220 486 l 1
 270 528 320 543 378 543 c 0xd8
EndSplineSet
EndChar

StartChar: Imacron
Encoding: 298 298 45
Width: 221
GlyphClass: 2
Flags: MW
HStem: 0 21G<43 105 43 43> 670 20G<165 227 227 227> 763 40<115 309 107 317>
VStem: 43 274
LayerCount: 2
Fore
SplineSet
309 763 m 1
 107 763 l 1
 115 803 l 1
 317 803 l 1
 309 763 l 1
105 0 m 1
 43 0 l 1
 165 690 l 1
 227 690 l 1
 105 0 l 1
EndSplineSet
Position2: "'cpsp' Capital Spacing in Latin lookup 0 subtable" dx=5 dy=0 dh=10 dv=0
EndChar

StartChar: imacron
Encoding: 299 299 159
Width: 208
GlyphClass: 2
Flags: MW
HStem: 0 21G<27 89 27 27> 509 20G<120 182 182 182> 610 40<73 267 65 275>
VStem: 27 248
LayerCount: 2
Fore
SplineSet
267 610 m 1
 65 610 l 1
 73 650 l 1
 275 650 l 1
 267 610 l 1
89 0 m 1
 27 0 l 1
 120 529 l 1
 182 529 l 1
 89 0 l 1
EndSplineSet
EndChar

StartChar: Iogonek
Encoding: 302 302 46
Width: 221
GlyphClass: 2
Flags: MW
HStem: -223 41<-50 8.5> 0 21G<90 105 90 90> 670 20G<165 227 227 227>
VStem: -102 62<-155 -124.5>
LayerCount: 2
Fore
SplineSet
227 690 m 1
 105 0 l 1
 90 0 l 1
 10 -25 -40 -88 -40 -140 c 0
 -40 -170 -25 -182 -2 -182 c 0
 19 -182 39 -175 61 -158 c 1
 54 -195 l 1
 31 -213 2 -223 -32 -223 c 0
 -68 -223 -102 -205 -102 -156 c 0
 -102 -93 -53 -28 45 11 c 1
 165 690 l 1
 227 690 l 1
EndSplineSet
Position2: "'cpsp' Capital Spacing in Latin lookup 0 subtable" dx=5 dy=0 dh=10 dv=0
EndChar

StartChar: iogonek
Encoding: 303 303 160
Width: 208
GlyphClass: 2
Flags: MW
HStem: -223 41<-65 -6.5> 0 21G<75 89 75 75> 509 20G<120 182 182 182> 601 84<165.5 178.5>
VStem: -117 62<-155 -124.5> 129 85<636 650>
LayerCount: 2
Fore
SplineSet
179 685 m 0
 200 685 214 669 214 650 c 0
 214 622 192 601 165 601 c 0
 144 601 129 617 129 636 c 0
 129 664 152 685 179 685 c 0
120 529 m 1
 182 529 l 1
 89 0 l 1
 75 0 l 1
 -5 -25 -55 -88 -55 -140 c 0
 -55 -170 -40 -182 -17 -182 c 0
 4 -182 24 -175 46 -158 c 1
 39 -195 l 1
 16 -213 -13 -223 -47 -223 c 0
 -83 -223 -117 -205 -117 -156 c 0
 -117 -93 -68 -29 29 10 c 1
 120 529 l 1
EndSplineSet
EndChar

StartChar: Idotaccent
Encoding: 304 304 43
Width: 221
GlyphClass: 2
Flags: MW
HStem: 0 21G<43 105 43 43> 670 20G<165 227 227 227> 747 72<208 216.5>
VStem: 175 74<778 788.5>
LayerCount: 2
Fore
SplineSet
219 819 m 0
 237 819 249 806 249 789 c 0
 249 767 227 747 206 747 c 0
 187 747 175 760 175 777 c 0
 175 800 197 819 219 819 c 0
105 0 m 1
 43 0 l 1
 165 690 l 1
 227 690 l 1
 105 0 l 1
EndSplineSet
Position2: "'cpsp' Capital Spacing in Latin lookup 0 subtable" dx=5 dy=0 dh=10 dv=0
EndChar

StartChar: dotlessi
Encoding: 305 305 153
Width: 208
GlyphClass: 2
Flags: MW
HStem: 0 21G<27 89 27 27> 509 20G<120 182 182 182>
VStem: 27 155
LayerCount: 2
Fore
SplineSet
89 0 m 1
 27 0 l 1
 120 529 l 1
 182 529 l 1
 89 0 l 1
EndSplineSet
EndChar

StartChar: IJ
Encoding: 306 306 39
Width: 723
GlyphClass: 2
Flags: MW
HStem: -14 50<382 467.5 382 483.5> 0 21G<43 105 43 43> 670 20G<165 227 227 227 678 740 740 740>
VStem: 236.8 63.59
LayerCount: 2
Fore
SplineSet
105 0 m 1x70
 43 0 l 1
 165 690 l 1
 227 690 l 1
 105 0 l 1x70
740 690 m 1
 665 263 l 2
 660 235 655 210 647 177 c 0
 622 70 553 -14 414 -14 c 0
 294 -14 220 61 240 194 c 1
 245 231 l 1
 307 231 l 1
 303 194 l 1
 288 83 339 36 425 36 c 0xb0
 510 36 563 86 587 181 c 0
 592 202 596 227 603 261 c 1
 678 690 l 1
 740 690 l 1
EndSplineSet
Position2: "'cpsp' Capital Spacing in Latin lookup 0 subtable" dx=5 dy=0 dh=10 dv=0
EndChar

StartChar: ij
Encoding: 307 307 158
Width: 392
GlyphClass: 2
Flags: MW
HStem: -210 54<115 177.5> 0 21G<27 89 27 27> 509 20G<120 182 182 182 322 384 384 384> 601 84<165.5 178.5 363.5 377.5>
VStem: 129 85<636 650> 328 85<636 650>
LayerCount: 2
Fore
SplineSet
179 685 m 0
 200 685 214 669 214 650 c 0
 214 622 192 601 165 601 c 0
 144 601 129 617 129 636 c 0
 129 664 152 685 179 685 c 0
377 685 m 0
 399 685 413 669 413 650 c 0
 413 622 391 601 364 601 c 0
 343 601 328 617 328 636 c 0
 328 664 350 685 377 685 c 0
89 0 m 1
 27 0 l 1
 120 529 l 1
 182 529 l 1
 89 0 l 1
384 529 m 1
 282 -56 l 2
 278 -76 273 -98 268 -116 c 0
 251 -179 211 -210 144 -210 c 0
 130 -210 118 -210 105 -207 c 1
 115 -156 l 1
 165 -164 196 -148 208 -106 c 0
 213 -92 215 -79 220 -57 c 1
 322 529 l 1
 384 529 l 1
EndSplineSet
EndChar

StartChar: Kcommaaccent
Encoding: 310 310 49
Width: 593
GlyphClass: 2
Flags: MW
HStem: -182 131<180 289 180 289> 0 21G<43 105 43 43 452 529 452 452> 670 20G<165 227 227 227 584 662 662 662>
VStem: 43 619
AnchorPoint: "Anchor-0" 265 0 basechar 0
LayerCount: 2
Fore
SplineSet
251 345 m 1
 529 0 l 1
 452 0 l 1
 204 311 l 1
 152 267 l 1
 105 0 l 1
 43 0 l 1
 165 690 l 1
 227 690 l 1
 165 338 l 1
 584 690 l 1
 662 690 l 1
 251 345 l 1
235 -51 m 1
 289 -51 l 1
 289 -57 l 1
 216 -182 l 1
 180 -182 l 1
 235 -51 l 1
EndSplineSet
Position2: "'cpsp' Capital Spacing in Latin lookup 0 subtable" dx=5 dy=0 dh=10 dv=0
EndChar

StartChar: kcommaaccent
Encoding: 311 311 163
Width: 501
GlyphClass: 2
Flags: MW
HStem: -182 131<126 235 126 235> 0 21G<27 89 27 27 370 446 370 370> 509 20G<449 531 531 531> 715 20G<157 219 219 219>
VStem: 27 504
AnchorPoint: "Anchor-0" 211 0 basechar 0
LayerCount: 2
Fore
SplineSet
232 279 m 1
 446 0 l 1
 370 0 l 1
 186 244 l 1
 123 191 l 1
 89 0 l 1
 27 0 l 1
 157 735 l 1
 219 735 l 1
 135 262 l 1
 449 529 l 1
 531 529 l 1
 232 279 l 1
181 -51 m 1
 235 -51 l 1
 235 -57 l 1
 162 -182 l 1
 126 -182 l 1
 181 -51 l 1
EndSplineSet
EndChar

StartChar: Lacute
Encoding: 313 313 51
Width: 556
GlyphClass: 2
Flags: MW
HStem: 0 51<114 491> 670 20G<165 227 227 227> 736 94<180 310 180 310>
VStem: 43 457<0 51>
AnchorPoint: "Anchor-0" 260 0 basechar 0
LayerCount: 2
Fore
SplineSet
222 736 m 1
 180 736 l 1
 250 830 l 1
 310 830 l 1
 222 736 l 1
500 51 m 1
 491 0 l 1
 43 0 l 1
 165 690 l 1
 227 690 l 1
 114 51 l 1
 500 51 l 1
EndSplineSet
Position2: "'cpsp' Capital Spacing in Latin lookup 0 subtable" dx=5 dy=0 dh=10 dv=0
EndChar

StartChar: Lcommaaccent
Encoding: 315 315 53
Width: 556
GlyphClass: 2
Flags: MW
HStem: -182 131<175 284 175 284> 0 51<114 491> 670 20G<165 227 227 227>
VStem: 43 457<0 51>
AnchorPoint: "Anchor-0" 260 0 basechar 0
LayerCount: 2
Fore
SplineSet
500 51 m 1
 491 0 l 1
 43 0 l 1
 165 690 l 1
 227 690 l 1
 114 51 l 1
 500 51 l 1
230 -51 m 1
 284 -51 l 1
 284 -57 l 1
 211 -182 l 1
 175 -182 l 1
 230 -51 l 1
EndSplineSet
Position2: "'cpsp' Capital Spacing in Latin lookup 0 subtable" dx=5 dy=0 dh=10 dv=0
EndChar

StartChar: Ldot
Encoding: 319 319 54
Width: 556
GlyphClass: 2
Flags: MW
HStem: 0 51<114 491> 358 84<355.5 369.5> 670 20G<165 227 227 227>
VStem: 320 85<393 407>
AnchorPoint: "Anchor-0" 260 0 basechar 0
LayerCount: 2
Fore
SplineSet
500 51 m 1
 491 0 l 1
 43 0 l 1
 165 690 l 1
 227 690 l 1
 114 51 l 1
 500 51 l 1
356 358 m 0
 334 358 320 374 320 393 c 0
 320 421 342 442 369 442 c 0
 390 442 405 426 405 407 c 0
 405 379 383 358 356 358 c 0
EndSplineSet
Ligature2: "Ligature Substitution lookup 6 subtable" L periodcentered
Position2: "'cpsp' Capital Spacing in Latin lookup 0 subtable" dx=5 dy=0 dh=10 dv=0
EndChar

StartChar: ldot
Encoding: 320 320 168
Width: 283
GlyphClass: 2
Flags: MW
HStem: -4 49 358 84<244.5 258.5> 715 20G<152 214 214 214>
VStem: 34 67<29 83> 209 85<393 407>
AnchorPoint: "Anchor-0" 73 0 basechar 0
LayerCount: 2
Fore
SplineSet
214 735 m 1
 109 140 l 2
 102 101 101 88 101 78 c 0
 101 47 117 41 156 45 c 1
 148 -1 l 1
 131 -4 114 -4 98 -4 c 0
 61 -4 34 7 34 51 c 0
 34 64 37 81 47 138 c 2
 152 735 l 1
 214 735 l 1
258 442 m 0
 279 442 294 426 294 407 c 0
 294 379 272 358 245 358 c 0
 223 358 209 374 209 393 c 0
 209 421 231 442 258 442 c 0
EndSplineSet
Ligature2: "Ligature Substitution lookup 6 subtable" l periodcentered
EndChar

StartChar: Lslash
Encoding: 321 321 55
Width: 608
GlyphClass: 2
Flags: MW
HStem: 0 51<167 544> 670 20G<218 280 280 280>
VStem: 9 544<51 232>
AnchorPoint: "Anchor-0" 312 0 basechar 0
LayerCount: 2
Fore
SplineSet
553 51 m 1
 544 0 l 1
 96 0 l 1
 150 308 l 1
 9 232 l 1
 18 283 l 1
 160 359 l 1
 218 690 l 1
 280 690 l 1
 228 396 l 1
 371 473 l 1
 362 422 l 1
 219 345 l 1
 167 51 l 1
 553 51 l 1
EndSplineSet
Position2: "'cpsp' Capital Spacing in Latin lookup 0 subtable" dx=5 dy=0 dh=10 dv=0
EndChar

StartChar: lslash
Encoding: 322 322 169
Width: 255
GlyphClass: 2
Flags: MW
HStem: -4 49 715 20G<177 239 239 239>
VStem: 59 66<29 83>
AnchorPoint: "Anchor-0" 97 0 basechar 0
LayerCount: 2
Fore
SplineSet
165 316 m 1
 134 140 l 2
 127 101 125 88 125 78 c 0
 125 47 141 41 180 45 c 1
 172 -1 l 1
 156 -4 139 -4 122 -4 c 0
 85 -4 59 7 59 51 c 0
 59 64 62 81 72 138 c 2
 96 277 l 1
 27 238 l 1
 36 290 l 1
 106 329 l 1
 177 735 l 1
 239 735 l 1
 174 368 l 1
 243 407 l 1
 234 355 l 1
 165 316 l 1
EndSplineSet
EndChar

StartChar: Ncommaaccent
Encoding: 325 325 60
Width: 673
GlyphClass: 2
Flags: MW
HStem: -182 131<215 324 215 324> 0 59<505 505 505 557 462 505> 633 57<215 215>
VStem: 43 636
AnchorPoint: "Anchor-0" 300 0 basechar 0
LayerCount: 2
Fore
SplineSet
679 690 m 1
 557 0 l 1
 462 0 l 1
 215 633 l 1
 105 0 l 1
 43 0 l 1
 165 690 l 1
 260 690 l 1
 505 59 l 1
 617 690 l 1
 679 690 l 1
270 -51 m 1
 324 -51 l 1
 324 -57 l 1
 251 -182 l 1
 215 -182 l 1
 270 -51 l 1
EndSplineSet
Position2: "'cpsp' Capital Spacing in Latin lookup 0 subtable" dx=5 dy=0 dh=10 dv=0
EndChar

StartChar: Ncaron
Encoding: 327 327 59
Width: 673
GlyphClass: 2
Flags: MW
HStem: 0 59<505 505 505 557 462 505> 633 57<215 215> 736 94<358 408 358 455>
VStem: 43 636
AnchorPoint: "Anchor-0" 300 0 basechar 0
LayerCount: 2
Fore
SplineSet
408 736 m 1
 358 830 l 1
 408 830 l 1
 436 766 l 1
 485 830 l 1
 538 830 l 1
 455 736 l 1
 408 736 l 1
679 690 m 1
 557 0 l 1
 462 0 l 1
 215 633 l 1
 105 0 l 1
 43 0 l 1
 165 690 l 1
 260 690 l 1
 505 59 l 1
 617 690 l 1
 679 690 l 1
EndSplineSet
Position2: "'cpsp' Capital Spacing in Latin lookup 0 subtable" dx=5 dy=0 dh=10 dv=0
EndChar

StartChar: ncaron
Encoding: 328 328 173
Width: 571
GlyphClass: 2
Flags: MW
HStem: 0 21G<27 89 27 27 392 454 392 392> 492 51 509 20G<120 182 182 182> 580 110<323 323 323 325 277 369>
VStem: 456 64<388.5 418>
AnchorPoint: "Anchor-0" 237 0 basechar 0
LayerCount: 2
Fore
SplineSet
323 580 m 1xd8
 277 690 l 1
 325 690 l 1
 352 615 l 1
 407 690 l 1
 455 690 l 1
 369 580 l 1
 323 580 l 1xd8
361 543 m 0
 466 543 520 489 520 404 c 0
 520 373 518 353 508 296 c 2
 454 0 l 1
 392 0 l 1
 444 289 l 2
 452 333 456 362 456 387 c 0
 456 449 423 493 341 492 c 0xd8
 251 491 164 428 135 264 c 1
 135 263 l 1
 89 0 l 1
 27 0 l 1
 120 529 l 1
 182 529 l 1xb8
 164 428 l 1
 203 486 l 1
 253 528 303 543 361 543 c 0
EndSplineSet
EndChar

StartChar: Eng
Encoding: 330 330 61
Width: 674
GlyphClass: 2
Flags: MW
HStem: -223 52<368 408.5> 0 21G<44 106 44 44> 625 65<215 215>
VStem: 44 635
LayerCount: 2
Fore
SplineSet
679 690 m 1
 546 -67 l 2
 524 -188 492 -222 368 -223 c 1
 377 -171 l 1
 440 -171 469 -146 480 -83 c 2
 490 -27 l 1
 215 625 l 1
 106 0 l 1
 44 0 l 1
 165 690 l 1
 260 690 l 1
 511 85 l 1
 617 690 l 1
 679 690 l 1
EndSplineSet
Position2: "'cpsp' Capital Spacing in Latin lookup 0 subtable" dx=5 dy=0 dh=10 dv=0
EndChar

StartChar: eng
Encoding: 331 331 175
Width: 571
GlyphClass: 2
Flags: MW
HStem: -174 52<274 314.5> 0 21G<27 89 27 27> 492 51 509 20G<120 182 182 182>
VStem: 456 64<388.5 418>
LayerCount: 2
Fore
SplineSet
361 543 m 0xe8
 466 543 520 489 520 404 c 0
 520 373 518 353 508 296 c 2
 451 -18 l 2
 448 -37 444 -51 440 -65 c 0
 413 -155 363 -173 274 -174 c 1
 283 -122 l 1
 346 -122 375 -99 386 -34 c 2
 444 289 l 2
 452 333 456 362 456 387 c 0
 456 449 423 493 341 492 c 0xe8
 251 491 164 428 135 264 c 1
 135 263 l 1
 89 0 l 1
 27 0 l 1
 120 529 l 1
 182 529 l 1xd8
 164 428 l 1
 203 486 l 1
 253 528 303 543 361 543 c 0xe8
EndSplineSet
EndChar

StartChar: Omacron
Encoding: 332 332 69
Width: 746
GlyphClass: 2
Flags: MW
HStem: -14 50<284.5 450.5 284.5 466.5> 654 50<333 499> 763 40<366 560 358 568>
VStem: 62 68<210 371 210 387> 654 67<319 480.5>
LayerCount: 2
Fore
SplineSet
560 763 m 1
 358 763 l 1
 366 803 l 1
 568 803 l 1
 560 763 l 1
446 704 m 0
 619 704 721 576 721 404 c 0
 721 202 596 -14 337 -14 c 0
 165 -14 62 114 62 286 c 0
 62 488 187 704 446 704 c 0
350 36 m 0
 551 36 654 234 654 404 c 0
 654 557 564 654 434 654 c 0
 232 654 130 456 130 286 c 0
 130 134 219 36 350 36 c 0
EndSplineSet
Position2: "'cpsp' Capital Spacing in Latin lookup 0 subtable" dx=5 dy=0 dh=10 dv=0
EndChar

StartChar: omacron
Encoding: 333 333 183
Width: 574
GlyphClass: 2
Flags: MW
HStem: -14 49<204.5 330 204.5 353> 493 50<243.5 369.5> 610 40<255 449 247 457>
VStem: 27 68<165 281 165 287.5> 479 68<247.5 364>
LayerCount: 2
Fore
SplineSet
449 610 m 1
 247 610 l 1
 255 650 l 1
 457 650 l 1
 449 610 l 1
326 543 m 0
 480 543 547 435 547 311 c 0
 547 171 458 -14 248 -14 c 0
 94 -14 27 93 27 218 c 0
 27 357 116 543 326 543 c 0
256 35 m 0
 404 35 479 185 479 310 c 0
 479 418 421 493 318 493 c 0
 169 493 95 343 95 219 c 0
 95 111 153 35 256 35 c 0
EndSplineSet
EndChar

StartChar: Ohungarumlaut
Encoding: 336 336 68
Width: 746
GlyphClass: 2
Flags: MW
HStem: -14 50<284.5 450.5 284.5 466.5> 654 50<333 499> 736 94<370 500 370 500 471 500 439 513 471 471>
VStem: 62 68<210 371 210 387> 654 67<319 480.5>
LayerCount: 2
Fore
SplineSet
412 736 m 1
 370 736 l 1
 439 830 l 1
 500 830 l 1
 412 736 l 1
471 736 m 1
 540 830 l 1
 601 830 l 1
 513 736 l 1
 471 736 l 1
446 704 m 0
 619 704 721 576 721 404 c 0
 721 202 596 -14 337 -14 c 0
 165 -14 62 114 62 286 c 0
 62 488 187 704 446 704 c 0
350 36 m 0
 551 36 654 234 654 404 c 0
 654 557 564 654 434 654 c 0
 232 654 130 456 130 286 c 0
 130 134 219 36 350 36 c 0
EndSplineSet
Position2: "'cpsp' Capital Spacing in Latin lookup 0 subtable" dx=5 dy=0 dh=10 dv=0
EndChar

StartChar: ohungarumlaut
Encoding: 337 337 182
Width: 574
GlyphClass: 2
Flags: MW
HStem: -14 49<204.5 330 204.5 353> 493 50<243.5 369.5> 580 110<263 404 263 404 377 404 343 419 377 377>
VStem: 27 68<165 281 165 287.5> 479 68<247.5 364>
LayerCount: 2
Fore
SplineSet
305 580 m 1
 263 580 l 1
 343 690 l 1
 404 690 l 1
 305 580 l 1
377 580 m 1
 457 690 l 1
 518 690 l 1
 419 580 l 1
 377 580 l 1
326 543 m 0
 480 543 547 435 547 311 c 0
 547 171 458 -14 248 -14 c 0
 94 -14 27 93 27 218 c 0
 27 357 116 543 326 543 c 0
256 35 m 0
 404 35 479 185 479 310 c 0
 479 418 421 493 318 493 c 0
 169 493 95 343 95 219 c 0
 95 111 153 35 256 35 c 0
EndSplineSet
EndChar

StartChar: OE
Encoding: 338 338 72
Width: 1109
GlyphClass: 2
Flags: MW
HStem: -14 50<271.5 368.5> 0 51<651 1027> 319 52<708 1048 698 1057> 639 51<755 755 755 1130> 654 50<335 499.5 311.5 538>
VStem: 61 68<202.5 359.5 202.5 368.5> 647.91 24.09
LayerCount: 2
Fore
SplineSet
755 639 m 1x76
 708 371 l 1
 1057 371 l 1
 1048 319 l 1
 698 319 l 1
 651 51 l 1
 1037 51 l 1
 1027 0 l 1
 580 0 l 1x76
 609 163 l 1
 567 88 l 1
 499 14 417 -14 320 -14 c 0
 152 -14 61 95 61 277 c 0
 61 460 177 704 446 704 c 0xae
 553 704 612 675 656 599 c 1
 672 522 l 1
 702 690 l 1
 1139 690 l 1
 1130 639 l 1
 755 639 l 1x76
335 36 m 0xae
 487 36 606 150 641 345 c 1
 665 489 633 654 443 654 c 0
 227 654 129 440 129 279 c 0
 129 126 208 36 335 36 c 0xae
EndSplineSet
Position2: "'cpsp' Capital Spacing in Latin lookup 0 subtable" dx=5 dy=0 dh=10 dv=0
EndChar

StartChar: oe
Encoding: 339 339 186
Width: 981
GlyphClass: 2
Flags: MW
HStem: -14 49<201 293 637.5 712.5> 246 49<552 890 552 942 542 890> 495 49<246 386.5 725 800.5>
VStem: 25 68<157 269.5 157 273.5> 481 58 894 62<335 395>
LayerCount: 2
Fore
SplineSet
942 246 m 1
 542 246 l 1
 540 229 539 212 539 198 c 0
 539 83 600 35 675 35 c 0
 750 35 824 80 858 167 c 1
 923 167 l 1
 874 41 769 -14 664 -14 c 0
 578 -14 507 31 485 133 c 1
 431 37 347 -14 239 -14 c 0
 95 -14 25 81 25 208 c 0
 25 339 111 544 337 544 c 0
 444 544 513 493 535 397 c 1
 592 496 678 544 772 544 c 0
 897 544 956 459 956 344 c 0
 956 312 951 277 942 246 c 1
248 35 m 0
 387 35 469 169 481 301 c 1
 489 407 444 495 329 495 c 0
 163 495 93 327 93 212 c 0
 93 102 154 35 248 35 c 0
761 495 m 0
 670 495 583 428 552 295 c 1
 890 295 l 1
 892 312 894 328 894 342 c 0
 894 448 840 495 761 495 c 0
EndSplineSet
EndChar

StartChar: Rcommaaccent
Encoding: 342 342 79
Width: 593
GlyphClass: 2
Flags: MW
HStem: -182 131<154 263 154 263> 0 21G<43 105 43 43 455 522 455 455> 312 52<169 302 160 313> 638 52<217 360 217 217>
VStem: 442 62 536 68<482 560.5>
AnchorPoint: "Anchor-0" 239 0 basechar 0
LayerCount: 2
Fore
SplineSet
604 540 m 0
 604 424 519 355 428 339 c 1
 484 328 503 283 504 143 c 0
 505 66 511 26 522 0 c 1
 455 0 l 1
 449 30 444 65 442 193 c 0
 441 258 423 307 357 311 c 0
 338 312 318 312 302 312 c 2
 160 312 l 1
 105 0 l 1
 43 0 l 1
 165 690 l 1
 369 690 l 2
 404 690 431 690 462 686 c 0
 550 675 604 626 604 540 c 0
383 366 m 0
 471 373 536 433 536 529 c 0
 536 592 500 625 438 634 c 0
 414 637 393 638 360 638 c 2
 217 638 l 1
 169 364 l 1
 313 364 l 2
 342 364 358 364 383 366 c 0
209 -51 m 1
 263 -51 l 1
 263 -57 l 1
 190 -182 l 1
 154 -182 l 1
 209 -51 l 1
EndSplineSet
Position2: "'cpsp' Capital Spacing in Latin lookup 0 subtable" dx=5 dy=0 dh=10 dv=0
EndChar

StartChar: rcommaaccent
Encoding: 343 343 193
Width: 302
GlyphClass: 2
Flags: MW
HStem: -182 131<-28 82 -28 82> 0 21G<27 89 27 27> 510 20G<121 183 183 183> 517 20G<343 343> 521 20G<296 319>
VStem: -28 371
AnchorPoint: "Anchor-0" 58 0 basechar 0
LayerCount: 2
Fore
SplineSet
313 541 m 0xcc
 325 541 335 540 343 537 c 1
 334 488 l 1xd4
 254 494 170 452 142 301 c 1
 141 297 l 1
 89 0 l 1
 27 0 l 1
 121 530 l 1
 183 530 l 1
 166 434 l 1xe4
 215 501 l 1
 244 526 279 541 313 541 c 0xcc
28 -51 m 1
 82 -51 l 1
 82 -57 l 1
 9 -182 l 1
 -28 -182 l 1
 28 -51 l 1
EndSplineSet
EndChar

StartChar: Rcaron
Encoding: 344 344 78
Width: 593
GlyphClass: 2
Flags: MW
HStem: 0 21G<43 105 43 43 455 522 455 455> 312 52<169 302 160 313> 638 52<217 360 217 217> 736 94<306 356 306 403>
VStem: 442 62 536 68<482 560.5>
AnchorPoint: "Anchor-0" 239 0 basechar 0
LayerCount: 2
Fore
SplineSet
356 736 m 1
 306 830 l 1
 356 830 l 1
 384 766 l 1
 433 830 l 1
 486 830 l 1
 403 736 l 1
 356 736 l 1
604 540 m 0
 604 424 519 355 428 339 c 1
 484 328 503 283 504 143 c 0
 505 66 511 26 522 0 c 1
 455 0 l 1
 449 30 444 65 442 193 c 0
 441 258 423 307 357 311 c 0
 338 312 318 312 302 312 c 2
 160 312 l 1
 105 0 l 1
 43 0 l 1
 165 690 l 1
 369 690 l 2
 404 690 431 690 462 686 c 0
 550 675 604 626 604 540 c 0
383 366 m 0
 471 373 536 433 536 529 c 0
 536 592 500 625 438 634 c 0
 414 637 393 638 360 638 c 2
 217 638 l 1
 169 364 l 1
 313 364 l 2
 342 364 358 364 383 366 c 0
EndSplineSet
Position2: "'cpsp' Capital Spacing in Latin lookup 0 subtable" dx=5 dy=0 dh=10 dv=0
EndChar

StartChar: rcaron
Encoding: 345 345 192
Width: 302
GlyphClass: 2
Flags: MW
HStem: 0 21G<27 89 27 27> 510 20G<121 183 183 183> 517 20G<343 343> 521 20G<296 319> 580 110<188 188 188 190 142 234>
VStem: 27 316
AnchorPoint: "Anchor-0" 58 0 basechar 0
LayerCount: 2
Fore
SplineSet
188 580 m 1x9c
 142 690 l 1
 190 690 l 1
 217 615 l 1
 272 690 l 1
 320 690 l 1
 234 580 l 1
 188 580 l 1x9c
313 541 m 0
 325 541 335 540 343 537 c 1
 334 488 l 1xac
 254 494 170 452 142 301 c 1
 141 297 l 1
 89 0 l 1
 27 0 l 1
 121 530 l 1
 183 530 l 1
 166 434 l 1xcc
 215 501 l 1
 244 526 279 541 313 541 c 0
EndSplineSet
EndChar

StartChar: Scedilla
Encoding: 350 350 83
Width: 557
GlyphClass: 2
Flags: MW
HStem: -210 34<179 215 179 220.5> -14 50<222 222> 654 50<296.5 386.5>
VStem: 17 66<140.5 190> 104 69<474 555 474 555> 267 45<-137 -104.5> 438 69<140 224.5> 487 65<505 505>
AnchorPoint: "Anchor-0" 252 0 basechar 0
LayerCount: 2
Fore
SplineSet
552 505 m 1xed
 487 505 l 1
 491 599 432 654 341 654 c 0
 252 654 173 603 173 507 c 0xed
 173 441 219 411 318 385 c 0
 443 352 507 299 507 198 c 0
 507 77 406 -5 264 -13 c 1
 242 -44 l 1
 286 -51 312 -79 312 -117 c 0
 312 -182 256 -210 185 -210 c 0
 163 -210 146 -207 132 -202 c 1
 138 -169 l 1
 153 -174 169 -176 189 -176 c 0
 241 -176 267 -153 267 -121 c 0
 267 -88 238 -69 178 -75 c 1
 222 -14 l 1
 97 -8 9 63 17 190 c 1
 83 190 l 1
 83 91 148 36 251 36 c 0
 356 36 438 93 438 187 c 0xfe
 438 262 390 299 283 327 c 0
 172 357 104 400 104 489 c 0
 104 621 214 704 355 704 c 0
 493 704 559 617 552 505 c 1xed
EndSplineSet
Substitution2: "'locl' Localized Forms in Latin lookup 2 subtable" Scommaaccent
Substitution2: "'locl' Localized Forms in Latin lookup 1 subtable" Scommaaccent
Substitution2: "'aalt' Access All Alternates in Latin lookup 0 subtable" Scommaaccent
Position2: "'cpsp' Capital Spacing in Latin lookup 0 subtable" dx=5 dy=0 dh=10 dv=0
EndChar

StartChar: scedilla
Encoding: 351 351 197
Width: 453
GlyphClass: 2
Flags: MW
HStem: -210 34<109 144.5 109 149.5> -18 49<190 195 190 190> -15 21G<151 151> 493 50<210 285>
VStem: 63 68<365.5 418.5 365.5 429> 197 44<-137 -104.5> 327 67<103 161.5>
AnchorPoint: "Anchor-0" 178 0 basechar 0
LayerCount: 2
Fore
SplineSet
236 293 m 0xde
 339 263 394 223 394 139 c 0
 394 45 315 -18 195 -18 c 2
 190 -18 l 1
 171 -44 l 1xde
 216 -51 241 -79 241 -117 c 0
 241 -182 185 -210 114 -210 c 0
 92 -210 75 -207 61 -202 c 1
 68 -169 l 1
 83 -174 99 -176 119 -176 c 0
 170 -176 197 -153 197 -121 c 0
 197 -88 167 -69 108 -75 c 1
 151 -15 l 1xbe
 50 0 3 66 0 150 c 1
 64 150 l 1
 70 63 123 31 202 31 c 0
 275 31 327 72 327 134 c 0
 327 189 291 217 205 242 c 0
 129 264 63 298 63 387 c 0
 63 471 132 543 256 543 c 0
 369 543 425 479 428 381 c 1
 364 381 l 1
 358 457 319 493 251 493 c 0
 169 493 131 444 131 393 c 0
 131 338 173 311 236 293 c 0xde
EndSplineSet
Substitution2: "'locl' Localized Forms in Latin lookup 2 subtable" scommaaccent
Substitution2: "'locl' Localized Forms in Latin lookup 1 subtable" scommaaccent
Substitution2: "'aalt' Access All Alternates in Latin lookup 0 subtable" scommaaccent
EndChar

StartChar: Scaron
Encoding: 352 352 82
Width: 557
GlyphClass: 2
Flags: MW
HStem: -14 50<199.5 303.5 199.5 317.5> 654 50<296.5 386.5> 736 94<286 336 286 383>
VStem: 17 66<140.5 190> 104 69<474 555 474 555> 438 69<140 224.5> 487 65<505 505>
AnchorPoint: "Anchor-0" 252 0 basechar 0
LayerCount: 2
Fore
SplineSet
336 736 m 1xec
 286 830 l 1
 336 830 l 1
 364 766 l 1
 413 830 l 1
 466 830 l 1
 383 736 l 1
 336 736 l 1xec
552 505 m 1xea
 487 505 l 1
 491 599 432 654 341 654 c 0
 252 654 173 603 173 507 c 0xea
 173 441 219 411 318 385 c 0
 443 352 507 299 507 198 c 0
 507 70 395 -14 240 -14 c 0
 106 -14 9 57 17 190 c 1
 83 190 l 1
 83 91 148 36 251 36 c 0
 356 36 438 93 438 187 c 0xfc
 438 262 390 299 283 327 c 0
 172 357 104 400 104 489 c 0
 104 621 214 704 355 704 c 0
 493 704 559 617 552 505 c 1xea
EndSplineSet
Position2: "'cpsp' Capital Spacing in Latin lookup 0 subtable" dx=5 dy=0 dh=10 dv=0
EndChar

StartChar: Tcedilla
Encoding: 354 354 88
Width: 601
GlyphClass: 2
Flags: MW
HStem: -210 34<196 232 196 237.5> 0 21G<240 249 240 240 291 302 291 291> 639 51<109 353 99 676 415 415 415 667>
VStem: 284 45<-137 -104.5>
AnchorPoint: "Anchor-0" 269 0 basechar 0
LayerCount: 2
Fore
SplineSet
291 0 m 1
 259 -44 l 1
 304 -51 329 -79 329 -117 c 0
 329 -182 273 -210 202 -210 c 0
 180 -210 163 -207 149 -202 c 1
 155 -169 l 1
 170 -174 186 -176 206 -176 c 0
 258 -176 284 -153 284 -121 c 0
 284 -88 255 -69 195 -75 c 1
 249 0 l 1
 240 0 l 1
 353 639 l 1
 99 639 l 1
 109 690 l 1
 676 690 l 1
 667 639 l 1
 415 639 l 1
 302 0 l 1
 291 0 l 1
EndSplineSet
Substitution2: "'locl' Localized Forms in Latin lookup 2 subtable" uni021A
Substitution2: "'locl' Localized Forms in Latin lookup 1 subtable" uni021A
Substitution2: "'aalt' Access All Alternates in Latin lookup 0 subtable" uni021A
Position2: "'cpsp' Capital Spacing in Latin lookup 0 subtable" dx=5 dy=0 dh=10 dv=0
EndChar

StartChar: tcedilla
Encoding: 355 355 203
Width: 281
GlyphClass: 2
Flags: MW
HStem: -210 34<43 78.5 43 83.5> -8 49.26 -2 21G<94 94 195 195> 477 48<61 120 52 128 190 277>
VStem: 51 64<64 71.5> 131 44<-137 -104.5>
AnchorPoint: "Anchor-0" 112 0 basechar 0
LayerCount: 2
Fore
SplineSet
182 477 m 1xd4
 123 145 l 2
 116 110 115 96 115 84 c 0
 115 44 143 35 203 45 c 1
 195 -2 l 1
 178 -5 159 -8 138 -8 c 2
 131 -8 l 1xdc
 105 -44 l 1
 150 -51 175 -79 175 -117 c 0
 175 -182 119 -210 48 -210 c 0
 26 -210 9 -207 -5 -202 c 1
 2 -169 l 1
 17 -174 33 -176 53 -176 c 0
 104 -176 131 -153 131 -121 c 0
 131 -88 101 -69 42 -75 c 1xd4
 94 -2 l 1
 66 7 51 28 51 63 c 0
 51 80 53 103 61 144 c 2
 120 477 l 1
 52 477 l 1
 61 525 l 1
 128 525 l 1
 149 642 l 1xbc
 211 642 l 1
 190 525 l 1
 285 525 l 1
 277 477 l 1
 182 477 l 1xd4
EndSplineSet
Substitution2: "'locl' Localized Forms in Latin lookup 2 subtable" uni021B
Substitution2: "'locl' Localized Forms in Latin lookup 1 subtable" uni021B
Substitution2: "'aalt' Access All Alternates in Latin lookup 0 subtable" uni021B
EndChar

StartChar: Tcaron
Encoding: 356 356 87
Width: 601
GlyphClass: 2
Flags: MW
HStem: 0 21G<240 302 240 240> 639 51<109 353 99 676 415 667 415 415> 639 191<329 353 456 509 329 667 329 415>
VStem: 99 577<639 690>
AnchorPoint: "Anchor-0" 269 0 basechar 0
LayerCount: 2
Fore
SplineSet
379 736 m 1xb0
 329 830 l 1
 379 830 l 1
 407 766 l 1
 456 830 l 1
 509 830 l 1
 426 736 l 1
 379 736 l 1xb0
667 639 m 1xd0
 415 639 l 1
 302 0 l 1
 240 0 l 1
 353 639 l 1
 99 639 l 1
 109 690 l 1
 676 690 l 1
 667 639 l 1xd0
EndSplineSet
Position2: "'cpsp' Capital Spacing in Latin lookup 0 subtable" dx=5 dy=0 dh=10 dv=0
EndChar

StartChar: tcaron
Encoding: 357 357 202
Width: 272
GlyphClass: 2
Flags: MW
HStem: -8 49.26 477 48<61 120 52 128 190 277> 588 54<149 275 149 238>
VStem: 51 64<64 71.5>
AnchorPoint: "Anchor-0" 112 0 basechar 0
LayerCount: 2
Fore
SplineSet
347 718 m 1
 347 713 l 1
 275 588 l 1
 238 588 l 1
 294 718 l 1
 347 718 l 1
190 525 m 1
 285 525 l 1
 277 477 l 1
 182 477 l 1
 123 145 l 2
 116 110 115 96 115 84 c 0
 115 44 143 35 203 45 c 1
 195 -2 l 1
 178 -5 159 -8 138 -8 c 0
 81 -8 51 13 51 63 c 0
 51 80 53 103 61 144 c 2
 120 477 l 1
 52 477 l 1
 61 525 l 1
 128 525 l 1
 149 642 l 1
 211 642 l 1
 190 525 l 1
EndSplineSet
EndChar

StartChar: Tbar
Encoding: 358 358 86
Width: 614
GlyphClass: 2
Flags: MW
HStem: 0 21G<240 302 240 240> 312 43<185 295 177 303 365 487> 639 51<109 353 99 676 415 667 415 415>
VStem: 99 577<639 690>
AnchorPoint: "Anchor-0" 269 0 basechar 0
LayerCount: 2
Fore
SplineSet
415 639 m 1
 365 355 l 1
 495 355 l 1
 487 312 l 1
 357 312 l 1
 302 0 l 1
 240 0 l 1
 295 312 l 1
 177 312 l 1
 185 355 l 1
 303 355 l 1
 353 639 l 1
 99 639 l 1
 109 690 l 1
 676 690 l 1
 667 639 l 1
 415 639 l 1
EndSplineSet
Position2: "'cpsp' Capital Spacing in Latin lookup 0 subtable" dx=5 dy=0 dh=10 dv=0
EndChar

StartChar: tbar
Encoding: 359 359 201
Width: 281
GlyphClass: 2
Flags: MW
HStem: -8 49.26 309 40<33 90 25 97 159 227> 477 48<61 120 52 128 190 277>
VStem: 51 64<64 71.5>
AnchorPoint: "Anchor-0" 112 0 basechar 0
LayerCount: 2
Fore
SplineSet
182 477 m 1
 159 349 l 1
 235 349 l 1
 227 309 l 1
 152 309 l 1
 123 145 l 2
 116 110 115 96 115 84 c 0
 115 44 143 35 203 45 c 1
 195 -2 l 1
 178 -5 159 -8 138 -8 c 0
 81 -8 51 13 51 63 c 0
 51 80 53 103 61 144 c 2
 90 309 l 1
 25 309 l 1
 33 349 l 1
 97 349 l 1
 120 477 l 1
 52 477 l 1
 61 525 l 1
 128 525 l 1
 149 642 l 1
 211 642 l 1
 190 525 l 1
 285 525 l 1
 277 477 l 1
 182 477 l 1
EndSplineSet
EndChar

StartChar: Uring
Encoding: 366 366 98
Width: 652
GlyphClass: 2
Flags: MW
HStem: -14 50<246 358 246 371.5> 670 20G<168 230 230 230 596 658 658 658> 718 31<412.5 437 412.5 444.5> 832 31<425 449.5>
VStem: 82 62<130.5 182> 350 40<772.5 797.5 772.5 805.5> 472 41<784 808.5>
LayerCount: 2
Fore
SplineSet
441 863 m 0
 485 863 513 838 513 803 c 0
 513 749 468 718 421 718 c 0
 377 718 350 743 350 779 c 0
 350 832 394 863 441 863 c 0
439 832 m 0
 411 832 390 813 390 782 c 0
 390 763 402 749 423 749 c 0
 451 749 472 769 472 799 c 0
 472 818 460 832 439 832 c 0
658 690 m 1xfe
 580 249 l 2
 576 227 572 206 567 185 c 0
 537 63 452 -14 291 -14 c 0
 153 -14 82 55 82 167 c 0
 82 197 85 223 91 253 c 2
 168 690 l 1
 230 690 l 1
 154 257 l 2
 147 217 144 196 144 169 c 0
 144 92 192 36 300 36 c 0
 416 36 480 91 507 193 c 0
 512 212 516 231 520 254 c 2
 596 690 l 1
 658 690 l 1xfe
EndSplineSet
Position2: "'cpsp' Capital Spacing in Latin lookup 0 subtable" dx=5 dy=0 dh=10 dv=0
EndChar

StartChar: uring
Encoding: 367 367 213
Width: 566
GlyphClass: 2
Flags: MW
HStem: -14 50 0 21G<386 448 386 386> 509 20G<113 175 175 175 478 540 540 540> 568 30<325.5 350 325.5 356.5> 689 30<338 362.5>
VStem: 47 65<110.5 140> 262 41<622 649 622 655> 385 41<637.5 664.5>
LayerCount: 2
Fore
SplineSet
331 568 m 0xbf
 290 568 262 592 262 629 c 0
 262 681 306 719 358 719 c 0
 398 719 426 695 426 658 c 0
 426 605 382 568 331 568 c 0xbf
352 689 m 0
 324 689 303 665 303 633 c 0
 303 611 315 598 336 598 c 0
 364 598 385 621 385 654 c 0
 385 675 373 689 352 689 c 0
540 529 m 1
 448 0 l 1
 386 0 l 1x7f
 404 102 l 1
 364 43 l 1
 314 0 264 -14 206 -14 c 0
 101 -14 47 40 47 125 c 0
 47 155 49 175 60 233 c 2
 113 529 l 1
 175 529 l 1
 123 240 l 2
 115 195 112 166 112 141 c 0
 112 80 144 35 226 36 c 0
 317 38 403 101 432 266 c 2
 478 529 l 1
 540 529 l 1
EndSplineSet
EndChar

StartChar: uhungarumlaut
Encoding: 369 369 210
Width: 566
GlyphClass: 2
Flags: MW
HStem: -14 50 0 21G<386 448 386 386> 509 20G<113 175 175 175 478 540 540 540> 580 110<253 394 253 394 367 394 333 409 367 367>
VStem: 47 65<110.5 140>
LayerCount: 2
Fore
SplineSet
295 580 m 1xb8
 253 580 l 1
 333 690 l 1
 394 690 l 1
 295 580 l 1xb8
367 580 m 1
 447 690 l 1
 508 690 l 1
 409 580 l 1
 367 580 l 1
540 529 m 1
 448 0 l 1
 386 0 l 1x78
 404 102 l 1
 364 43 l 1
 314 0 264 -14 206 -14 c 0
 101 -14 47 40 47 125 c 0
 47 155 49 175 60 233 c 2
 113 529 l 1
 175 529 l 1
 123 240 l 2
 115 195 112 166 112 141 c 0
 112 80 144 35 226 36 c 0
 317 38 403 101 432 266 c 2
 478 529 l 1
 540 529 l 1
EndSplineSet
EndChar

StartChar: Uogonek
Encoding: 370 370 97
Width: 652
GlyphClass: 2
Flags: MW
HStem: -223 41<251 309.5> -14 50<246 291 291 296> 670 20G<168 230 230 230 596 658 658 658>
VStem: 82 62<130.5 182> 199 63<-155 -130.5>
LayerCount: 2
Fore
SplineSet
658 690 m 1
 580 249 l 2
 576 227 572 206 567 185 c 0
 543 86 482 17 374 -6 c 1
 304 -34 262 -92 262 -140 c 0
 262 -170 276 -182 299 -182 c 0
 320 -182 340 -175 362 -158 c 1
 355 -195 l 1
 332 -213 303 -223 269 -223 c 0
 233 -223 199 -205 199 -156 c 0
 199 -105 231 -53 296 -14 c 1
 291 -14 l 2
 153 -14 82 55 82 167 c 0
 82 197 85 223 91 253 c 2
 168 690 l 1
 230 690 l 1
 154 257 l 2
 147 217 144 196 144 169 c 0
 144 92 192 36 300 36 c 0
 416 36 480 91 507 193 c 0
 512 212 516 231 520 254 c 2
 596 690 l 1
 658 690 l 1
EndSplineSet
Position2: "'cpsp' Capital Spacing in Latin lookup 0 subtable" dx=5 dy=0 dh=10 dv=0
EndChar

StartChar: uogonek
Encoding: 371 371 212
Width: 566
GlyphClass: 2
Flags: MW
HStem: -223 41<295 353.5> -14 50 0 21G<435 448 435 435> 509 20G<113 175 175 175 478 540 540 540>
VStem: 47 65<110.5 140> 243 63<-155 -124.5>
LayerCount: 2
Fore
SplineSet
540 529 m 1xdc
 448 0 l 1
 435 0 l 1xbc
 355 -25 306 -88 306 -140 c 0
 306 -170 320 -182 343 -182 c 0
 364 -182 384 -175 406 -158 c 1
 399 -195 l 1
 376 -213 347 -223 313 -223 c 0
 277 -223 243 -205 243 -156 c 0
 243 -93 291 -29 388 10 c 1
 404 102 l 1
 364 43 l 1
 314 0 264 -14 206 -14 c 0
 101 -14 47 40 47 125 c 0
 47 155 49 175 60 233 c 2
 113 529 l 1
 175 529 l 1
 123 240 l 2
 115 195 112 166 112 141 c 0
 112 80 144 35 226 36 c 0
 317 38 403 101 432 266 c 2
 478 529 l 1
 540 529 l 1xdc
EndSplineSet
EndChar

StartChar: wcircumflex
Encoding: 373 373 217
Width: 744
GlyphClass: 2
Flags: MW
HStem: 0 21G<116 192 116 116 452 526 452 452> 0 62<165 165 165 192 116 165> 468 60<404 404> 508 20G<374 454 454 454> 509 20G<43 113 113 113 720 788 788 788> 580 110<336 468 336 468 465 465 465 468 422 514> 655 35<439 439>
VStem: 43 745<529 529>
LayerCount: 2
Fore
SplineSet
384 580 m 1x8d
 336 580 l 1
 422 690 l 1
 468 690 l 1
 514 580 l 1
 465 580 l 1x4d
 439 655 l 1x8b
 384 580 l 1x8d
788 529 m 1
 526 0 l 1
 452 0 l 1
 404 468 l 1xa5
 192 0 l 1
 116 0 l 1
 43 529 l 1
 113 529 l 1x8d
 165 62 l 1
 374 528 l 1
 454 528 l 1x55
 502 63 l 1
 720 529 l 1
 788 529 l 1
EndSplineSet
EndChar

StartChar: ycircumflex
Encoding: 375 375 223
Width: 486
GlyphClass: 2
Flags: MW
HStem: -210 52<-1 30 -1 45> 509 20G<43 113 113 113 459 530 530 530> 580 110<205 337 205 337 334 334 334 337 291 383> 655 35<308 308>
VStem: -35 565
LayerCount: 2
Fore
SplineSet
253 580 m 1xe8
 205 580 l 1
 291 690 l 1
 337 690 l 1
 383 580 l 1
 334 580 l 1xe8
 308 655 l 1xd8
 253 580 l 1xe8
530 529 m 1
 233 0 l 2
 137 -171 87 -210 3 -210 c 0
 -11 -210 -23 -209 -35 -207 c 1
 -27 -155 l 1
 -15 -158 -6 -158 4 -158 c 0
 56 -158 94 -132 145 -40 c 1
 157 -19 l 1
 43 529 l 1
 113 529 l 1
 201 47 l 1
 459 529 l 1
 530 529 l 1
EndSplineSet
EndChar

StartChar: Ydieresis
Encoding: 376 376 109
Width: 568
GlyphClass: 2
Flags: MW
HStem: 0 21G<218 280 218 218> 670 20G<96 161 161 161 573 647 647 647> 747 72<326 334.5 439.5 448>
VStem: 293 74<778 788.5> 407 74<778 788.5>
LayerCount: 2
Fore
SplineSet
324 747 m 0
 306 747 293 760 293 777 c 0
 293 800 315 819 337 819 c 0
 355 819 367 806 367 789 c 0
 367 767 345 747 324 747 c 0
437 747 m 0
 419 747 407 760 407 777 c 0
 407 800 429 819 450 819 c 0
 469 819 481 806 481 789 c 0
 481 767 459 747 437 747 c 0
327 269 m 1
 280 0 l 1
 218 0 l 1
 266 273 l 1
 96 690 l 1
 161 690 l 1
 306 329 l 1
 573 690 l 1
 647 690 l 1
 327 269 l 1
EndSplineSet
Position2: "'cpsp' Capital Spacing in Latin lookup 0 subtable" dx=5 dy=0 dh=10 dv=0
EndChar

StartChar: Zacute
Encoding: 377 377 112
Width: 571
GlyphClass: 2
Flags: MW
HStem: 0 52<85 501> 638 52<145 529 136 617> 638 192<422 482 422 529>
VStem: -5 622
LayerCount: 2
Fore
SplineSet
394 736 m 1xb0
 352 736 l 1
 422 830 l 1
 482 830 l 1
 394 736 l 1xb0
608 639 m 1xd0
 85 52 l 1
 510 52 l 1
 501 0 l 1
 -5 0 l 1
 4 48 l 1
 529 638 l 1
 136 638 l 1
 145 690 l 1
 617 690 l 1
 608 639 l 1xd0
EndSplineSet
Position2: "'cpsp' Capital Spacing in Latin lookup 0 subtable" dx=5 dy=0 dh=10 dv=0
EndChar

StartChar: zacute
Encoding: 378 378 227
Width: 470
GlyphClass: 2
Flags: MW
HStem: 0 50<64 391> 474 51<94 393 86 478 469 469> 474 216<346 393 346 469> 580 110<265 406 265 406>
VStem: -21 499
LayerCount: 2
Fore
SplineSet
307 580 m 1xd8
 265 580 l 1xd8
 346 690 l 1
 406 690 l 1xa8
 307 580 l 1xd8
469 474 m 1
 64 50 l 1
 400 50 l 1
 391 0 l 1
 -21 0 l 1
 -13 48 l 1
 393 474 l 1
 86 474 l 1
 94 525 l 1
 478 525 l 1
 469 474 l 1
EndSplineSet
EndChar

StartChar: Zdotaccent
Encoding: 379 379 114
Width: 571
GlyphClass: 2
Flags: MW
HStem: 0 52<85 501> 638 52<145 529 136 617> 747 72<381 389.5>
VStem: 348 74<778 788.5>
LayerCount: 2
Fore
SplineSet
379 747 m 0
 360 747 348 760 348 777 c 0
 348 800 370 819 392 819 c 0
 410 819 422 806 422 789 c 0
 422 767 400 747 379 747 c 0
608 639 m 1
 85 52 l 1
 510 52 l 1
 501 0 l 1
 -5 0 l 1
 4 48 l 1
 529 638 l 1
 136 638 l 1
 145 690 l 1
 617 690 l 1
 608 639 l 1
EndSplineSet
Position2: "'cpsp' Capital Spacing in Latin lookup 0 subtable" dx=5 dy=0 dh=10 dv=0
EndChar

StartChar: zdotaccent
Encoding: 380 380 229
Width: 470
GlyphClass: 2
Flags: MW
HStem: 0 50<64 391> 474 51<94 393 86 478 469 469> 601 84<296.5 309.5>
VStem: 260 85<636 650>
LayerCount: 2
Fore
SplineSet
296 601 m 0
 275 601 260 617 260 636 c 0
 260 664 283 685 310 685 c 0
 331 685 345 669 345 650 c 0
 345 622 323 601 296 601 c 0
469 474 m 1
 64 50 l 1
 400 50 l 1
 391 0 l 1
 -21 0 l 1
 -13 48 l 1
 393 474 l 1
 86 474 l 1
 94 525 l 1
 478 525 l 1
 469 474 l 1
EndSplineSet
EndChar

StartChar: Zcaron
Encoding: 381 381 113
Width: 571
GlyphClass: 2
Flags: MW
HStem: 0 52<85 501> 638 52<145 529 136 617> 638 192<305 355 432 485 305 529 136 355>
VStem: -5 622
LayerCount: 2
Fore
SplineSet
355 736 m 1xb0
 305 830 l 1
 355 830 l 1
 383 766 l 1
 432 830 l 1
 485 830 l 1
 402 736 l 1
 355 736 l 1xb0
608 639 m 1xd0
 85 52 l 1
 510 52 l 1
 501 0 l 1
 -5 0 l 1
 4 48 l 1
 529 638 l 1
 136 638 l 1
 145 690 l 1
 617 690 l 1
 608 639 l 1xd0
EndSplineSet
Position2: "'cpsp' Capital Spacing in Latin lookup 0 subtable" dx=5 dy=0 dh=10 dv=0
EndChar

StartChar: zcaron
Encoding: 382 382 228
Width: 470
GlyphClass: 2
Flags: MW
HStem: 0 50<64 391> 474 51<94 393 86 478 469 469> 580 110<269 269 269 271 223 315>
VStem: -21 499
LayerCount: 2
Fore
SplineSet
269 580 m 1
 223 690 l 1
 271 690 l 1
 298 615 l 1
 353 690 l 1
 401 690 l 1
 315 580 l 1
 269 580 l 1
469 474 m 1
 64 50 l 1
 400 50 l 1
 391 0 l 1
 -21 0 l 1
 -13 48 l 1
 393 474 l 1
 86 474 l 1
 94 525 l 1
 478 525 l 1
 469 474 l 1
EndSplineSet
EndChar

StartChar: uni021A
Encoding: 538 538 89
Width: 601
GlyphClass: 2
Flags: MW
HStem: -182 131<184 293 184 293> 0 21G<240 302 240 240> 639 51<109 353 99 676 415 667 415 415>
VStem: 99 577<639 690>
AnchorPoint: "Anchor-0" 269 0 basechar 0
LayerCount: 2
Fore
SplineSet
667 639 m 1
 415 639 l 1
 302 0 l 1
 240 0 l 1
 353 639 l 1
 99 639 l 1
 109 690 l 1
 676 690 l 1
 667 639 l 1
239 -51 m 1
 293 -51 l 1
 293 -57 l 1
 220 -182 l 1
 184 -182 l 1
 239 -51 l 1
EndSplineSet
Position2: "'cpsp' Capital Spacing in Latin lookup 0 subtable" dx=5 dy=0 dh=10 dv=0
EndChar

StartChar: uni021B
Encoding: 539 539 204
Width: 281
GlyphClass: 2
Flags: MW
HStem: -182 131<27 136 27 136> -8 49.26 477 48<61 120 52 128 190 277>
VStem: 51 64<64 71.5>
AnchorPoint: "Anchor-0" 112 0 basechar 0
LayerCount: 2
Fore
SplineSet
182 477 m 1
 123 145 l 2
 116 110 115 96 115 84 c 0
 115 44 143 35 203 45 c 1
 195 -2 l 1
 178 -5 159 -8 138 -8 c 0
 81 -8 51 13 51 63 c 0
 51 80 53 103 61 144 c 2
 120 477 l 1
 52 477 l 1
 61 525 l 1
 128 525 l 1
 149 642 l 1
 211 642 l 1
 190 525 l 1
 285 525 l 1
 277 477 l 1
 182 477 l 1
82 -51 m 1
 136 -51 l 1
 136 -57 l 1
 63 -182 l 1
 27 -182 l 1
 82 -51 l 1
EndSplineSet
EndChar

StartChar: circumflex
Encoding: 710 710 330
Width: 300
Flags: MW
HStem: 580 110<52 184 52 184 181 184 138 230 181 181> 655 35<155 155>
VStem: 52 178<580 580>
LayerCount: 2
Fore
SplineSet
181 580 m 1xa0
 155 655 l 1x60
 100 580 l 1
 52 580 l 1
 138 690 l 1
 184 690 l 1
 230 580 l 1
 181 580 l 1xa0
EndSplineSet
EndChar

StartChar: caron
Encoding: 711 711 328
Width: 300
Flags: MW
HStem: 580 110<118 120 72 164 118 118>
VStem: 72 178<690 690>
LayerCount: 2
Fore
SplineSet
250 690 m 1
 164 580 l 1
 118 580 l 1
 72 690 l 1
 120 690 l 1
 147 615 l 1
 202 690 l 1
 250 690 l 1
EndSplineSet
EndChar

StartChar: breve
Encoding: 728 728 327
Width: 300
Flags: MW
HStem: 568 42<125.5 164.5 125.5 172.5> 670 20G<63 103 103 103 219 259 259 259>
VStem: 59.68 43.32
LayerCount: 2
Fore
SplineSet
219 690 m 1
 259 690 l 1
 244 611 206 568 139 568 c 0
 64 568 52 625 63 690 c 1
 103 690 l 1
 97 640 104 610 147 610 c 0
 182 610 207 634 219 690 c 1
EndSplineSet
EndChar

StartChar: dotaccent
Encoding: 729 729 332
Width: 300
Flags: MW
HStem: 601 84<145.5 158.5>
VStem: 109 85<636 650>
LayerCount: 2
Fore
SplineSet
159 685 m 0
 180 685 194 669 194 650 c 0
 194 622 172 601 145 601 c 0
 124 601 109 617 109 636 c 0
 109 664 132 685 159 685 c 0
EndSplineSet
EndChar

StartChar: ring
Encoding: 730 730 337
Width: 300
Flags: MW
HStem: 568 30<131.5 156 131.5 162.5> 689 30<144 168.5>
VStem: 68 41<622 649 622 655> 191 41<637.5 664.5>
LayerCount: 2
Fore
SplineSet
164 719 m 0
 204 719 232 695 232 658 c 0
 232 605 188 568 137 568 c 0
 96 568 68 592 68 629 c 0
 68 681 112 719 164 719 c 0
158 689 m 0
 130 689 109 665 109 633 c 0
 109 611 121 598 142 598 c 0
 170 598 191 621 191 654 c 0
 191 675 179 689 158 689 c 0
EndSplineSet
EndChar

StartChar: ogonek
Encoding: 731 731 336
Width: 300
Flags: MW
HStem: -223 41<73 131.5> 0 21G<213 213>
VStem: 21 63<-155 -124>
LayerCount: 2
Fore
SplineSet
171 12 m 1
 213 0 l 1
 133 -25 84 -88 84 -140 c 0
 84 -170 98 -182 121 -182 c 0
 142 -182 162 -175 184 -158 c 1
 177 -195 l 1
 154 -213 125 -223 91 -223 c 0
 55 -223 21 -205 21 -156 c 0
 21 -92 71 -27 171 12 c 1
EndSplineSet
EndChar

StartChar: tilde
Encoding: 732 732 338
Width: 300
Flags: MW
HStem: 607 40<198.5 208 198.5 213.5> 631 40<92 101.5>
VStem: 46 31<611 611> 223 31<667 667>
LayerCount: 2
Fore
SplineSet
101 671 m 0x70
 119 671 135 667 160 658 c 0
 183 650 194 647 203 647 c 0
 213 647 220 652 223 667 c 1
 254 667 l 1
 248 622 228 607 199 607 c 0xb0
 181 607 165 611 140 620 c 0
 117 628 106 631 97 631 c 0
 87 631 80 626 77 611 c 1
 46 611 l 1
 53 656 72 671 101 671 c 0x70
EndSplineSet
EndChar

StartChar: hungarumlaut
Encoding: 733 733 334
Width: 300
Flags: MW
HStem: 580 110<60 201 60 201 174 174 174 201 140 216>
VStem: 60 255<580 690>
LayerCount: 2
Fore
SplineSet
102 580 m 1
 60 580 l 1
 140 690 l 1
 201 690 l 1
 102 580 l 1
216 580 m 1
 174 580 l 1
 254 690 l 1
 315 690 l 1
 216 580 l 1
EndSplineSet
EndChar

StartChar: uni0326
Encoding: 806 806 339
Width: 0
GlyphClass: 4
Flags: MW
HStem: -182 131<86 195 86 195>
VStem: 86 109
AnchorPoint: "Anchor-0" 171 0 mark 0
LayerCount: 2
Fore
SplineSet
195 -57 m 1
 122 -182 l 1
 86 -182 l 1
 141 -51 l 1
 195 -51 l 1
 195 -57 l 1
EndSplineSet
EndChar

StartChar: Wgrave
Encoding: 7808 7808 104
Width: 904
GlyphClass: 2
Flags: MW
HStem: 0 21G<158 239 158 158 583 663 583 583> 0 65<636 636 636 663 583 636> 620 60<526 526> 670 20G<101 169 169 169 907 975 975 975> 736 94<531 531 531 534 474 572>
VStem: 101 874<690 690>
LayerCount: 2
Fore
SplineSet
531 736 m 1x9c
 474 830 l 1
 534 830 l 1
 572 736 l 1
 531 736 l 1x9c
975 690 m 1
 663 0 l 1
 583 0 l 1
 526 620 l 1xac
 239 0 l 1
 158 0 l 1
 101 690 l 1
 169 690 l 1x9c
 211 66 l 1
 491 680 l 1
 579 680 l 1
 636 65 l 1x6c
 907 690 l 1
 975 690 l 1
EndSplineSet
Position2: "'cpsp' Capital Spacing in Latin lookup 0 subtable" dx=5 dy=0 dh=10 dv=0
EndChar

StartChar: wgrave
Encoding: 7809 7809 219
Width: 744
GlyphClass: 2
Flags: MW
HStem: 0 21G<116 192 116 116 452 526 452 452> 0 62<165 165 165 192 116 165> 468 60<404 404> 508 20G<374 454 454 454> 509 20G<43 113 113 113 720 788 788 788> 580 110<347 407 347 449>
VStem: 43 745<529 529>
LayerCount: 2
Fore
SplineSet
407 580 m 1x8e
 347 690 l 1
 407 690 l 1
 449 580 l 1
 407 580 l 1x8e
788 529 m 1
 526 0 l 1
 452 0 l 1
 404 468 l 1xa6
 192 0 l 1
 116 0 l 1
 43 529 l 1
 113 529 l 1x8e
 165 62 l 1
 374 528 l 1
 454 528 l 1
 502 63 l 1x56
 720 529 l 1
 788 529 l 1
EndSplineSet
EndChar

StartChar: Wacute
Encoding: 7810 7810 101
Width: 904
GlyphClass: 2
Flags: MW
HStem: 0 21G<158 239 158 158 583 663 583 583> 0 65<636 636 636 663 583 636> 620 60<526 526> 670 20G<101 169 169 169 907 975 975 975> 736 94<524 654 524 654>
VStem: 101 874<690 690>
LayerCount: 2
Fore
SplineSet
566 736 m 1x9c
 524 736 l 1
 594 830 l 1
 654 830 l 1
 566 736 l 1x9c
975 690 m 1
 663 0 l 1
 583 0 l 1
 526 620 l 1xac
 239 0 l 1
 158 0 l 1
 101 690 l 1
 169 690 l 1x9c
 211 66 l 1
 491 680 l 1
 579 680 l 1
 636 65 l 1x6c
 907 690 l 1
 975 690 l 1
EndSplineSet
Position2: "'cpsp' Capital Spacing in Latin lookup 0 subtable" dx=5 dy=0 dh=10 dv=0
EndChar

StartChar: wacute
Encoding: 7811 7811 216
Width: 744
GlyphClass: 2
Flags: MW
HStem: 0 21G<116 192 116 116 452 526 452 452> 0 62<165 165 165 192 116 165> 468 60<404 404> 508 20G<374 454 454 454> 509 20G<43 113 113 113 720 788 788 788> 580 110<398 539 398 539>
VStem: 43 745<529 529>
LayerCount: 2
Fore
SplineSet
440 580 m 1x8e
 398 580 l 1
 479 690 l 1
 539 690 l 1
 440 580 l 1x8e
788 529 m 1
 526 0 l 1
 452 0 l 1
 404 468 l 1xa6
 192 0 l 1
 116 0 l 1
 43 529 l 1
 113 529 l 1x8e
 165 62 l 1
 374 528 l 1
 454 528 l 1
 502 63 l 1x56
 720 529 l 1
 788 529 l 1
EndSplineSet
EndChar

StartChar: Wdieresis
Encoding: 7812 7812 103
Width: 904
GlyphClass: 2
Flags: MW
HStem: 0 21G<158 239 158 158 583 663 583 583> 0 65<636 636 636 663 583 636> 620 60<526 526> 670 20G<101 169 169 169 907 975 975 975> 747 72<496 504.5 609.5 618>
VStem: 101 874<690 690> 463 74<778 788.5> 577 74<778 788.5>
LayerCount: 2
Fore
SplineSet
494 747 m 0x5b
 476 747 463 760 463 777 c 0
 463 800 485 819 507 819 c 0
 525 819 537 806 537 789 c 0
 537 767 515 747 494 747 c 0x5b
607 747 m 0
 589 747 577 760 577 777 c 0
 577 800 599 819 620 819 c 0
 639 819 651 806 651 789 c 0
 651 767 629 747 607 747 c 0
975 690 m 1
 663 0 l 1
 583 0 l 1
 526 620 l 1xac
 239 0 l 1
 158 0 l 1
 101 690 l 1
 169 690 l 1x9c
 211 66 l 1
 491 680 l 1
 579 680 l 1x69
 636 65 l 1
 907 690 l 1
 975 690 l 1
EndSplineSet
Position2: "'cpsp' Capital Spacing in Latin lookup 0 subtable" dx=5 dy=0 dh=10 dv=0
EndChar

StartChar: wdieresis
Encoding: 7813 7813 218
Width: 744
GlyphClass: 2
Flags: MW
HStem: 0 21G<116 192 116 116 452 526 452 452> 0 62<165 165 165 192 116 165> 468 60<404 404> 508 20G<374 454 454 454> 509 20G<43 113 113 113 720 788 788 788> 594 73<368.5 376.5 489.5 498>
VStem: 43 745<529 529> 336 73<625 636> 457 74<625 636>
LayerCount: 2
Fore
SplineSet
366 594 m 0x4d80
 348 594 336 608 336 625 c 0
 336 647 358 667 379 667 c 0
 397 667 409 654 409 636 c 0
 409 614 387 594 366 594 c 0x4d80
487 594 m 0
 469 594 457 608 457 625 c 0
 457 647 479 667 500 667 c 0
 518 667 531 654 531 636 c 0
 531 614 509 594 487 594 c 0
788 529 m 1
 526 0 l 1
 452 0 l 1
 404 468 l 1xa6
 192 0 l 1
 116 0 l 1
 43 529 l 1
 113 529 l 1x8e
 165 62 l 1
 374 528 l 1
 454 528 l 1x5480
 502 63 l 1
 720 529 l 1
 788 529 l 1
EndSplineSet
EndChar

StartChar: Ygrave
Encoding: 7922 7922 110
Width: 568
GlyphClass: 2
Flags: MW
HStem: 0 21G<218 280 218 218> 670 20G<96 161 161 161 573 647 647 647> 736 94<361 361 361 364 304 402>
VStem: 96 551<690 690>
LayerCount: 2
Fore
SplineSet
361 736 m 1
 304 830 l 1
 364 830 l 1
 402 736 l 1
 361 736 l 1
327 269 m 1
 280 0 l 1
 218 0 l 1
 266 273 l 1
 96 690 l 1
 161 690 l 1
 306 329 l 1
 573 690 l 1
 647 690 l 1
 327 269 l 1
EndSplineSet
Position2: "'cpsp' Capital Spacing in Latin lookup 0 subtable" dx=5 dy=0 dh=10 dv=0
EndChar

StartChar: ygrave
Encoding: 7923 7923 225
Width: 486
GlyphClass: 2
Flags: MW
HStem: -210 52<-1 30 -1 45> 509 20G<43 113 113 113 459 530 530 530> 580 110<216 276 216 318>
VStem: -35 565
LayerCount: 2
Fore
SplineSet
276 580 m 1
 216 690 l 1
 276 690 l 1
 318 580 l 1
 276 580 l 1
530 529 m 1
 233 0 l 2
 137 -171 87 -210 3 -210 c 0
 -11 -210 -23 -209 -35 -207 c 1
 -27 -155 l 1
 -15 -158 -6 -158 4 -158 c 0
 56 -158 94 -132 145 -40 c 1
 157 -19 l 1
 43 529 l 1
 113 529 l 1
 201 47 l 1
 459 529 l 1
 530 529 l 1
EndSplineSet
EndChar

StartChar: endash
Encoding: 8211 8211 270
Width: 500
Flags: MW
HStem: 270 43<74 426 66 434>
VStem: 66 368<270 313>
LayerCount: 2
Fore
SplineSet
426 270 m 1
 66 270 l 1
 74 313 l 1
 434 313 l 1
 426 270 l 1
EndSplineSet
EndChar

StartChar: emdash
Encoding: 8212 8212 269
Width: 1000
Flags: MW
HStem: 270 43<74 926 66 934>
VStem: 66 868<270 313>
LayerCount: 2
Fore
SplineSet
926 270 m 1
 66 270 l 1
 74 313 l 1
 934 313 l 1
 926 270 l 1
EndSplineSet
EndChar

StartChar: quoteleft
Encoding: 8216 8216 279
Width: 206
Flags: MW
HStem: 478 229<94 268 94 268>
VStem: 94 174
LayerCount: 2
Fore
SplineSet
96 487 m 1
 210 707 l 1
 268 707 l 1
 161 478 l 1
 94 478 l 1
 96 487 l 1
EndSplineSet
EndChar

StartChar: quoteright
Encoding: 8217 8217 280
Width: 206
Flags: MW
HStem: 478 229<48 222 48 222>
VStem: 48 174
LayerCount: 2
Fore
SplineSet
220 698 m 1
 106 478 l 1
 48 478 l 1
 155 707 l 1
 222 707 l 1
 220 698 l 1
EndSplineSet
EndChar

StartChar: quotesinglbase
Encoding: 8218 8218 281
Width: 193
Flags: MW
HStem: -119 191<-90 78 -90 78>
VStem: -90 168
LayerCount: 2
Fore
SplineSet
77 62 m 1
 -32 -119 l 1
 -90 -119 l 1
 10 72 l 1
 78 72 l 1
 77 62 l 1
EndSplineSet
EndChar

StartChar: quotedblleft
Encoding: 8220 8220 277
Width: 346
Flags: MW
HStem: 478 229<95 268 95 268 235 235 235 268 210 301>
VStem: 95 313<478 707>
LayerCount: 2
Fore
SplineSet
96 488 m 1
 210 707 l 1
 268 707 l 1
 161 478 l 1
 95 478 l 1
 96 488 l 1
236 488 m 1
 350 707 l 1
 408 707 l 1
 301 478 l 1
 235 478 l 1
 236 488 l 1
EndSplineSet
EndChar

StartChar: quotedblright
Encoding: 8221 8221 278
Width: 346
Flags: MW
HStem: 478 229<48 222 48 222 188 188 188 222 155 246>
VStem: 48 314<478 707>
LayerCount: 2
Fore
SplineSet
220 698 m 1
 106 478 l 1
 48 478 l 1
 155 707 l 1
 222 707 l 1
 220 698 l 1
360 698 m 1
 246 478 l 1
 188 478 l 1
 295 707 l 1
 362 707 l 1
 360 698 l 1
EndSplineSet
EndChar

StartChar: quotedblbase
Encoding: 8222 8222 276
Width: 333
Flags: MW
HStem: -119 191<-90 78 -90 78 50 50 50 78 10 109>
VStem: -90 308<-119 72>
LayerCount: 2
Fore
SplineSet
77 62 m 1
 -32 -119 l 1
 -90 -119 l 1
 10 72 l 1
 78 72 l 1
 77 62 l 1
217 62 m 1
 109 -119 l 1
 50 -119 l 1
 150 72 l 1
 218 72 l 1
 217 62 l 1
EndSplineSet
EndChar

StartChar: dagger
Encoding: 8224 8224 319
Width: 575
Flags: MW
HStem: 387.5 52 670 20G<313 387 387 387>
VStem: 84 434<385 442>
LayerCount: 2
Fore
SplineSet
507 385 m 1
 326 390 l 1
 237 -160 l 1
 164 -160 l 1
 268 390 l 1
 84 385 l 1
 95 442 l 1
 277 437 l 1
 313 690 l 1
 387 690 l 1
 334 437 l 1
 518 442 l 1
 507 385 l 1
EndSplineSet
EndChar

StartChar: daggerdbl
Encoding: 8225 8225 320
Width: 556
Flags: MW
HStem: 89.5 52 387.5 52 670 20G<313 387 387 387>
VStem: 32 486<87 442>
LayerCount: 2
Fore
SplineSet
326 390 m 1
 281 139 l 1
 465 144 l 1
 455 87 l 1
 273 92 l 1
 237 -160 l 1
 164 -160 l 1
 216 92 l 1
 32 87 l 1
 42 144 l 1
 224 139 l 1
 269 390 l 1
 84 385 l 1
 95 442 l 1
 277 437 l 1
 313 690 l 1
 387 690 l 1
 334 437 l 1
 518 442 l 1
 507 385 l 1
 326 390 l 1
EndSplineSet
EndChar

StartChar: bullet
Encoding: 8226 8226 246
Width: 293
Flags: MW
HStem: 223 164<135 158>
VStem: 63 167<293.5 317>
LayerCount: 2
Fore
SplineSet
161 387 m 0
 202 387 230 359 230 320 c 0
 230 267 184 223 132 223 c 0
 90 223 63 251 63 290 c 0
 63 344 109 387 161 387 c 0
EndSplineSet
EndChar

StartChar: ellipsis
Encoding: 8230 8230 249
Width: 518
Flags: MW
HStem: -14 95<32 46 194 209 357 371>
VStem: -9 95<25.5 42> 154 95<25.5 42> 316 95<25.5 42>
LayerCount: 2
Fore
SplineSet
47 81 m 0
 71 81 86 64 86 42 c 0
 86 9 61 -14 31 -14 c 0
 7 -14 -9 3 -9 26 c 0
 -9 58 17 81 47 81 c 0
209 81 m 0
 234 81 249 64 249 42 c 0
 249 9 224 -14 194 -14 c 0
 169 -14 154 3 154 26 c 0
 154 58 179 81 209 81 c 0
372 81 m 0
 396 81 411 64 411 42 c 0
 411 9 386 -14 356 -14 c 0
 332 -14 316 3 316 26 c 0
 316 58 342 81 372 81 c 0
EndSplineSet
EndChar

StartChar: perthousand
Encoding: 8240 8240 306
Width: 1048
Flags: MW
HStem: -14 45<474 528 474 547 797 851> 0 21G<58 126 58 58> 259 45<497.5 551 820.5 874> 386 45<202 255.5 202 274.5> 659 45<224.5 278.5> 670 20G<625 693 693 693>
VStem: 96 62<488.5 551 488.5 560> 322 62<539.5 602> 369 61<88.5 151 88.5 160> 595 62<139.5 202> 692 62<88.5 151 88.5 160> 918 62<139.5 202>
LayerCount: 2
Fore
SplineSet
218 386 m 0xbb70
 143 386 96 439 96 516 c 0
 96 604 150 704 262 704 c 0
 337 704 384 651 384 574 c 0
 384 486 331 386 218 386 c 0xbb70
693 690 m 1x4420
 126 0 l 1
 58 0 l 1
 625 690 l 1
 693 690 l 1x4420
256 659 m 0x3b40
 193 659 158 589 158 513 c 0
 158 464 180 431 224 431 c 0
 287 431 322 501 322 578 c 0
 322 626 301 659 256 659 c 0x3b40
535 304 m 0
 610 304 657 251 657 174 c 0
 657 86 603 -14 491 -14 c 0
 415 -14 369 39 369 116 c 0xa0c0
 369 204 422 304 535 304 c 0
858 304 m 0xa0f0
 933 304 980 251 980 174 c 0
 980 86 926 -14 814 -14 c 0
 738 -14 692 39 692 116 c 0
 692 204 745 304 858 304 c 0xa0f0
496 31 m 0
 560 31 595 101 595 178 c 0
 595 226 573 259 529 259 c 0
 466 259 430 189 430 113 c 0
 430 64 452 31 496 31 c 0
819 31 m 0
 883 31 918 101 918 178 c 0
 918 226 896 259 852 259 c 0
 789 259 754 189 754 113 c 0
 754 64 775 31 819 31 c 0
EndSplineSet
EndChar

StartChar: guilsinglleft
Encoding: 8249 8249 274
Width: 362
Flags: MW
HStem: 82 332<216 337 216 337>
VStem: 108 229<248 414>
LayerCount: 2
Fore
SplineSet
166 243 m 1
 270 82 l 1
 216 82 l 1
 108 248 l 1
 274 414 l 1
 337 414 l 1
 166 243 l 1
EndSplineSet
EndChar

StartChar: guilsinglright
Encoding: 8250 8250 275
Width: 362
Flags: MW
HStem: 82 332<19 140 19 140>
VStem: 19 229<82 248>
LayerCount: 2
Fore
SplineSet
248 248 m 1
 82 82 l 1
 19 82 l 1
 190 254 l 1
 86 414 l 1
 140 414 l 1
 248 248 l 1
EndSplineSet
EndChar

StartChar: fraction
Encoding: 8260 8260 243
Width: 261
Flags: MW
HStem: 0 21G<-173 -105 -173 -173> 670 20G<394 462 462 462>
VStem: -173 635
LayerCount: 2
Fore
SplineSet
-105 0 m 1
 -173 0 l 1
 394 690 l 1
 462 690 l 1
 -105 0 l 1
EndSplineSet
EndChar

StartChar: Euro
Encoding: 8364 8364 286
Width: 561
Flags: MW
HStem: -14 50<265 332.5> 268 42<13 76 -5 78 146 420> 378 42<53 87 35 96 163 458> 654 50<331.5 427.5>
VStem: 76 68<257 262 262 268 178.5 268> 87 67<378 378>
LayerCount: 2
Fore
SplineSet
407 704 m 0xf8
 483 704 530 683 563 642 c 1
 526 603 l 1
 496 638 455 654 400 654 c 0
 263 654 193 541 163 420 c 1
 477 420 l 1
 458 378 l 1
 154 378 l 1
 150 355 147 332 146 310 c 1xf4
 436 310 l 1
 420 268 l 1
 144 268 l 1
 144 262 l 2
 144 95 209 36 321 36 c 0
 375 36 423 50 472 77 c 1
 462 23 l 1
 408 -5 358 -14 307 -14 c 0
 171 -14 76 50 76 257 c 2
 76 268 l 1
 -5 268 l 1
 13 310 l 1xf8
 78 310 l 1
 80 332 83 355 87 378 c 1
 35 378 l 1
 53 420 l 1
 96 420 l 1xf4
 132 565 222 704 407 704 c 0xf8
EndSplineSet
EndChar

StartChar: trademark
Encoding: 8482 8482 325
Width: 531
Flags: MW
HStem: 459 34<342 342 342 356 315 342> 614 45<437 437> 627 33<40 111 34 235 151 229 151 151>
VStem: 34 448<627 659>
LayerCount: 2
Fore
SplineSet
151 627 m 1x30
 121 456 l 1
 81 456 l 1
 111 627 l 1
 34 627 l 1
 40 660 l 1
 235 660 l 1
 229 627 l 1
 151 627 l 1x30
482 659 m 1xd0
 446 456 l 1
 407 456 l 1
 437 614 l 1x50
 356 459 l 1
 315 459 l 1
 289 613 l 1
 262 456 l 1
 224 456 l 1
 260 659 l 1
 318 659 l 1xb0
 342 493 l 1
 425 659 l 1
 482 659 l 1xd0
EndSplineSet
EndChar

StartChar: partialdiff
Encoding: 8706 8706 304
Width: 561
Flags: MW
HStem: -14 49<196 286.5 196 335> 430 49<230.5 327.5> 709 49<290 365.5>
VStem: 42 68<129.5 241.5 129.5 250> 453 67<477.5 560.5>
LayerCount: 2
Fore
SplineSet
326 758 m 0
 469 758 520 652 520 496 c 0
 520 254 444 -14 226 -14 c 0
 116 -14 42 56 42 174 c 0
 42 326 122 479 297 479 c 0
 376 479 427 444 447 393 c 1
 452 430 453 460 453 495 c 0
 453 626 418 709 313 709 c 0
 251 709 210 693 160 656 c 1
 137 695 l 1
 199 740 254 758 326 758 c 0
233 35 m 0
 340 35 411 159 438 326 c 1
 421 400 364 430 291 430 c 0
 170 430 110 307 110 176 c 0
 110 83 159 35 233 35 c 0
EndSplineSet
EndChar

StartChar: product
Encoding: 8719 8719 309
Width: 561
Flags: MW
HStem: 638 52<102 152 92 592 214 462 214 214 524 582 524 524>
VStem: 19 573
LayerCount: 2
Fore
SplineSet
582 638 m 1
 524 638 l 1
 391 -110 l 1
 329 -110 l 1
 462 638 l 1
 214 638 l 1
 81 -110 l 1
 19 -110 l 1
 152 638 l 1
 92 638 l 1
 102 690 l 1
 592 690 l 1
 582 638 l 1
EndSplineSet
EndChar

StartChar: summation
Encoding: 8721 8721 311
Width: 561
Flags: MW
HStem: -110 52<34 434> 638 52<188 561 188 188>
VStem: -47 617
LayerCount: 2
Fore
SplineSet
561 638 m 1
 188 638 l 1
 378 300 l 1
 34 -58 l 1
 444 -58 l 1
 434 -110 l 1
 -47 -110 l 1
 -38 -60 l 1
 306 301 l 1
 116 640 l 1
 125 690 l 1
 570 690 l 1
 561 638 l 1
EndSplineSet
EndChar

StartChar: minus
Encoding: 8722 8722 301
Width: 562
Flags: MW
HStem: 297 43<75 480 68 488>
VStem: 68 420<297 340>
LayerCount: 2
Fore
SplineSet
480 297 m 1
 68 297 l 1
 75 340 l 1
 488 340 l 1
 480 297 l 1
EndSplineSet
EndChar

StartChar: radical
Encoding: 8730 8730 310
Width: 561
Flags: MW
HStem: -160 54<202 202 202 222 164 202> 267 43<52 111 44 153>
VStem: 44 559<267 780>
LayerCount: 2
Fore
SplineSet
603 780 m 1
 222 -160 l 1
 164 -160 l 1
 111 267 l 1
 44 267 l 1
 52 310 l 1
 153 310 l 1
 202 -106 l 1
 556 780 l 1
 603 780 l 1
EndSplineSet
EndChar

StartChar: infinity
Encoding: 8734 8734 296
Width: 994
Flags: MW
HStem: -14 49<194.5 275.5 194.5 282.5 643 757> 495 49<237 350.5 718.5 799.5>
VStem: 27 68<159.5 276.5 159.5 284.5> 459 76<265 265> 899 68<253 370>
LayerCount: 2
Fore
SplineSet
765 544 m 0
 898 544 967 447 967 312 c 0
 967 178 882 -14 680 -14 c 0
 576 -14 503 45 480 167 c 1
 414 45 337 -14 228 -14 c 0
 95 -14 27 83 27 217 c 0
 27 352 112 544 314 544 c 0
 418 544 490 485 513 365 c 1
 578 484 656 544 765 544 c 0
459 265 m 1
 460 434 395 495 306 495 c 0
 168 495 95 334 95 219 c 0
 95 100 152 35 237 35 c 0
 314 35 412 99 459 265 c 1
688 35 m 0
 826 35 899 196 899 310 c 0
 899 430 842 495 757 495 c 0
 680 495 581 431 535 265 c 1
 533 96 598 35 688 35 c 0
EndSplineSet
EndChar

StartChar: integral
Encoding: 8747 8747 297
Width: 561
Flags: MW
HStem: -160 43<160.5 203.5 160.5 214> 711 43<361.5 404.5>
VStem: 246 47<489.5 582.5 489.5 596.5> 271 48<11.5 103.5>
LayerCount: 2
Fore
SplineSet
399 754 m 0xe0
 427 754 446 748 466 730 c 1
 444 691 l 1
 428 707 415 711 394 711 c 0
 329 711 293 642 293 523 c 0xe0
 293 456 296 403 305 303 c 1
 315 209 319 146 319 77 c 0
 319 -82 264 -160 164 -160 c 0
 137 -160 118 -154 99 -136 c 1
 120 -97 l 1
 136 -113 150 -117 171 -117 c 0
 236 -117 271 -50 271 73 c 0xd0
 271 134 268 183 259 292 c 1
 249 392 246 446 246 520 c 0
 246 673 301 754 399 754 c 0xe0
EndSplineSet
EndChar

StartChar: approxequal
Encoding: 8776 8776 289
Width: 549
Flags: MW
HStem: 152 46<350 379> 226 46<141.5 171> 319 46<379 408> 393 46<171 200>
VStem: 36 478<199 394>
LayerCount: 2
Fore
SplineSet
197 439 m 0
 235 439 257 427 304 400 c 1
 342 377 364 365 394 365 c 0
 431 365 455 381 485 419 c 1
 514 394 l 1
 474 344 434 319 382 319 c 0x78
 345 319 322 332 275 359 c 0
 237 381 215 393 185 393 c 0
 149 393 125 377 94 339 c 1
 66 367 l 1
 106 417 145 439 197 439 c 0
167 272 m 0
 205 272 228 259 275 232 c 0
 313 210 335 198 365 198 c 0
 402 198 425 214 456 252 c 1
 484 227 l 1
 444 176 405 152 353 152 c 0xd8
 315 152 292 164 246 191 c 0
 208 214 186 226 156 226 c 0
 119 226 95 210 65 172 c 1
 36 199 l 1
 76 250 116 272 167 272 c 0
EndSplineSet
EndChar

StartChar: notequal
Encoding: 8800 8800 303
Width: 561
Flags: MW
HStem: 198 43<54 156 47 188 238 467 54 206> 391 43<89 303 81 335 385 501 89 353> 391 140<81 459 409 459 409 501 353 459>
VStem: 47 462<198 434>
LayerCount: 2
Fore
SplineSet
353 391 m 1xd0
 238 241 l 1
 474 241 l 1
 467 198 l 1
 206 198 l 1
 132 101 l 1
 82 101 l 1
 156 198 l 1
 47 198 l 1
 54 241 l 1
 188 241 l 1
 303 391 l 1
 81 391 l 1
 89 434 l 1
 335 434 l 1xd0
 409 531 l 1
 459 531 l 1xb0
 385 434 l 1
 509 434 l 1
 501 391 l 1
 353 391 l 1xd0
EndSplineSet
EndChar

StartChar: lessequal
Encoding: 8804 8804 299
Width: 561
Flags: MW
HStem: 0 43<28 433 20 440>
VStem: 20 500<0 493>
LayerCount: 2
Fore
SplineSet
510 440 m 1
 121 294 l 1
 459 150 l 1
 450 98 l 1
 68 271 l 1
 77 321 l 1
 520 493 l 1
 510 440 l 1
28 43 m 1
 440 43 l 1
 433 0 l 1
 20 0 l 1
 28 43 l 1
EndSplineSet
EndChar

StartChar: greaterequal
Encoding: 8805 8805 295
Width: 561
Flags: MW
HStem: 0 43<28 433 20 440>
VStem: 20 469<0 321>
LayerCount: 2
Fore
SplineSet
489 321 m 1
 480 271 l 1
 37 98 l 1
 47 152 l 1
 436 298 l 1
 98 442 l 1
 107 493 l 1
 489 321 l 1
28 43 m 1
 440 43 l 1
 433 0 l 1
 20 0 l 1
 28 43 l 1
EndSplineSet
EndChar

StartChar: lozenge
Encoding: 9674 9674 312
Width: 511
Flags: MW
HStem: 0 45<202 202 202 219 170 202> 644 46<308 308>
VStem: 64 383<345 345>
LayerCount: 2
Fore
SplineSet
447 345 m 1
 219 0 l 1
 170 0 l 1
 64 345 l 1
 292 690 l 1
 341 690 l 1
 447 345 l 1
397 345 m 1
 308 644 l 1
 114 345 l 1
 202 45 l 1
 397 345 l 1
EndSplineSet
EndChar

StartChar: fi
Encoding: 64257 64257 231
Width: 471
GlyphClass: 3
Flags: MW
HStem: 0 21G<33 95 33 33 291 353 291 291> 475 50<78 116 69 125 187 374> 700.4 48.6 700.4 53.6
VStem: 33 412 127 62.5
LayerCount: 2
Fore
SplineSet
445 525 m 1xe8
 353 0 l 1
 291 0 l 1
 374 475 l 1
 178 475 l 1
 95 0 l 1
 33 0 l 1
 116 475 l 1
 69 475 l 1
 78 525 l 1
 125 525 l 1
 129 550 l 2
 132 568 137 591 143 610 c 0
 168 700 243 754 367 754 c 0xd4
 388 754 405 752 423 749 c 1
 413 697 l 1
 283 713 223 672 204 607 c 0
 199 590 195 570 192 555 c 2
 187 525 l 1xe4
 445 525 l 1xe8
EndSplineSet
Ligature2: "'liga' Standard Ligatures in Latin lookup 4 subtable" f i
EndChar

StartChar: fl
Encoding: 64258 64258 232
Width: 484
GlyphClass: 3
Flags: MW
HStem: -4 49 0 21G<32 94 32 32> 475 50<78 116 69 125 187 286> 705 49<303 356> 715 20G<478 478>
VStem: 127 62.5 298 66<29 83>
LayerCount: 2
Fore
SplineSet
364 78 m 0xae
 364 53 380 42 419 45 c 1
 411 -1 l 1
 395 -4 378 -4 361 -4 c 0
 324 -4 298 7 298 51 c 0xb6
 298 64 300 81 311 138 c 2
 409 696 l 1
 391 703 367 705 345 705 c 0
 261 705 220 660 204 607 c 0
 199 590 194 570 192 555 c 2
 187 525 l 1
 295 525 l 1
 286 475 l 1
 178 475 l 1
 94 0 l 1
 32 0 l 1
 116 475 l 1
 69 475 l 1
 78 525 l 1
 125 525 l 1
 129 550 l 2
 132 568 137 591 142 610 c 0
 167 699 238 754 356 754 c 0x76
 401 754 450 747 478 735 c 1
 373 140 l 2
 366 101 364 88 364 78 c 0xae
EndSplineSet
Ligature2: "'liga' Standard Ligatures in Latin lookup 4 subtable" f l
EndChar

StartChar: .notdef
Encoding: 65536 -1 0
Width: 567
Flags: MW
HStem: 0 50<147 487 147 567> 650 50<147 487 147 147>
LayerCount: 2
Fore
SplineSet
67 0 m 1
 67 700 l 1
 567 700 l 1
 567 0 l 1
 67 0 l 1
317 395 m 1
 487 650 l 1
 147 650 l 1
 317 395 l 1
347 350 m 1
 517 95 l 1
 517 605 l 1
 347 350 l 1
147 50 m 1
 487 50 l 1
 317 305 l 1
 147 50 l 1
117 605 m 1
 117 95 l 1
 287 350 l 1
 117 605 l 1
EndSplineSet
EndChar

StartChar: a.alt
Encoding: 65537 -1 230
Width: 587
GlyphClass: 2
Flags: MW
HStem: -14 49<188.5 250.5> 0 21G<406 468 406 406> 493 50<247.5 356.5 227.5 378> 509 20G<498 560 560 560>
VStem: 26 67<155 276 155 283.5> 462.65 19.35
LayerCount: 2
Fore
SplineSet
560 529 m 1x9c
 468 0 l 1
 406 0 l 1
 423 97 l 1x6c
 378 40 l 1
 336 3 282 -14 219 -14 c 0
 93 -14 26 79 26 201 c 0
 26 366 127 543 328 543 c 0
 385 543 434 523 461 486 c 1xac
 482 432 l 1
 498 529 l 1
 560 529 l 1x9c
458 292 m 1
 459 296 l 1x6c
 476 403 436 493 320 493 c 0
 175 493 93 348 93 204 c 0
 93 106 141 35 236 35 c 0xac
 330 35 422 92 451 252 c 2
 458 292 l 1
EndSplineSet
EndChar
